G75*
G70*
%OFA0B0*%
%FSLAX24Y24*%
%IPPOS*%
%LPD*%
%AMOC8*
5,1,8,0,0,1.08239X$1,22.5*
%
%ADD10C,0.0000*%
%ADD11C,0.0040*%
%ADD12C,0.0100*%
%ADD13C,0.0080*%
%ADD14C,0.0010*%
%ADD15C,0.0020*%
%ADD16R,0.0180X0.0300*%
%ADD17C,0.0050*%
%ADD18R,0.0300X0.0180*%
%ADD19C,0.0220*%
%ADD20C,0.0060*%
%ADD21C,0.0070*%
%ADD22C,0.0059*%
D10*
X001750Y000100D02*
X001750Y019785D01*
X021435Y019785D01*
X021435Y000100D01*
X001750Y000100D01*
X002030Y002881D02*
X002032Y002911D01*
X002038Y002941D01*
X002047Y002970D01*
X002060Y002997D01*
X002077Y003022D01*
X002096Y003045D01*
X002119Y003066D01*
X002144Y003083D01*
X002170Y003097D01*
X002199Y003107D01*
X002228Y003114D01*
X002258Y003117D01*
X002289Y003116D01*
X002319Y003111D01*
X002348Y003102D01*
X002375Y003090D01*
X002401Y003075D01*
X002425Y003056D01*
X002446Y003034D01*
X002464Y003010D01*
X002479Y002983D01*
X002490Y002955D01*
X002498Y002926D01*
X002502Y002896D01*
X002502Y002866D01*
X002498Y002836D01*
X002490Y002807D01*
X002479Y002779D01*
X002464Y002752D01*
X002446Y002728D01*
X002425Y002706D01*
X002401Y002687D01*
X002375Y002672D01*
X002348Y002660D01*
X002319Y002651D01*
X002289Y002646D01*
X002258Y002645D01*
X002228Y002648D01*
X002199Y002655D01*
X002170Y002665D01*
X002144Y002679D01*
X002119Y002696D01*
X002096Y002717D01*
X002077Y002740D01*
X002060Y002765D01*
X002047Y002792D01*
X002038Y002821D01*
X002032Y002851D01*
X002030Y002881D01*
X003014Y002881D02*
X003016Y002911D01*
X003022Y002941D01*
X003031Y002970D01*
X003044Y002997D01*
X003061Y003022D01*
X003080Y003045D01*
X003103Y003066D01*
X003128Y003083D01*
X003154Y003097D01*
X003183Y003107D01*
X003212Y003114D01*
X003242Y003117D01*
X003273Y003116D01*
X003303Y003111D01*
X003332Y003102D01*
X003359Y003090D01*
X003385Y003075D01*
X003409Y003056D01*
X003430Y003034D01*
X003448Y003010D01*
X003463Y002983D01*
X003474Y002955D01*
X003482Y002926D01*
X003486Y002896D01*
X003486Y002866D01*
X003482Y002836D01*
X003474Y002807D01*
X003463Y002779D01*
X003448Y002752D01*
X003430Y002728D01*
X003409Y002706D01*
X003385Y002687D01*
X003359Y002672D01*
X003332Y002660D01*
X003303Y002651D01*
X003273Y002646D01*
X003242Y002645D01*
X003212Y002648D01*
X003183Y002655D01*
X003154Y002665D01*
X003128Y002679D01*
X003103Y002696D01*
X003080Y002717D01*
X003061Y002740D01*
X003044Y002765D01*
X003031Y002792D01*
X003022Y002821D01*
X003016Y002851D01*
X003014Y002881D01*
X004983Y004850D02*
X004985Y004880D01*
X004991Y004910D01*
X005000Y004939D01*
X005013Y004966D01*
X005030Y004991D01*
X005049Y005014D01*
X005072Y005035D01*
X005097Y005052D01*
X005123Y005066D01*
X005152Y005076D01*
X005181Y005083D01*
X005211Y005086D01*
X005242Y005085D01*
X005272Y005080D01*
X005301Y005071D01*
X005328Y005059D01*
X005354Y005044D01*
X005378Y005025D01*
X005399Y005003D01*
X005417Y004979D01*
X005432Y004952D01*
X005443Y004924D01*
X005451Y004895D01*
X005455Y004865D01*
X005455Y004835D01*
X005451Y004805D01*
X005443Y004776D01*
X005432Y004748D01*
X005417Y004721D01*
X005399Y004697D01*
X005378Y004675D01*
X005354Y004656D01*
X005328Y004641D01*
X005301Y004629D01*
X005272Y004620D01*
X005242Y004615D01*
X005211Y004614D01*
X005181Y004617D01*
X005152Y004624D01*
X005123Y004634D01*
X005097Y004648D01*
X005072Y004665D01*
X005049Y004686D01*
X005030Y004709D01*
X005013Y004734D01*
X005000Y004761D01*
X004991Y004790D01*
X004985Y004820D01*
X004983Y004850D01*
X003014Y006819D02*
X003016Y006849D01*
X003022Y006879D01*
X003031Y006908D01*
X003044Y006935D01*
X003061Y006960D01*
X003080Y006983D01*
X003103Y007004D01*
X003128Y007021D01*
X003154Y007035D01*
X003183Y007045D01*
X003212Y007052D01*
X003242Y007055D01*
X003273Y007054D01*
X003303Y007049D01*
X003332Y007040D01*
X003359Y007028D01*
X003385Y007013D01*
X003409Y006994D01*
X003430Y006972D01*
X003448Y006948D01*
X003463Y006921D01*
X003474Y006893D01*
X003482Y006864D01*
X003486Y006834D01*
X003486Y006804D01*
X003482Y006774D01*
X003474Y006745D01*
X003463Y006717D01*
X003448Y006690D01*
X003430Y006666D01*
X003409Y006644D01*
X003385Y006625D01*
X003359Y006610D01*
X003332Y006598D01*
X003303Y006589D01*
X003273Y006584D01*
X003242Y006583D01*
X003212Y006586D01*
X003183Y006593D01*
X003154Y006603D01*
X003128Y006617D01*
X003103Y006634D01*
X003080Y006655D01*
X003061Y006678D01*
X003044Y006703D01*
X003031Y006730D01*
X003022Y006759D01*
X003016Y006789D01*
X003014Y006819D01*
X002030Y006819D02*
X002032Y006849D01*
X002038Y006879D01*
X002047Y006908D01*
X002060Y006935D01*
X002077Y006960D01*
X002096Y006983D01*
X002119Y007004D01*
X002144Y007021D01*
X002170Y007035D01*
X002199Y007045D01*
X002228Y007052D01*
X002258Y007055D01*
X002289Y007054D01*
X002319Y007049D01*
X002348Y007040D01*
X002375Y007028D01*
X002401Y007013D01*
X002425Y006994D01*
X002446Y006972D01*
X002464Y006948D01*
X002479Y006921D01*
X002490Y006893D01*
X002498Y006864D01*
X002502Y006834D01*
X002502Y006804D01*
X002498Y006774D01*
X002490Y006745D01*
X002479Y006717D01*
X002464Y006690D01*
X002446Y006666D01*
X002425Y006644D01*
X002401Y006625D01*
X002375Y006610D01*
X002348Y006598D01*
X002319Y006589D01*
X002289Y006584D01*
X002258Y006583D01*
X002228Y006586D01*
X002199Y006593D01*
X002170Y006603D01*
X002144Y006617D01*
X002119Y006634D01*
X002096Y006655D01*
X002077Y006678D01*
X002060Y006703D01*
X002047Y006730D01*
X002038Y006759D01*
X002032Y006789D01*
X002030Y006819D01*
D11*
X010520Y007920D02*
X010673Y007920D01*
X010597Y007920D02*
X010597Y008380D01*
X010673Y008380D02*
X010520Y008380D01*
X010827Y008304D02*
X010827Y007997D01*
X010904Y007920D01*
X011057Y007920D01*
X011134Y007997D01*
X011287Y007920D02*
X011594Y008227D01*
X011594Y008304D01*
X011518Y008380D01*
X011364Y008380D01*
X011287Y008304D01*
X011134Y008304D02*
X011057Y008380D01*
X010904Y008380D01*
X010827Y008304D01*
X011287Y007920D02*
X011594Y007920D01*
X020770Y005229D02*
X020770Y004922D01*
X020846Y004768D02*
X020770Y004692D01*
X020770Y004538D01*
X020846Y004462D01*
X020923Y004462D01*
X021000Y004538D01*
X021000Y004768D01*
X021153Y004768D02*
X020846Y004768D01*
X021153Y004768D02*
X021230Y004692D01*
X021230Y004538D01*
X021153Y004462D01*
X021000Y004308D02*
X021000Y004001D01*
X020770Y004231D01*
X021230Y004231D01*
X021153Y003848D02*
X021230Y003771D01*
X021230Y003618D01*
X021153Y003541D01*
X021153Y003387D02*
X021000Y003387D01*
X020923Y003311D01*
X020923Y003234D01*
X021000Y003080D01*
X020770Y003080D01*
X020770Y003387D01*
X020846Y003541D02*
X020770Y003618D01*
X020770Y003771D01*
X020846Y003848D01*
X020923Y003848D01*
X021000Y003771D01*
X021077Y003848D01*
X021153Y003848D01*
X021000Y003771D02*
X021000Y003694D01*
X021153Y003387D02*
X021230Y003311D01*
X021230Y003157D01*
X021153Y003080D01*
X021153Y002927D02*
X020846Y002927D01*
X020770Y002850D01*
X020770Y002620D01*
X021230Y002620D01*
X021230Y002850D01*
X021153Y002927D01*
X021153Y004922D02*
X021230Y004922D01*
X021153Y004922D02*
X020846Y005229D01*
X020770Y005229D01*
X005898Y017620D02*
X005725Y017793D01*
X005812Y017793D02*
X005551Y017793D01*
X005551Y017620D02*
X005551Y018140D01*
X005812Y018140D01*
X005898Y018054D01*
X005898Y017880D01*
X005812Y017793D01*
X005383Y017620D02*
X005383Y018140D01*
X005036Y018140D02*
X005036Y017620D01*
X005209Y017793D01*
X005383Y017620D01*
X004867Y017880D02*
X004867Y018054D01*
X004780Y018140D01*
X004520Y018140D01*
X004520Y017620D01*
X004520Y017793D02*
X004780Y017793D01*
X004867Y017880D01*
D12*
X010909Y007500D02*
X010911Y007523D01*
X010917Y007546D01*
X010926Y007567D01*
X010939Y007587D01*
X010955Y007604D01*
X010973Y007618D01*
X010993Y007629D01*
X011015Y007637D01*
X011038Y007641D01*
X011062Y007641D01*
X011085Y007637D01*
X011107Y007629D01*
X011127Y007618D01*
X011145Y007604D01*
X011161Y007587D01*
X011174Y007567D01*
X011183Y007546D01*
X011189Y007523D01*
X011191Y007500D01*
X011189Y007477D01*
X011183Y007454D01*
X011174Y007433D01*
X011161Y007413D01*
X011145Y007396D01*
X011127Y007382D01*
X011107Y007371D01*
X011085Y007363D01*
X011062Y007359D01*
X011038Y007359D01*
X011015Y007363D01*
X010993Y007371D01*
X010973Y007382D01*
X010955Y007396D01*
X010939Y007413D01*
X010926Y007433D01*
X010917Y007454D01*
X010911Y007477D01*
X010909Y007500D01*
X016250Y007350D02*
X016250Y005350D01*
X016750Y005350D01*
X016750Y005100D01*
X016750Y005350D02*
X017250Y005350D01*
X017250Y007350D01*
X016250Y007350D01*
X016250Y007850D01*
X016750Y007850D01*
X016750Y008100D01*
X016750Y007850D02*
X017250Y007850D01*
X017250Y007350D01*
D13*
X018766Y008100D02*
X018768Y008162D01*
X018774Y008225D01*
X018784Y008286D01*
X018798Y008347D01*
X018815Y008407D01*
X018836Y008466D01*
X018862Y008523D01*
X018890Y008578D01*
X018922Y008632D01*
X018958Y008683D01*
X018996Y008733D01*
X019038Y008779D01*
X019082Y008823D01*
X019130Y008864D01*
X019179Y008902D01*
X019231Y008936D01*
X019285Y008967D01*
X019341Y008995D01*
X019399Y009019D01*
X019458Y009040D01*
X019518Y009056D01*
X019579Y009069D01*
X019641Y009078D01*
X019703Y009083D01*
X019766Y009084D01*
X019828Y009081D01*
X019890Y009074D01*
X019952Y009063D01*
X020012Y009048D01*
X020072Y009030D01*
X020130Y009008D01*
X020187Y008982D01*
X020242Y008952D01*
X020295Y008919D01*
X020346Y008883D01*
X020394Y008844D01*
X020440Y008801D01*
X020483Y008756D01*
X020523Y008708D01*
X020560Y008658D01*
X020594Y008605D01*
X020625Y008551D01*
X020651Y008495D01*
X020675Y008437D01*
X020694Y008377D01*
X020710Y008317D01*
X020722Y008255D01*
X020730Y008194D01*
X020734Y008131D01*
X020734Y008069D01*
X020730Y008006D01*
X020722Y007945D01*
X020710Y007883D01*
X020694Y007823D01*
X020675Y007763D01*
X020651Y007705D01*
X020625Y007649D01*
X020594Y007595D01*
X020560Y007542D01*
X020523Y007492D01*
X020483Y007444D01*
X020440Y007399D01*
X020394Y007356D01*
X020346Y007317D01*
X020295Y007281D01*
X020242Y007248D01*
X020187Y007218D01*
X020130Y007192D01*
X020072Y007170D01*
X020012Y007152D01*
X019952Y007137D01*
X019890Y007126D01*
X019828Y007119D01*
X019766Y007116D01*
X019703Y007117D01*
X019641Y007122D01*
X019579Y007131D01*
X019518Y007144D01*
X019458Y007160D01*
X019399Y007181D01*
X019341Y007205D01*
X019285Y007233D01*
X019231Y007264D01*
X019179Y007298D01*
X019130Y007336D01*
X019082Y007377D01*
X019038Y007421D01*
X018996Y007467D01*
X018958Y007517D01*
X018922Y007568D01*
X018890Y007622D01*
X018862Y007677D01*
X018836Y007734D01*
X018815Y007793D01*
X018798Y007853D01*
X018784Y007914D01*
X018774Y007975D01*
X018768Y008038D01*
X018766Y008100D01*
X020300Y008400D02*
X020300Y008800D01*
X021356Y012880D02*
X018796Y012880D01*
X018796Y017289D01*
X021356Y017289D01*
X021356Y012880D01*
X021749Y012880D01*
X021749Y017289D01*
X021356Y017289D01*
X013787Y019628D02*
X013787Y010572D01*
X012606Y010572D01*
X012606Y011084D01*
X012606Y010572D02*
X012213Y010572D01*
X012213Y019628D01*
X012606Y019628D01*
X012606Y019116D01*
X012606Y019628D02*
X013787Y019628D01*
X012606Y018092D02*
X012606Y017108D01*
X012606Y016084D02*
X012606Y013092D01*
X011250Y010850D02*
X011234Y010789D01*
X011216Y010729D01*
X011194Y010671D01*
X011169Y010613D01*
X011141Y010557D01*
X011110Y010502D01*
X011076Y010450D01*
X011039Y010399D01*
X011000Y010350D01*
X011250Y010850D02*
X011262Y010916D01*
X011271Y010982D01*
X011276Y011048D01*
X011277Y011115D01*
X011274Y011182D01*
X011267Y011248D01*
X011257Y011314D01*
X011243Y011379D01*
X011225Y011444D01*
X011203Y011507D01*
X011177Y011569D01*
X011149Y011629D01*
X011116Y011687D01*
X011081Y011744D01*
X011042Y011798D01*
X011000Y011850D01*
X011250Y011350D02*
X011262Y011288D01*
X011270Y011226D01*
X011275Y011163D01*
X011277Y011100D01*
X011275Y011037D01*
X011270Y010974D01*
X011262Y010912D01*
X011250Y010850D01*
X009600Y010275D02*
X009600Y011925D01*
X009850Y012610D02*
X009850Y015190D01*
X008550Y015190D01*
X008550Y012610D01*
X009850Y012610D01*
X008250Y010650D02*
X007850Y010650D01*
X006566Y011200D02*
X006568Y011262D01*
X006574Y011325D01*
X006584Y011386D01*
X006598Y011447D01*
X006615Y011507D01*
X006636Y011566D01*
X006662Y011623D01*
X006690Y011678D01*
X006722Y011732D01*
X006758Y011783D01*
X006796Y011833D01*
X006838Y011879D01*
X006882Y011923D01*
X006930Y011964D01*
X006979Y012002D01*
X007031Y012036D01*
X007085Y012067D01*
X007141Y012095D01*
X007199Y012119D01*
X007258Y012140D01*
X007318Y012156D01*
X007379Y012169D01*
X007441Y012178D01*
X007503Y012183D01*
X007566Y012184D01*
X007628Y012181D01*
X007690Y012174D01*
X007752Y012163D01*
X007812Y012148D01*
X007872Y012130D01*
X007930Y012108D01*
X007987Y012082D01*
X008042Y012052D01*
X008095Y012019D01*
X008146Y011983D01*
X008194Y011944D01*
X008240Y011901D01*
X008283Y011856D01*
X008323Y011808D01*
X008360Y011758D01*
X008394Y011705D01*
X008425Y011651D01*
X008451Y011595D01*
X008475Y011537D01*
X008494Y011477D01*
X008510Y011417D01*
X008522Y011355D01*
X008530Y011294D01*
X008534Y011231D01*
X008534Y011169D01*
X008530Y011106D01*
X008522Y011045D01*
X008510Y010983D01*
X008494Y010923D01*
X008475Y010863D01*
X008451Y010805D01*
X008425Y010749D01*
X008394Y010695D01*
X008360Y010642D01*
X008323Y010592D01*
X008283Y010544D01*
X008240Y010499D01*
X008194Y010456D01*
X008146Y010417D01*
X008095Y010381D01*
X008042Y010348D01*
X007987Y010318D01*
X007930Y010292D01*
X007872Y010270D01*
X007812Y010252D01*
X007752Y010237D01*
X007690Y010226D01*
X007628Y010219D01*
X007566Y010216D01*
X007503Y010217D01*
X007441Y010222D01*
X007379Y010231D01*
X007318Y010244D01*
X007258Y010260D01*
X007199Y010281D01*
X007141Y010305D01*
X007085Y010333D01*
X007031Y010364D01*
X006979Y010398D01*
X006930Y010436D01*
X006882Y010477D01*
X006838Y010521D01*
X006796Y010567D01*
X006758Y010617D01*
X006722Y010668D01*
X006690Y010722D01*
X006662Y010777D01*
X006636Y010834D01*
X006615Y010893D01*
X006598Y010953D01*
X006584Y011014D01*
X006574Y011075D01*
X006568Y011138D01*
X006566Y011200D01*
X005894Y012828D02*
X005618Y012828D01*
X005894Y012828D02*
X005894Y013655D01*
X005894Y015545D02*
X005894Y016372D01*
X001681Y016372D01*
X001681Y012828D01*
X003768Y012828D01*
X003772Y012399D02*
X002059Y012399D01*
X002059Y007820D01*
X003772Y007820D01*
X003772Y012399D01*
X006850Y009150D02*
X007250Y009150D01*
X006566Y008600D02*
X006568Y008662D01*
X006574Y008725D01*
X006584Y008786D01*
X006598Y008847D01*
X006615Y008907D01*
X006636Y008966D01*
X006662Y009023D01*
X006690Y009078D01*
X006722Y009132D01*
X006758Y009183D01*
X006796Y009233D01*
X006838Y009279D01*
X006882Y009323D01*
X006930Y009364D01*
X006979Y009402D01*
X007031Y009436D01*
X007085Y009467D01*
X007141Y009495D01*
X007199Y009519D01*
X007258Y009540D01*
X007318Y009556D01*
X007379Y009569D01*
X007441Y009578D01*
X007503Y009583D01*
X007566Y009584D01*
X007628Y009581D01*
X007690Y009574D01*
X007752Y009563D01*
X007812Y009548D01*
X007872Y009530D01*
X007930Y009508D01*
X007987Y009482D01*
X008042Y009452D01*
X008095Y009419D01*
X008146Y009383D01*
X008194Y009344D01*
X008240Y009301D01*
X008283Y009256D01*
X008323Y009208D01*
X008360Y009158D01*
X008394Y009105D01*
X008425Y009051D01*
X008451Y008995D01*
X008475Y008937D01*
X008494Y008877D01*
X008510Y008817D01*
X008522Y008755D01*
X008530Y008694D01*
X008534Y008631D01*
X008534Y008569D01*
X008530Y008506D01*
X008522Y008445D01*
X008510Y008383D01*
X008494Y008323D01*
X008475Y008263D01*
X008451Y008205D01*
X008425Y008149D01*
X008394Y008095D01*
X008360Y008042D01*
X008323Y007992D01*
X008283Y007944D01*
X008240Y007899D01*
X008194Y007856D01*
X008146Y007817D01*
X008095Y007781D01*
X008042Y007748D01*
X007987Y007718D01*
X007930Y007692D01*
X007872Y007670D01*
X007812Y007652D01*
X007752Y007637D01*
X007690Y007626D01*
X007628Y007619D01*
X007566Y007616D01*
X007503Y007617D01*
X007441Y007622D01*
X007379Y007631D01*
X007318Y007644D01*
X007258Y007660D01*
X007199Y007681D01*
X007141Y007705D01*
X007085Y007733D01*
X007031Y007764D01*
X006979Y007798D01*
X006930Y007836D01*
X006882Y007877D01*
X006838Y007921D01*
X006796Y007967D01*
X006758Y008017D01*
X006722Y008068D01*
X006690Y008122D01*
X006662Y008177D01*
X006636Y008234D01*
X006615Y008293D01*
X006598Y008353D01*
X006584Y008414D01*
X006574Y008475D01*
X006568Y008538D01*
X006566Y008600D01*
X006203Y007212D02*
X005809Y007212D01*
X006203Y007212D02*
X006203Y002488D01*
X005809Y002488D01*
X004628Y002488D02*
X001872Y002488D01*
X001872Y007212D01*
X004628Y007212D01*
X007500Y003100D02*
X008000Y003100D01*
X008250Y002850D01*
X008500Y003100D01*
X009000Y003100D01*
X009250Y002850D01*
X009250Y002350D01*
X009000Y002100D01*
X008500Y002100D01*
X008250Y002350D01*
X008000Y002100D01*
X007500Y002100D01*
X007250Y002350D01*
X007250Y002850D01*
X007500Y003100D01*
X015470Y002100D02*
X015472Y002171D01*
X015478Y002242D01*
X015488Y002313D01*
X015502Y002382D01*
X015519Y002451D01*
X015541Y002519D01*
X015566Y002586D01*
X015595Y002651D01*
X015627Y002714D01*
X015663Y002776D01*
X015702Y002835D01*
X015745Y002892D01*
X015790Y002947D01*
X015839Y002999D01*
X015890Y003048D01*
X015944Y003094D01*
X016001Y003138D01*
X016059Y003178D01*
X016120Y003214D01*
X016183Y003248D01*
X016248Y003277D01*
X016314Y003303D01*
X016382Y003326D01*
X016450Y003344D01*
X016520Y003359D01*
X016590Y003370D01*
X016661Y003377D01*
X016732Y003380D01*
X016803Y003379D01*
X016874Y003374D01*
X016945Y003365D01*
X017015Y003352D01*
X017084Y003336D01*
X017152Y003315D01*
X017219Y003291D01*
X017285Y003263D01*
X017348Y003231D01*
X017410Y003196D01*
X017470Y003158D01*
X017528Y003116D01*
X017583Y003072D01*
X017636Y003024D01*
X017686Y002973D01*
X017733Y002920D01*
X017777Y002864D01*
X017818Y002806D01*
X017856Y002745D01*
X017890Y002683D01*
X017920Y002618D01*
X017947Y002553D01*
X017971Y002485D01*
X017990Y002417D01*
X018006Y002348D01*
X018018Y002277D01*
X018026Y002207D01*
X018030Y002136D01*
X018030Y002064D01*
X018026Y001993D01*
X018018Y001923D01*
X018006Y001852D01*
X017990Y001783D01*
X017971Y001715D01*
X017947Y001647D01*
X017920Y001582D01*
X017890Y001517D01*
X017856Y001455D01*
X017818Y001394D01*
X017777Y001336D01*
X017733Y001280D01*
X017686Y001227D01*
X017636Y001176D01*
X017583Y001128D01*
X017528Y001084D01*
X017470Y001042D01*
X017410Y001004D01*
X017348Y000969D01*
X017285Y000937D01*
X017219Y000909D01*
X017152Y000885D01*
X017084Y000864D01*
X017015Y000848D01*
X016945Y000835D01*
X016874Y000826D01*
X016803Y000821D01*
X016732Y000820D01*
X016661Y000823D01*
X016590Y000830D01*
X016520Y000841D01*
X016450Y000856D01*
X016382Y000874D01*
X016314Y000897D01*
X016248Y000923D01*
X016183Y000952D01*
X016120Y000986D01*
X016059Y001022D01*
X016001Y001062D01*
X015944Y001106D01*
X015890Y001152D01*
X015839Y001201D01*
X015790Y001253D01*
X015745Y001308D01*
X015702Y001365D01*
X015663Y001424D01*
X015627Y001486D01*
X015595Y001549D01*
X015566Y001614D01*
X015541Y001681D01*
X015519Y001749D01*
X015502Y001818D01*
X015488Y001887D01*
X015478Y001958D01*
X015472Y002029D01*
X015470Y002100D01*
X017250Y002350D02*
X017250Y002850D01*
X019819Y004417D02*
X020000Y004417D01*
X020092Y004295D01*
X020181Y004417D02*
X020000Y004417D01*
X019990Y004411D02*
X019914Y004295D01*
X009000Y016600D02*
X008500Y016600D01*
X008250Y016850D01*
X008000Y016600D01*
X007500Y016600D01*
X007250Y016850D01*
X007250Y017350D01*
X007500Y017600D01*
X008000Y017600D01*
X008250Y017350D01*
X008500Y017600D01*
X009000Y017600D01*
X009250Y017350D01*
X009250Y016850D01*
X009000Y016600D01*
X003555Y016764D02*
X003439Y016840D01*
X003433Y016850D02*
X003555Y016942D01*
X003433Y017031D02*
X003433Y016850D01*
X003433Y016669D01*
D14*
X003413Y016570D02*
X003413Y016420D01*
X003513Y016420D01*
X003560Y016420D02*
X003635Y016420D01*
X003660Y016445D01*
X003660Y016545D01*
X003635Y016570D01*
X003560Y016570D01*
X003560Y016420D01*
X003463Y016495D02*
X003413Y016495D01*
X003413Y016570D02*
X003513Y016570D01*
X003708Y016545D02*
X003733Y016570D01*
X003783Y016570D01*
X003808Y016545D01*
X003808Y016520D01*
X003708Y016420D01*
X003808Y016420D01*
X003366Y016420D02*
X003266Y016420D01*
X003266Y016570D01*
X002655Y016058D02*
X002655Y015958D01*
X002655Y016008D02*
X002505Y016008D01*
X002555Y015958D01*
X002505Y015910D02*
X002505Y015860D01*
X002505Y015885D02*
X002630Y015885D01*
X002655Y015860D01*
X002655Y015835D01*
X002630Y015810D01*
X004655Y017155D02*
X004655Y017305D01*
X004730Y017305D01*
X004755Y017280D01*
X004755Y017230D01*
X004730Y017205D01*
X004655Y017205D01*
X004705Y017205D02*
X004755Y017155D01*
X004802Y017155D02*
X004902Y017155D01*
X004852Y017155D02*
X004852Y017305D01*
X004802Y017255D01*
X004950Y017230D02*
X005000Y017255D01*
X005025Y017255D01*
X005050Y017230D01*
X005050Y017180D01*
X005025Y017155D01*
X004975Y017155D01*
X004950Y017180D01*
X004950Y017230D02*
X004950Y017305D01*
X005050Y017305D01*
X010980Y014133D02*
X011130Y014133D01*
X011130Y014083D02*
X011130Y014183D01*
X011030Y014083D02*
X010980Y014133D01*
X011005Y014035D02*
X010980Y014010D01*
X010980Y013960D01*
X011005Y013935D01*
X011105Y013935D01*
X011130Y013960D01*
X011130Y014010D01*
X011105Y014035D01*
X011130Y013887D02*
X011130Y013837D01*
X011130Y013862D02*
X010980Y013862D01*
X010980Y013837D02*
X010980Y013887D01*
X011285Y011424D02*
X011218Y011404D01*
X011198Y011462D01*
X011175Y011518D01*
X011148Y011573D01*
X011118Y011626D01*
X011084Y011678D01*
X011048Y011727D01*
X011009Y011774D01*
X010967Y011818D01*
X010922Y011860D01*
X010875Y011900D01*
X010826Y011936D01*
X010775Y011969D01*
X010721Y011999D01*
X010666Y012026D01*
X010610Y012049D01*
X010552Y012069D01*
X010493Y012085D01*
X010433Y012098D01*
X010373Y012108D01*
X010312Y012113D01*
X010251Y012115D01*
X010189Y012113D01*
X010128Y012108D01*
X010068Y012099D01*
X010008Y012086D01*
X009949Y012069D01*
X009891Y012050D01*
X009835Y012026D01*
X009780Y011999D01*
X009726Y011970D01*
X009675Y011936D01*
X009626Y011900D01*
X009583Y011955D01*
X009582Y011955D01*
X009635Y011994D01*
X009690Y012029D01*
X009747Y012061D01*
X009806Y012090D01*
X009866Y012115D01*
X009928Y012136D01*
X009991Y012154D01*
X010055Y012167D01*
X010120Y012177D01*
X010185Y012183D01*
X010251Y012185D01*
X010316Y012183D01*
X010381Y012177D01*
X010446Y012167D01*
X010510Y012153D01*
X010573Y012136D01*
X010635Y012115D01*
X010695Y012090D01*
X010754Y012061D01*
X010811Y012029D01*
X010866Y011993D01*
X010919Y011955D01*
X010969Y011913D01*
X011016Y011868D01*
X011061Y011820D01*
X011103Y011770D01*
X011142Y011717D01*
X011178Y011663D01*
X011210Y011606D01*
X011239Y011547D01*
X011264Y011486D01*
X011285Y011425D01*
X011277Y011422D01*
X011255Y011483D01*
X011230Y011543D01*
X011202Y011601D01*
X011170Y011658D01*
X011135Y011712D01*
X011096Y011765D01*
X011055Y011814D01*
X011010Y011862D01*
X010963Y011906D01*
X010913Y011947D01*
X010861Y011986D01*
X010806Y012021D01*
X010750Y012053D01*
X010691Y012081D01*
X010631Y012106D01*
X010570Y012127D01*
X010508Y012145D01*
X010444Y012158D01*
X010380Y012168D01*
X010315Y012174D01*
X010251Y012176D01*
X010186Y012174D01*
X010121Y012168D01*
X010057Y012159D01*
X009993Y012145D01*
X009931Y012128D01*
X009870Y012107D01*
X009810Y012082D01*
X009751Y012053D01*
X009695Y012022D01*
X009640Y011987D01*
X009588Y011948D01*
X009593Y011941D01*
X009645Y011979D01*
X009699Y012014D01*
X009755Y012045D01*
X009813Y012074D01*
X009873Y012098D01*
X009934Y012119D01*
X009996Y012136D01*
X010059Y012150D01*
X010122Y012159D01*
X010186Y012165D01*
X010251Y012167D01*
X010315Y012165D01*
X010379Y012159D01*
X010442Y012149D01*
X010505Y012136D01*
X010567Y012119D01*
X010628Y012098D01*
X010688Y012073D01*
X010745Y012045D01*
X010802Y012013D01*
X010856Y011979D01*
X010907Y011940D01*
X010957Y011899D01*
X011004Y011855D01*
X011048Y011808D01*
X011089Y011759D01*
X011127Y011707D01*
X011162Y011653D01*
X011194Y011597D01*
X011222Y011540D01*
X011247Y011480D01*
X011268Y011419D01*
X011259Y011417D01*
X011239Y011477D01*
X011214Y011536D01*
X011186Y011593D01*
X011155Y011649D01*
X011120Y011702D01*
X011082Y011754D01*
X011041Y011802D01*
X010997Y011849D01*
X010951Y011893D01*
X010902Y011933D01*
X010850Y011971D01*
X010797Y012006D01*
X010741Y012037D01*
X010684Y012065D01*
X010625Y012089D01*
X010565Y012110D01*
X010503Y012127D01*
X010441Y012141D01*
X010378Y012150D01*
X010314Y012156D01*
X010251Y012158D01*
X010187Y012156D01*
X010123Y012150D01*
X010060Y012141D01*
X009998Y012128D01*
X009936Y012110D01*
X009876Y012090D01*
X009817Y012065D01*
X009760Y012038D01*
X009704Y012006D01*
X009650Y011972D01*
X009599Y011934D01*
X009605Y011927D01*
X009656Y011964D01*
X009709Y011999D01*
X009764Y012030D01*
X009821Y012057D01*
X009879Y012081D01*
X009939Y012102D01*
X010000Y012119D01*
X010062Y012132D01*
X010124Y012141D01*
X010187Y012147D01*
X010251Y012149D01*
X010314Y012147D01*
X010377Y012141D01*
X010439Y012132D01*
X010501Y012119D01*
X010562Y012102D01*
X010622Y012081D01*
X010680Y012057D01*
X010737Y012029D01*
X010792Y011998D01*
X010845Y011964D01*
X010896Y011926D01*
X010945Y011886D01*
X010991Y011843D01*
X011034Y011797D01*
X011075Y011748D01*
X011112Y011697D01*
X011147Y011644D01*
X011178Y011589D01*
X011206Y011532D01*
X011230Y011474D01*
X011251Y011414D01*
X011242Y011411D01*
X011222Y011471D01*
X011198Y011528D01*
X011170Y011585D01*
X011139Y011639D01*
X011105Y011692D01*
X011068Y011742D01*
X011028Y011791D01*
X010985Y011836D01*
X010939Y011879D01*
X010891Y011919D01*
X010840Y011956D01*
X010788Y011990D01*
X010733Y012021D01*
X010677Y012049D01*
X010619Y012072D01*
X010559Y012093D01*
X010499Y012110D01*
X010438Y012123D01*
X010376Y012132D01*
X010313Y012138D01*
X010251Y012140D01*
X010188Y012138D01*
X010125Y012133D01*
X010063Y012123D01*
X010002Y012110D01*
X009942Y012093D01*
X009882Y012073D01*
X009824Y012049D01*
X009768Y012022D01*
X009713Y011991D01*
X009661Y011957D01*
X009610Y011920D01*
X009616Y011913D01*
X009666Y011950D01*
X009718Y011983D01*
X009772Y012014D01*
X009828Y012041D01*
X009886Y012064D01*
X009944Y012085D01*
X010004Y012101D01*
X010065Y012114D01*
X010127Y012124D01*
X010188Y012129D01*
X010251Y012131D01*
X010313Y012129D01*
X010375Y012123D01*
X010436Y012114D01*
X010497Y012101D01*
X010557Y012084D01*
X010615Y012064D01*
X010673Y012040D01*
X010729Y012013D01*
X010783Y011983D01*
X010835Y011949D01*
X010885Y011912D01*
X010933Y011872D01*
X010978Y011830D01*
X011021Y011785D01*
X011061Y011737D01*
X011098Y011687D01*
X011131Y011635D01*
X011162Y011581D01*
X011189Y011525D01*
X011213Y011467D01*
X011234Y011409D01*
X011225Y011406D01*
X011205Y011464D01*
X011181Y011521D01*
X011154Y011576D01*
X011124Y011630D01*
X011090Y011682D01*
X011054Y011731D01*
X011014Y011779D01*
X010972Y011823D01*
X010927Y011866D01*
X010880Y011905D01*
X010830Y011941D01*
X010778Y011975D01*
X010725Y012005D01*
X010669Y012032D01*
X010612Y012056D01*
X010554Y012076D01*
X010495Y012092D01*
X010434Y012105D01*
X010374Y012115D01*
X010312Y012120D01*
X010251Y012122D01*
X010189Y012120D01*
X010128Y012115D01*
X010067Y012105D01*
X010006Y012093D01*
X009947Y012076D01*
X009889Y012056D01*
X009832Y012033D01*
X009776Y012006D01*
X009723Y011976D01*
X009671Y011942D01*
X009621Y011906D01*
X009583Y010245D02*
X009626Y010300D01*
X009675Y010264D01*
X009726Y010230D01*
X009780Y010201D01*
X009835Y010174D01*
X009891Y010150D01*
X009949Y010131D01*
X010008Y010114D01*
X010068Y010101D01*
X010128Y010092D01*
X010189Y010087D01*
X010251Y010085D01*
X010312Y010087D01*
X010373Y010092D01*
X010433Y010102D01*
X010493Y010115D01*
X010552Y010131D01*
X010610Y010151D01*
X010666Y010174D01*
X010721Y010201D01*
X010775Y010231D01*
X010826Y010264D01*
X010875Y010300D01*
X010922Y010340D01*
X010967Y010381D01*
X011009Y010426D01*
X011048Y010473D01*
X011084Y010522D01*
X011118Y010573D01*
X011148Y010627D01*
X011175Y010682D01*
X011198Y010738D01*
X011218Y010796D01*
X011285Y010776D01*
X011285Y010775D01*
X011264Y010714D01*
X011239Y010653D01*
X011210Y010594D01*
X011178Y010537D01*
X011142Y010483D01*
X011103Y010430D01*
X011061Y010380D01*
X011016Y010332D01*
X010969Y010287D01*
X010919Y010245D01*
X010866Y010207D01*
X010811Y010171D01*
X010754Y010139D01*
X010695Y010110D01*
X010635Y010085D01*
X010573Y010064D01*
X010510Y010047D01*
X010446Y010033D01*
X010381Y010023D01*
X010316Y010017D01*
X010250Y010015D01*
X010185Y010017D01*
X010120Y010023D01*
X010055Y010033D01*
X009991Y010046D01*
X009928Y010064D01*
X009866Y010085D01*
X009806Y010110D01*
X009747Y010139D01*
X009690Y010171D01*
X009635Y010206D01*
X009582Y010245D01*
X009588Y010252D01*
X009640Y010214D01*
X009695Y010178D01*
X009751Y010147D01*
X009810Y010118D01*
X009870Y010093D01*
X009931Y010072D01*
X009993Y010055D01*
X010057Y010041D01*
X010121Y010032D01*
X010186Y010026D01*
X010251Y010024D01*
X010315Y010026D01*
X010380Y010032D01*
X010444Y010042D01*
X010508Y010055D01*
X010570Y010073D01*
X010631Y010094D01*
X010691Y010119D01*
X010750Y010147D01*
X010806Y010179D01*
X010861Y010214D01*
X010913Y010252D01*
X010963Y010294D01*
X011010Y010338D01*
X011055Y010386D01*
X011096Y010435D01*
X011135Y010488D01*
X011170Y010542D01*
X011202Y010599D01*
X011230Y010657D01*
X011255Y010717D01*
X011277Y010778D01*
X011268Y010781D01*
X011247Y010720D01*
X011222Y010660D01*
X011194Y010603D01*
X011162Y010547D01*
X011127Y010493D01*
X011089Y010441D01*
X011048Y010392D01*
X011004Y010345D01*
X010957Y010301D01*
X010907Y010260D01*
X010856Y010221D01*
X010802Y010187D01*
X010745Y010155D01*
X010688Y010127D01*
X010628Y010102D01*
X010567Y010081D01*
X010505Y010064D01*
X010442Y010051D01*
X010379Y010041D01*
X010315Y010035D01*
X010251Y010033D01*
X010186Y010035D01*
X010122Y010041D01*
X010059Y010050D01*
X009996Y010064D01*
X009934Y010081D01*
X009873Y010102D01*
X009813Y010126D01*
X009755Y010155D01*
X009699Y010186D01*
X009645Y010221D01*
X009593Y010259D01*
X009599Y010266D01*
X009650Y010228D01*
X009704Y010194D01*
X009760Y010162D01*
X009817Y010135D01*
X009876Y010110D01*
X009936Y010090D01*
X009998Y010073D01*
X010060Y010059D01*
X010123Y010050D01*
X010187Y010044D01*
X010251Y010042D01*
X010314Y010044D01*
X010378Y010050D01*
X010441Y010059D01*
X010503Y010073D01*
X010565Y010090D01*
X010625Y010111D01*
X010684Y010135D01*
X010741Y010163D01*
X010797Y010194D01*
X010850Y010229D01*
X010902Y010267D01*
X010951Y010307D01*
X010997Y010351D01*
X011041Y010398D01*
X011082Y010446D01*
X011120Y010498D01*
X011155Y010551D01*
X011186Y010607D01*
X011214Y010664D01*
X011239Y010723D01*
X011259Y010783D01*
X011251Y010786D01*
X011230Y010726D01*
X011206Y010668D01*
X011178Y010611D01*
X011147Y010556D01*
X011112Y010503D01*
X011075Y010452D01*
X011034Y010403D01*
X010991Y010357D01*
X010945Y010314D01*
X010896Y010274D01*
X010845Y010236D01*
X010792Y010202D01*
X010737Y010171D01*
X010680Y010143D01*
X010622Y010119D01*
X010562Y010098D01*
X010501Y010081D01*
X010439Y010068D01*
X010377Y010059D01*
X010314Y010053D01*
X010251Y010051D01*
X010187Y010053D01*
X010124Y010059D01*
X010062Y010068D01*
X010000Y010081D01*
X009939Y010098D01*
X009879Y010119D01*
X009821Y010143D01*
X009764Y010170D01*
X009709Y010201D01*
X009656Y010236D01*
X009605Y010273D01*
X009610Y010280D01*
X009661Y010243D01*
X009713Y010209D01*
X009768Y010178D01*
X009824Y010151D01*
X009882Y010127D01*
X009942Y010107D01*
X010002Y010090D01*
X010063Y010077D01*
X010125Y010067D01*
X010188Y010062D01*
X010251Y010060D01*
X010313Y010062D01*
X010376Y010068D01*
X010438Y010077D01*
X010499Y010090D01*
X010559Y010107D01*
X010619Y010128D01*
X010677Y010151D01*
X010733Y010179D01*
X010788Y010210D01*
X010840Y010244D01*
X010891Y010281D01*
X010939Y010321D01*
X010985Y010364D01*
X011028Y010409D01*
X011068Y010458D01*
X011105Y010508D01*
X011139Y010561D01*
X011170Y010615D01*
X011198Y010671D01*
X011222Y010729D01*
X011242Y010789D01*
X011234Y010791D01*
X011213Y010733D01*
X011189Y010675D01*
X011162Y010619D01*
X011131Y010565D01*
X011098Y010513D01*
X011061Y010463D01*
X011021Y010415D01*
X010978Y010370D01*
X010933Y010328D01*
X010885Y010288D01*
X010835Y010251D01*
X010783Y010217D01*
X010729Y010187D01*
X010673Y010160D01*
X010615Y010136D01*
X010557Y010116D01*
X010497Y010099D01*
X010436Y010086D01*
X010375Y010077D01*
X010313Y010071D01*
X010251Y010069D01*
X010188Y010071D01*
X010127Y010076D01*
X010065Y010086D01*
X010004Y010099D01*
X009944Y010115D01*
X009886Y010136D01*
X009828Y010159D01*
X009772Y010186D01*
X009718Y010217D01*
X009666Y010250D01*
X009616Y010287D01*
X009621Y010294D01*
X009671Y010258D01*
X009723Y010225D01*
X009776Y010194D01*
X009832Y010167D01*
X009889Y010144D01*
X009947Y010124D01*
X010006Y010107D01*
X010067Y010095D01*
X010128Y010085D01*
X010189Y010080D01*
X010251Y010078D01*
X010312Y010080D01*
X010373Y010085D01*
X010434Y010095D01*
X010495Y010108D01*
X010554Y010124D01*
X010612Y010144D01*
X010669Y010168D01*
X010725Y010195D01*
X010778Y010225D01*
X010830Y010258D01*
X010880Y010295D01*
X010927Y010334D01*
X010972Y010377D01*
X011014Y010421D01*
X011054Y010469D01*
X011090Y010518D01*
X011124Y010570D01*
X011154Y010624D01*
X011181Y010679D01*
X011205Y010736D01*
X011225Y010794D01*
X012910Y009295D02*
X012985Y009295D01*
X013010Y009270D01*
X013010Y009220D01*
X012985Y009195D01*
X012910Y009195D01*
X012910Y009145D02*
X012910Y009295D01*
X012960Y009195D02*
X013010Y009145D01*
X013058Y009170D02*
X013083Y009145D01*
X013133Y009145D01*
X013158Y009170D01*
X013158Y009195D01*
X013133Y009220D01*
X013108Y009220D01*
X013133Y009220D02*
X013158Y009245D01*
X013158Y009270D01*
X013133Y009295D01*
X013083Y009295D01*
X013058Y009270D01*
X012875Y009055D02*
X012800Y008980D01*
X012900Y008980D01*
X012875Y008905D02*
X012875Y009055D01*
X012702Y009055D02*
X012702Y008905D01*
X012652Y008905D02*
X012752Y008905D01*
X012652Y009005D02*
X012702Y009055D01*
X012605Y009030D02*
X012605Y008980D01*
X012580Y008955D01*
X012505Y008955D01*
X012505Y008905D02*
X012505Y009055D01*
X012580Y009055D01*
X012605Y009030D01*
X012555Y008955D02*
X012605Y008905D01*
X011500Y008930D02*
X011475Y008905D01*
X011425Y008905D01*
X011400Y008930D01*
X011352Y008905D02*
X011252Y008905D01*
X011205Y008905D02*
X011155Y008955D01*
X011180Y008955D02*
X011105Y008955D01*
X011105Y008905D02*
X011105Y009055D01*
X011180Y009055D01*
X011205Y009030D01*
X011205Y008980D01*
X011180Y008955D01*
X011252Y009005D02*
X011302Y009055D01*
X011302Y008905D01*
X011400Y009030D02*
X011425Y009055D01*
X011475Y009055D01*
X011500Y009030D01*
X011500Y009005D01*
X011475Y008980D01*
X011500Y008955D01*
X011500Y008930D01*
X011475Y008980D02*
X011450Y008980D01*
X009852Y008980D02*
X009752Y008980D01*
X009827Y009055D01*
X009827Y008905D01*
X009705Y008930D02*
X009680Y008905D01*
X009630Y008905D01*
X009605Y008930D01*
X009605Y009030D01*
X009630Y009055D01*
X009680Y009055D01*
X009705Y009030D01*
X007858Y010470D02*
X007833Y010445D01*
X007783Y010445D01*
X007758Y010470D01*
X007758Y010495D01*
X007783Y010520D01*
X007833Y010520D01*
X007858Y010495D01*
X007858Y010470D01*
X007833Y010520D02*
X007858Y010545D01*
X007858Y010570D01*
X007833Y010595D01*
X007783Y010595D01*
X007758Y010570D01*
X007758Y010545D01*
X007783Y010520D01*
X007710Y010470D02*
X007685Y010445D01*
X007635Y010445D01*
X007610Y010470D01*
X007610Y010570D01*
X007635Y010595D01*
X007685Y010595D01*
X007710Y010570D01*
X007427Y009355D02*
X007377Y009355D01*
X007352Y009330D01*
X007352Y009305D01*
X007377Y009280D01*
X007452Y009280D01*
X007452Y009230D02*
X007452Y009330D01*
X007427Y009355D01*
X007305Y009330D02*
X007280Y009355D01*
X007230Y009355D01*
X007205Y009330D01*
X007205Y009230D01*
X007230Y009205D01*
X007280Y009205D01*
X007305Y009230D01*
X007352Y009230D02*
X007377Y009205D01*
X007427Y009205D01*
X007452Y009230D01*
X008835Y005795D02*
X008810Y005770D01*
X008810Y005670D01*
X008835Y005645D01*
X008885Y005645D01*
X008910Y005670D01*
X008958Y005670D02*
X008983Y005645D01*
X009033Y005645D01*
X009058Y005670D01*
X009058Y005695D01*
X009033Y005720D01*
X008958Y005720D01*
X008958Y005670D01*
X008958Y005720D02*
X009008Y005770D01*
X009058Y005795D01*
X008910Y005770D02*
X008885Y005795D01*
X008835Y005795D01*
X014405Y009305D02*
X014405Y009455D01*
X014480Y009455D01*
X014505Y009430D01*
X014505Y009380D01*
X014480Y009355D01*
X014405Y009355D01*
X014455Y009355D02*
X014505Y009305D01*
X014552Y009305D02*
X014552Y009330D01*
X014652Y009430D01*
X014652Y009455D01*
X014552Y009455D01*
X014580Y007908D02*
X014555Y007883D01*
X014555Y007833D01*
X014580Y007808D01*
X014580Y007908D02*
X014605Y007908D01*
X014705Y007808D01*
X014705Y007908D01*
X014705Y007760D02*
X014705Y007660D01*
X014705Y007613D02*
X014655Y007563D01*
X014655Y007588D02*
X014655Y007513D01*
X014705Y007513D02*
X014555Y007513D01*
X014555Y007588D01*
X014580Y007613D01*
X014630Y007613D01*
X014655Y007588D01*
X014605Y007660D02*
X014555Y007710D01*
X014705Y007710D01*
X014795Y007502D02*
X014820Y007452D01*
X014870Y007402D01*
X014870Y007477D01*
X014895Y007502D01*
X014920Y007502D01*
X014945Y007477D01*
X014945Y007427D01*
X014920Y007402D01*
X014870Y007402D01*
X014870Y007355D02*
X014895Y007330D01*
X014895Y007255D01*
X014945Y007255D02*
X014795Y007255D01*
X014795Y007330D01*
X014820Y007355D01*
X014870Y007355D01*
X014895Y007305D02*
X014945Y007355D01*
X014680Y006408D02*
X014655Y006408D01*
X014630Y006383D01*
X014630Y006333D01*
X014605Y006308D01*
X014580Y006308D01*
X014555Y006333D01*
X014555Y006383D01*
X014580Y006408D01*
X014605Y006408D01*
X014630Y006383D01*
X014630Y006333D02*
X014655Y006308D01*
X014680Y006308D01*
X014705Y006333D01*
X014705Y006383D01*
X014680Y006408D01*
X014705Y006260D02*
X014655Y006210D01*
X014655Y006235D02*
X014655Y006160D01*
X014705Y006160D02*
X014555Y006160D01*
X014555Y006235D01*
X014580Y006260D01*
X014630Y006260D01*
X014655Y006235D01*
X014795Y006002D02*
X014795Y005902D01*
X014870Y005902D01*
X014845Y005952D01*
X014845Y005977D01*
X014870Y006002D01*
X014920Y006002D01*
X014945Y005977D01*
X014945Y005927D01*
X014920Y005902D01*
X014920Y005855D02*
X014945Y005830D01*
X014945Y005780D01*
X014920Y005755D01*
X014820Y005755D01*
X014795Y005780D01*
X014795Y005830D01*
X014820Y005855D01*
X014680Y004908D02*
X014580Y004908D01*
X014555Y004883D01*
X014555Y004833D01*
X014580Y004808D01*
X014605Y004808D01*
X014630Y004833D01*
X014630Y004908D01*
X014680Y004908D02*
X014705Y004883D01*
X014705Y004833D01*
X014680Y004808D01*
X014705Y004760D02*
X014655Y004710D01*
X014655Y004735D02*
X014655Y004660D01*
X014705Y004660D02*
X014555Y004660D01*
X014555Y004735D01*
X014580Y004760D01*
X014630Y004760D01*
X014655Y004735D01*
X015555Y004735D02*
X015555Y004685D01*
X015580Y004660D01*
X015680Y004660D01*
X015705Y004685D01*
X015705Y004735D01*
X015680Y004760D01*
X015705Y004808D02*
X015605Y004908D01*
X015580Y004908D01*
X015555Y004883D01*
X015555Y004833D01*
X015580Y004808D01*
X015580Y004760D02*
X015555Y004735D01*
X015705Y004808D02*
X015705Y004908D01*
X018155Y004105D02*
X018155Y003955D01*
X018155Y004005D02*
X018230Y004005D01*
X018255Y004030D01*
X018255Y004080D01*
X018230Y004105D01*
X018155Y004105D01*
X018205Y004005D02*
X018255Y003955D01*
X018302Y003955D02*
X018402Y003955D01*
X018450Y003955D02*
X018550Y003955D01*
X018500Y003955D02*
X018500Y004105D01*
X018450Y004055D01*
X018413Y004145D02*
X018413Y004295D01*
X018488Y004295D01*
X018513Y004270D01*
X018513Y004220D01*
X018488Y004195D01*
X018413Y004195D01*
X018463Y004195D02*
X018513Y004145D01*
X018560Y004145D02*
X018660Y004145D01*
X018610Y004145D02*
X018610Y004295D01*
X018560Y004245D01*
X018708Y004270D02*
X018708Y004170D01*
X018808Y004270D01*
X018808Y004170D01*
X018783Y004145D01*
X018733Y004145D01*
X018708Y004170D01*
X018708Y004270D02*
X018733Y004295D01*
X018783Y004295D01*
X018808Y004270D01*
X018352Y004105D02*
X018352Y003955D01*
X018302Y004055D02*
X018352Y004105D01*
X019570Y004152D02*
X019720Y004152D01*
X019720Y004252D01*
X019720Y004300D02*
X019720Y004375D01*
X019695Y004400D01*
X019595Y004400D01*
X019570Y004375D01*
X019570Y004300D01*
X019720Y004300D01*
X019645Y004202D02*
X019645Y004152D01*
X019570Y004152D02*
X019570Y004252D01*
X019620Y004447D02*
X019570Y004497D01*
X019720Y004497D01*
X019720Y004447D02*
X019720Y004547D01*
X019720Y004105D02*
X019720Y004005D01*
X019570Y004005D01*
X019545Y005505D02*
X019545Y005580D01*
X019570Y005605D01*
X019620Y005605D01*
X019645Y005580D01*
X019645Y005505D01*
X019695Y005505D02*
X019545Y005505D01*
X019645Y005555D02*
X019695Y005605D01*
X019695Y005652D02*
X019595Y005752D01*
X019570Y005752D01*
X019545Y005727D01*
X019545Y005677D01*
X019570Y005652D01*
X019695Y005652D02*
X019695Y005752D01*
X018808Y005645D02*
X018708Y005645D01*
X018660Y005645D02*
X018610Y005695D01*
X018635Y005695D02*
X018560Y005695D01*
X018560Y005645D02*
X018560Y005795D01*
X018635Y005795D01*
X018660Y005770D01*
X018660Y005720D01*
X018635Y005695D01*
X018708Y005745D02*
X018758Y005795D01*
X018758Y005645D01*
X020380Y008160D02*
X020355Y008185D01*
X020355Y008235D01*
X020380Y008260D01*
X020405Y008308D02*
X020355Y008358D01*
X020505Y008358D01*
X020505Y008308D02*
X020505Y008408D01*
X020480Y008260D02*
X020505Y008235D01*
X020505Y008185D01*
X020480Y008160D01*
X020380Y008160D01*
X019420Y013605D02*
X019445Y013630D01*
X019445Y013655D01*
X019420Y013680D01*
X019295Y013680D01*
X019295Y013655D02*
X019295Y013705D01*
X019295Y013752D02*
X019295Y013827D01*
X019320Y013852D01*
X019370Y013852D01*
X019395Y013827D01*
X019395Y013752D01*
X019445Y013752D02*
X019295Y013752D01*
X019345Y013900D02*
X019295Y013950D01*
X019445Y013950D01*
X019445Y013900D02*
X019445Y014000D01*
X017530Y002358D02*
X017505Y002358D01*
X017480Y002333D01*
X017480Y002308D01*
X017480Y002333D02*
X017455Y002358D01*
X017430Y002358D01*
X017405Y002333D01*
X017405Y002283D01*
X017430Y002258D01*
X017430Y002210D02*
X017405Y002185D01*
X017405Y002135D01*
X017430Y002110D01*
X017530Y002110D01*
X017555Y002135D01*
X017555Y002185D01*
X017530Y002210D01*
X017530Y002258D02*
X017555Y002283D01*
X017555Y002333D01*
X017530Y002358D01*
X003002Y005855D02*
X002902Y005855D01*
X003002Y005955D01*
X003002Y005980D01*
X002977Y006005D01*
X002927Y006005D01*
X002902Y005980D01*
X002855Y006005D02*
X002855Y005880D01*
X002830Y005855D01*
X002780Y005855D01*
X002755Y005880D01*
X002755Y006005D01*
D15*
X011010Y009589D02*
X011010Y009635D01*
X011033Y009659D01*
X011127Y009659D01*
X011150Y009635D01*
X011150Y009589D01*
X011127Y009565D01*
X011033Y009565D01*
X011010Y009589D01*
X011103Y009612D02*
X011150Y009659D01*
X011150Y009713D02*
X011150Y009806D01*
X011150Y009759D02*
X011010Y009759D01*
X011057Y009713D01*
X015870Y005754D02*
X016090Y005754D01*
X016090Y005681D02*
X016090Y005828D01*
X015943Y005681D02*
X015870Y005754D01*
X015907Y005607D02*
X015870Y005570D01*
X015870Y005460D01*
X016090Y005460D01*
X016090Y005570D01*
X016053Y005607D01*
X015907Y005607D01*
D16*
X018500Y006100D03*
X018500Y004600D03*
X018500Y003650D03*
X014750Y009000D03*
X012850Y008600D03*
X012850Y009600D03*
X011450Y008600D03*
X005000Y016850D03*
D17*
X005775Y018375D02*
X006075Y018375D01*
X005925Y018375D02*
X005925Y018825D01*
X005775Y018675D01*
X006350Y019275D02*
X006275Y019350D01*
X006350Y019275D02*
X006500Y019275D01*
X006575Y019350D01*
X006575Y019425D01*
X006500Y019500D01*
X006350Y019500D01*
X006275Y019575D01*
X006275Y019650D01*
X006350Y019725D01*
X006500Y019725D01*
X006575Y019650D01*
X006735Y019725D02*
X006735Y019425D01*
X006886Y019275D01*
X007036Y019425D01*
X007036Y019725D01*
X007196Y019575D02*
X007346Y019725D01*
X007346Y019275D01*
X007196Y019275D02*
X007496Y019275D01*
X007470Y018295D02*
X007470Y017920D01*
X007395Y017845D01*
X007320Y017845D01*
X007245Y017920D01*
X007395Y018295D02*
X007545Y018295D01*
X007705Y018295D02*
X007931Y018295D01*
X008006Y018220D01*
X008006Y018070D01*
X007931Y017995D01*
X007705Y017995D01*
X007705Y017845D02*
X007705Y018295D01*
X008166Y018220D02*
X008241Y018295D01*
X008391Y018295D01*
X008466Y018220D01*
X008466Y018145D01*
X008166Y017845D01*
X008466Y017845D01*
X014281Y019675D02*
X014281Y010620D01*
X018219Y010620D01*
X018219Y019675D01*
X014281Y019675D01*
X016575Y007550D02*
X016633Y007550D01*
X016867Y007317D01*
X016925Y007317D01*
X016867Y007182D02*
X016925Y007123D01*
X016925Y007007D01*
X016867Y006948D01*
X016633Y007182D01*
X016867Y007182D01*
X016867Y006948D02*
X016633Y006948D01*
X016575Y007007D01*
X016575Y007123D01*
X016633Y007182D01*
X016575Y007317D02*
X016575Y007550D01*
X016633Y006813D02*
X016867Y006580D01*
X016925Y006638D01*
X016925Y006755D01*
X016867Y006813D01*
X016633Y006813D01*
X016575Y006755D01*
X016575Y006638D01*
X016633Y006580D01*
X016867Y006580D01*
X016750Y006445D02*
X016750Y006212D01*
X016575Y006387D01*
X016925Y006387D01*
X016925Y006077D02*
X016575Y006077D01*
X016575Y005843D02*
X016925Y006077D01*
X016925Y005843D02*
X016575Y005843D01*
X016575Y005592D02*
X016925Y005592D01*
X016925Y005475D02*
X016925Y005709D01*
X016691Y005475D02*
X016575Y005592D01*
X014750Y003350D02*
X011750Y003350D01*
X011750Y003250D02*
X011750Y000450D01*
X014750Y000450D01*
X014750Y003250D01*
X011750Y003250D01*
X009145Y001780D02*
X009145Y001705D01*
X009070Y001630D01*
X009145Y001555D01*
X009145Y001480D01*
X009070Y001405D01*
X008920Y001405D01*
X008845Y001480D01*
X008995Y001630D02*
X009070Y001630D01*
X009145Y001780D02*
X009070Y001855D01*
X008920Y001855D01*
X008845Y001780D01*
X008684Y001780D02*
X008609Y001855D01*
X008384Y001855D01*
X008384Y001405D01*
X008384Y001555D02*
X008609Y001555D01*
X008684Y001630D01*
X008684Y001780D01*
X008224Y001855D02*
X008074Y001855D01*
X008149Y001855D02*
X008149Y001480D01*
X008074Y001405D01*
X007999Y001405D01*
X007924Y001480D01*
X007496Y001775D02*
X007196Y001775D01*
X007496Y002075D01*
X007496Y002150D01*
X007421Y002225D01*
X007271Y002225D01*
X007196Y002150D01*
X007036Y002225D02*
X007036Y001925D01*
X006886Y001775D01*
X006735Y001925D01*
X006735Y002225D01*
X006575Y002150D02*
X006500Y002225D01*
X006350Y002225D01*
X006275Y002150D01*
X006275Y002075D01*
X006350Y002000D01*
X006500Y002000D01*
X006575Y001925D01*
X006575Y001850D01*
X006500Y001775D01*
X006350Y001775D01*
X006275Y001850D01*
X005925Y001325D02*
X005925Y000875D01*
X005775Y000875D02*
X006075Y000875D01*
X005775Y001175D02*
X005925Y001325D01*
D18*
X014250Y004600D03*
X014250Y006100D03*
X014250Y007600D03*
X015250Y007600D03*
X020000Y005850D03*
D19*
X015262Y006100D02*
X015238Y006100D01*
X015262Y004600D02*
X015238Y004600D01*
X009950Y008588D02*
X009950Y008612D01*
X008750Y006112D02*
X008750Y006088D01*
D20*
X008500Y001600D02*
X009000Y001600D01*
X009250Y001350D01*
X009250Y000850D01*
X009000Y000600D01*
X008500Y000600D01*
X008250Y000850D01*
X008000Y000600D01*
X007500Y000600D01*
X007250Y000850D01*
X007000Y000600D01*
X006500Y000600D01*
X006250Y000850D01*
X006250Y001350D01*
X006500Y001600D01*
X007000Y001600D01*
X007250Y001350D01*
X007500Y001600D01*
X008000Y001600D01*
X008250Y001350D01*
X008500Y001600D01*
X008500Y018100D02*
X008250Y018350D01*
X008000Y018100D01*
X007500Y018100D01*
X007250Y018350D01*
X007000Y018100D01*
X006500Y018100D01*
X006250Y018350D01*
X006250Y018850D01*
X006500Y019100D01*
X007000Y019100D01*
X007250Y018850D01*
X007500Y019100D01*
X008000Y019100D01*
X008250Y018850D01*
X008500Y019100D01*
X009000Y019100D01*
X009250Y018850D01*
X009250Y018350D01*
X009000Y018100D01*
X008500Y018100D01*
D21*
X004653Y009348D02*
X004653Y008927D01*
X004653Y009138D02*
X004023Y009138D01*
X004233Y008927D01*
X004128Y008703D02*
X004023Y008598D01*
X004023Y008388D01*
X004128Y008283D01*
X004233Y008283D01*
X004338Y008388D01*
X004338Y008598D01*
X004443Y008703D01*
X004548Y008703D01*
X004653Y008598D01*
X004653Y008388D01*
X004548Y008283D01*
D22*
X010678Y001686D02*
X010659Y001496D01*
X010595Y001475D01*
X010535Y001444D01*
X010386Y001565D01*
X010285Y001464D01*
X010406Y001315D01*
X010375Y001255D01*
X010354Y001191D01*
X010164Y001172D01*
X010164Y001028D01*
X010354Y001009D01*
X010375Y000945D01*
X010406Y000885D01*
X010285Y000736D01*
X010386Y000635D01*
X010535Y000756D01*
X010595Y000725D01*
X010679Y000929D01*
X010642Y000951D01*
X010610Y000980D01*
X010586Y001016D01*
X010571Y001057D01*
X010565Y001100D01*
X010571Y001144D01*
X010586Y001185D01*
X010611Y001222D01*
X010644Y001251D01*
X010374Y001251D01*
X010355Y001194D02*
X010592Y001194D01*
X010570Y001136D02*
X010164Y001136D01*
X010164Y001078D02*
X010568Y001078D01*
X010584Y001021D02*
X010234Y001021D01*
X010369Y000963D02*
X010628Y000963D01*
X010670Y000906D02*
X010395Y000906D01*
X010376Y000848D02*
X010646Y000848D01*
X010622Y000791D02*
X010329Y000791D01*
X010288Y000733D02*
X010507Y000733D01*
X010579Y000733D02*
X010598Y000733D01*
X010437Y000676D02*
X010346Y000676D01*
X010830Y000906D02*
X011105Y000906D01*
X011094Y000885D02*
X011125Y000945D01*
X011146Y001009D01*
X011336Y001028D01*
X011336Y001172D01*
X011146Y001191D01*
X011125Y001255D01*
X011094Y001315D01*
X011215Y001464D01*
X011114Y001565D01*
X010965Y001444D01*
X010905Y001475D01*
X010841Y001496D01*
X010822Y001686D01*
X010678Y001686D01*
X010675Y001654D02*
X010825Y001654D01*
X010831Y001596D02*
X010669Y001596D01*
X010663Y001539D02*
X010837Y001539D01*
X010886Y001481D02*
X010614Y001481D01*
X010489Y001481D02*
X010302Y001481D01*
X010317Y001424D02*
X011183Y001424D01*
X011198Y001481D02*
X011011Y001481D01*
X011081Y001539D02*
X011140Y001539D01*
X011136Y001366D02*
X010364Y001366D01*
X010402Y001309D02*
X011098Y001309D01*
X011126Y001251D02*
X010855Y001251D01*
X010852Y001253D02*
X010886Y001225D01*
X010912Y001189D01*
X010928Y001148D01*
X010934Y001104D01*
X010930Y001060D01*
X010915Y001018D01*
X010891Y000981D01*
X010859Y000951D01*
X010821Y000929D01*
X010905Y000725D01*
X010965Y000756D01*
X011114Y000635D01*
X011215Y000736D01*
X011094Y000885D01*
X011124Y000848D02*
X010854Y000848D01*
X010878Y000791D02*
X011171Y000791D01*
X011212Y000733D02*
X010993Y000733D01*
X010921Y000733D02*
X010902Y000733D01*
X011063Y000676D02*
X011154Y000676D01*
X011131Y000963D02*
X010872Y000963D01*
X010916Y001021D02*
X011266Y001021D01*
X011336Y001078D02*
X010932Y001078D01*
X010930Y001136D02*
X011336Y001136D01*
X011145Y001194D02*
X010908Y001194D01*
X010852Y001253D02*
X010813Y001273D01*
X010770Y001283D01*
X010726Y001283D01*
X010683Y001272D01*
X010644Y001251D01*
X010419Y001539D02*
X010360Y001539D01*
M02*
