G75*
G70*
%OFA0B0*%
%FSLAX24Y24*%
%IPPOS*%
%LPD*%
%AMOC8*
5,1,8,0,0,1.08239X$1,22.5*
%
%ADD10C,0.0000*%
%ADD11C,0.0800*%
%ADD12C,0.0740*%
%ADD13C,0.0780*%
%ADD14R,0.0650X0.0650*%
%ADD15C,0.0650*%
%ADD16C,0.0860*%
%ADD17R,0.0740X0.0740*%
%ADD18C,0.1700*%
%ADD19C,0.0600*%
%ADD20C,0.0500*%
%ADD21R,0.0800X0.0800*%
%ADD22R,0.0827X0.0827*%
%ADD23R,0.1502X0.1502*%
%ADD24C,0.0317*%
%ADD25C,0.0080*%
%ADD26C,0.0100*%
%ADD27C,0.0356*%
%ADD28C,0.0240*%
%ADD29C,0.1660*%
%ADD30C,0.0240*%
%ADD31C,0.0400*%
D10*
X001750Y000100D02*
X001750Y019785D01*
X021435Y019785D01*
X021435Y000100D01*
X001750Y000100D01*
X002030Y002881D02*
X002032Y002911D01*
X002038Y002941D01*
X002047Y002970D01*
X002060Y002997D01*
X002077Y003022D01*
X002096Y003045D01*
X002119Y003066D01*
X002144Y003083D01*
X002170Y003097D01*
X002199Y003107D01*
X002228Y003114D01*
X002258Y003117D01*
X002289Y003116D01*
X002319Y003111D01*
X002348Y003102D01*
X002375Y003090D01*
X002401Y003075D01*
X002425Y003056D01*
X002446Y003034D01*
X002464Y003010D01*
X002479Y002983D01*
X002490Y002955D01*
X002498Y002926D01*
X002502Y002896D01*
X002502Y002866D01*
X002498Y002836D01*
X002490Y002807D01*
X002479Y002779D01*
X002464Y002752D01*
X002446Y002728D01*
X002425Y002706D01*
X002401Y002687D01*
X002375Y002672D01*
X002348Y002660D01*
X002319Y002651D01*
X002289Y002646D01*
X002258Y002645D01*
X002228Y002648D01*
X002199Y002655D01*
X002170Y002665D01*
X002144Y002679D01*
X002119Y002696D01*
X002096Y002717D01*
X002077Y002740D01*
X002060Y002765D01*
X002047Y002792D01*
X002038Y002821D01*
X002032Y002851D01*
X002030Y002881D01*
X003014Y002881D02*
X003016Y002911D01*
X003022Y002941D01*
X003031Y002970D01*
X003044Y002997D01*
X003061Y003022D01*
X003080Y003045D01*
X003103Y003066D01*
X003128Y003083D01*
X003154Y003097D01*
X003183Y003107D01*
X003212Y003114D01*
X003242Y003117D01*
X003273Y003116D01*
X003303Y003111D01*
X003332Y003102D01*
X003359Y003090D01*
X003385Y003075D01*
X003409Y003056D01*
X003430Y003034D01*
X003448Y003010D01*
X003463Y002983D01*
X003474Y002955D01*
X003482Y002926D01*
X003486Y002896D01*
X003486Y002866D01*
X003482Y002836D01*
X003474Y002807D01*
X003463Y002779D01*
X003448Y002752D01*
X003430Y002728D01*
X003409Y002706D01*
X003385Y002687D01*
X003359Y002672D01*
X003332Y002660D01*
X003303Y002651D01*
X003273Y002646D01*
X003242Y002645D01*
X003212Y002648D01*
X003183Y002655D01*
X003154Y002665D01*
X003128Y002679D01*
X003103Y002696D01*
X003080Y002717D01*
X003061Y002740D01*
X003044Y002765D01*
X003031Y002792D01*
X003022Y002821D01*
X003016Y002851D01*
X003014Y002881D01*
X004983Y004850D02*
X004985Y004880D01*
X004991Y004910D01*
X005000Y004939D01*
X005013Y004966D01*
X005030Y004991D01*
X005049Y005014D01*
X005072Y005035D01*
X005097Y005052D01*
X005123Y005066D01*
X005152Y005076D01*
X005181Y005083D01*
X005211Y005086D01*
X005242Y005085D01*
X005272Y005080D01*
X005301Y005071D01*
X005328Y005059D01*
X005354Y005044D01*
X005378Y005025D01*
X005399Y005003D01*
X005417Y004979D01*
X005432Y004952D01*
X005443Y004924D01*
X005451Y004895D01*
X005455Y004865D01*
X005455Y004835D01*
X005451Y004805D01*
X005443Y004776D01*
X005432Y004748D01*
X005417Y004721D01*
X005399Y004697D01*
X005378Y004675D01*
X005354Y004656D01*
X005328Y004641D01*
X005301Y004629D01*
X005272Y004620D01*
X005242Y004615D01*
X005211Y004614D01*
X005181Y004617D01*
X005152Y004624D01*
X005123Y004634D01*
X005097Y004648D01*
X005072Y004665D01*
X005049Y004686D01*
X005030Y004709D01*
X005013Y004734D01*
X005000Y004761D01*
X004991Y004790D01*
X004985Y004820D01*
X004983Y004850D01*
X003014Y006819D02*
X003016Y006849D01*
X003022Y006879D01*
X003031Y006908D01*
X003044Y006935D01*
X003061Y006960D01*
X003080Y006983D01*
X003103Y007004D01*
X003128Y007021D01*
X003154Y007035D01*
X003183Y007045D01*
X003212Y007052D01*
X003242Y007055D01*
X003273Y007054D01*
X003303Y007049D01*
X003332Y007040D01*
X003359Y007028D01*
X003385Y007013D01*
X003409Y006994D01*
X003430Y006972D01*
X003448Y006948D01*
X003463Y006921D01*
X003474Y006893D01*
X003482Y006864D01*
X003486Y006834D01*
X003486Y006804D01*
X003482Y006774D01*
X003474Y006745D01*
X003463Y006717D01*
X003448Y006690D01*
X003430Y006666D01*
X003409Y006644D01*
X003385Y006625D01*
X003359Y006610D01*
X003332Y006598D01*
X003303Y006589D01*
X003273Y006584D01*
X003242Y006583D01*
X003212Y006586D01*
X003183Y006593D01*
X003154Y006603D01*
X003128Y006617D01*
X003103Y006634D01*
X003080Y006655D01*
X003061Y006678D01*
X003044Y006703D01*
X003031Y006730D01*
X003022Y006759D01*
X003016Y006789D01*
X003014Y006819D01*
X002030Y006819D02*
X002032Y006849D01*
X002038Y006879D01*
X002047Y006908D01*
X002060Y006935D01*
X002077Y006960D01*
X002096Y006983D01*
X002119Y007004D01*
X002144Y007021D01*
X002170Y007035D01*
X002199Y007045D01*
X002228Y007052D01*
X002258Y007055D01*
X002289Y007054D01*
X002319Y007049D01*
X002348Y007040D01*
X002375Y007028D01*
X002401Y007013D01*
X002425Y006994D01*
X002446Y006972D01*
X002464Y006948D01*
X002479Y006921D01*
X002490Y006893D01*
X002498Y006864D01*
X002502Y006834D01*
X002502Y006804D01*
X002498Y006774D01*
X002490Y006745D01*
X002479Y006717D01*
X002464Y006690D01*
X002446Y006666D01*
X002425Y006644D01*
X002401Y006625D01*
X002375Y006610D01*
X002348Y006598D01*
X002319Y006589D01*
X002289Y006584D01*
X002258Y006583D01*
X002228Y006586D01*
X002199Y006593D01*
X002170Y006603D01*
X002144Y006617D01*
X002119Y006634D01*
X002096Y006655D01*
X002077Y006678D01*
X002060Y006703D01*
X002047Y006730D01*
X002038Y006759D01*
X002032Y006789D01*
X002030Y006819D01*
D11*
X013000Y011596D03*
X013000Y012596D03*
X013000Y016596D03*
X013000Y018596D03*
X020450Y016069D03*
D12*
X010250Y012100D03*
X010250Y011100D03*
X010250Y010100D03*
X008750Y017100D03*
X007750Y017100D03*
X007750Y002600D03*
X008750Y002600D03*
X012250Y001850D03*
X013250Y001850D03*
D13*
X016750Y004600D03*
X016750Y008600D03*
D14*
X019750Y007600D03*
X016750Y001600D03*
X008050Y008600D03*
X007050Y011200D03*
D15*
X008050Y011200D03*
X007050Y008600D03*
X016750Y002600D03*
X019750Y008600D03*
D16*
X005219Y006819D03*
X005219Y005834D03*
X003250Y004850D03*
X005219Y003866D03*
X005219Y002881D03*
D17*
X014250Y001850D03*
D18*
X004713Y012750D03*
X005894Y014600D03*
X003531Y014600D03*
D19*
X006750Y018300D02*
X006750Y018900D01*
X007750Y018900D02*
X007750Y018300D01*
X008750Y018300D02*
X008750Y018900D01*
X008750Y001400D02*
X008750Y000800D01*
X007750Y000800D02*
X007750Y001400D01*
X006750Y001400D02*
X006750Y000800D01*
D20*
X002915Y009322D03*
X002915Y010110D03*
X002915Y010897D03*
D21*
X020450Y014100D03*
D22*
X016250Y012194D03*
X016250Y018100D03*
D23*
X016250Y015147D03*
D24*
X014250Y008500D03*
X013250Y008100D03*
X019250Y004600D03*
X004750Y010100D03*
X002750Y016850D03*
D25*
X010250Y010100D02*
X017670Y010100D01*
X019750Y008600D02*
X019750Y008580D01*
X014250Y008500D02*
X014250Y008440D01*
X006710Y001140D02*
X006750Y001100D01*
X006710Y001140D02*
X006150Y001140D01*
X004220Y003070D01*
X003990Y003300D01*
D26*
X004220Y003070D02*
X003270Y004020D01*
X003270Y004820D01*
X003300Y004828D02*
X004772Y004828D01*
X004772Y004761D02*
X004772Y004939D01*
X004840Y005103D01*
X004966Y005228D01*
X004987Y005237D01*
X004856Y005292D01*
X004676Y005472D01*
X004579Y005707D01*
X004579Y005962D01*
X004676Y006197D01*
X004806Y006326D01*
X004676Y006456D01*
X004579Y006691D01*
X004579Y006946D01*
X004676Y007181D01*
X004856Y007361D01*
X005091Y007459D01*
X005346Y007459D01*
X005581Y007361D01*
X005761Y007181D01*
X005859Y006946D01*
X005859Y006691D01*
X005761Y006456D01*
X005631Y006326D01*
X005761Y006197D01*
X005859Y005962D01*
X005859Y005707D01*
X005761Y005472D01*
X005581Y005292D01*
X005450Y005237D01*
X005471Y005228D01*
X005597Y005103D01*
X005665Y004939D01*
X005665Y004761D01*
X005597Y004597D01*
X005471Y004472D01*
X005450Y004463D01*
X005581Y004408D01*
X005761Y004228D01*
X005859Y003993D01*
X005859Y003738D01*
X005761Y003503D01*
X005631Y003374D01*
X005761Y003244D01*
X005859Y003009D01*
X005859Y002754D01*
X005761Y002519D01*
X005581Y002339D01*
X005346Y002241D01*
X005091Y002241D01*
X004856Y002339D01*
X004676Y002519D01*
X004579Y002754D01*
X004579Y003009D01*
X004676Y003244D01*
X004806Y003374D01*
X004676Y003503D01*
X004579Y003738D01*
X004579Y003993D01*
X004676Y004228D01*
X004856Y004408D01*
X004987Y004463D01*
X004966Y004472D01*
X004840Y004597D01*
X004772Y004761D01*
X004785Y004730D02*
X003818Y004730D01*
X003816Y004714D02*
X003829Y004800D01*
X003300Y004800D01*
X003300Y004900D01*
X003829Y004900D01*
X003816Y004986D01*
X003788Y005073D01*
X003746Y005154D01*
X003692Y005228D01*
X003628Y005292D01*
X003554Y005346D01*
X003473Y005388D01*
X003386Y005416D01*
X003300Y005429D01*
X003300Y004900D01*
X003200Y004900D01*
X003200Y005429D01*
X003114Y005416D01*
X003027Y005388D01*
X002946Y005346D01*
X002872Y005292D01*
X002808Y005228D01*
X002754Y005154D01*
X002712Y005073D01*
X002684Y004986D01*
X002671Y004900D01*
X003200Y004900D01*
X003200Y004800D01*
X003300Y004800D01*
X003300Y004271D01*
X003386Y004284D01*
X003473Y004312D01*
X003554Y004354D01*
X003628Y004408D01*
X003692Y004472D01*
X003746Y004546D01*
X003788Y004627D01*
X003816Y004714D01*
X003789Y004631D02*
X004826Y004631D01*
X004905Y004533D02*
X003736Y004533D01*
X003654Y004434D02*
X004918Y004434D01*
X004783Y004336D02*
X003518Y004336D01*
X003300Y004336D02*
X003200Y004336D01*
X003200Y004271D02*
X003200Y004800D01*
X002671Y004800D01*
X002684Y004714D01*
X002712Y004627D01*
X002754Y004546D01*
X002808Y004472D01*
X002872Y004408D01*
X002946Y004354D01*
X003027Y004312D01*
X003114Y004284D01*
X003200Y004271D01*
X003200Y004434D02*
X003300Y004434D01*
X003300Y004533D02*
X003200Y004533D01*
X003200Y004631D02*
X003300Y004631D01*
X003300Y004730D02*
X003200Y004730D01*
X003200Y004828D02*
X002250Y004828D01*
X002250Y004730D02*
X002682Y004730D01*
X002711Y004631D02*
X002250Y004631D01*
X002250Y004533D02*
X002764Y004533D01*
X002846Y004434D02*
X002250Y004434D01*
X002250Y004336D02*
X002982Y004336D01*
X003200Y004927D02*
X003300Y004927D01*
X003300Y005025D02*
X003200Y005025D01*
X003200Y005124D02*
X003300Y005124D01*
X003300Y005222D02*
X003200Y005222D01*
X003200Y005321D02*
X003300Y005321D01*
X003300Y005419D02*
X003200Y005419D01*
X003135Y005419D02*
X002250Y005419D01*
X002250Y005321D02*
X002911Y005321D01*
X002803Y005222D02*
X002250Y005222D01*
X002250Y005124D02*
X002738Y005124D01*
X002697Y005025D02*
X002250Y005025D01*
X002250Y004927D02*
X002675Y004927D01*
X002250Y005518D02*
X004657Y005518D01*
X004616Y005616D02*
X002250Y005616D01*
X002250Y005715D02*
X004579Y005715D01*
X004579Y005813D02*
X002250Y005813D01*
X002250Y005912D02*
X004579Y005912D01*
X004599Y006010D02*
X002250Y006010D01*
X002250Y006109D02*
X004639Y006109D01*
X004686Y006207D02*
X002250Y006207D01*
X002250Y006306D02*
X004785Y006306D01*
X004728Y006404D02*
X003415Y006404D01*
X003339Y006372D02*
X003503Y006440D01*
X003628Y006566D01*
X003696Y006730D01*
X003696Y006907D01*
X003628Y007071D01*
X003503Y007197D01*
X003339Y007265D01*
X003161Y007265D01*
X002997Y007197D01*
X002872Y007071D01*
X002804Y006907D01*
X002804Y006730D01*
X002872Y006566D01*
X002997Y006440D01*
X003161Y006372D01*
X003339Y006372D01*
X003085Y006404D02*
X002431Y006404D01*
X002355Y006372D02*
X002519Y006440D01*
X002644Y006566D01*
X002712Y006730D01*
X002712Y006907D01*
X002644Y007071D01*
X002519Y007197D01*
X002355Y007265D01*
X002250Y007265D01*
X002250Y017840D01*
X002455Y017721D01*
X002719Y017651D01*
X002993Y017651D01*
X003258Y017721D01*
X003495Y017858D01*
X003688Y018052D01*
X003825Y018289D01*
X003896Y018554D01*
X003896Y018827D01*
X003825Y019092D01*
X003688Y019329D01*
X003495Y019523D01*
X003404Y019575D01*
X011250Y019575D01*
X011250Y010350D01*
X010774Y010350D01*
X010742Y010429D01*
X010579Y010592D01*
X010559Y010600D01*
X010579Y010608D01*
X010742Y010771D01*
X010830Y010985D01*
X010830Y011215D01*
X010742Y011429D01*
X010579Y011592D01*
X010479Y011633D01*
X010523Y011655D01*
X010589Y011703D01*
X010647Y011761D01*
X010695Y011827D01*
X010732Y011900D01*
X010757Y011978D01*
X010770Y012059D01*
X010770Y012070D01*
X010280Y012070D01*
X010280Y012130D01*
X010220Y012130D01*
X010220Y012620D01*
X010209Y012620D01*
X010128Y012607D01*
X010050Y012582D01*
X009977Y012545D01*
X009911Y012497D01*
X009853Y012439D01*
X009805Y012373D01*
X009768Y012300D01*
X009743Y012222D01*
X009730Y012141D01*
X009730Y012130D01*
X010220Y012130D01*
X010220Y012070D01*
X009730Y012070D01*
X009730Y012059D01*
X009743Y011978D01*
X009768Y011900D01*
X009805Y011827D01*
X009853Y011761D01*
X009911Y011703D01*
X009977Y011655D01*
X010021Y011633D01*
X009921Y011592D01*
X009758Y011429D01*
X009670Y011215D01*
X009670Y010985D01*
X009758Y010771D01*
X009921Y010608D01*
X009941Y010600D01*
X009921Y010592D01*
X009758Y010429D01*
X009670Y010215D01*
X009670Y009985D01*
X009758Y009771D01*
X009921Y009608D01*
X010135Y009520D01*
X010365Y009520D01*
X010579Y009608D01*
X010742Y009771D01*
X010774Y009850D01*
X017453Y009850D01*
X017483Y009820D01*
X017604Y009770D01*
X017736Y009770D01*
X017857Y009820D01*
X017950Y009913D01*
X018000Y010034D01*
X018000Y010166D01*
X017950Y010287D01*
X017937Y010300D01*
X021225Y010300D01*
X021225Y001675D01*
X021223Y001682D01*
X021086Y001920D01*
X020892Y002113D01*
X020655Y002250D01*
X020391Y002321D01*
X020117Y002321D01*
X019853Y002250D01*
X019615Y002113D01*
X019422Y001920D01*
X019285Y001682D01*
X019214Y001418D01*
X019214Y001144D01*
X019285Y000880D01*
X019422Y000643D01*
X019464Y000600D01*
X009219Y000600D01*
X009260Y000699D01*
X009260Y001501D01*
X009182Y001689D01*
X009039Y001832D01*
X008851Y001910D01*
X008649Y001910D01*
X008461Y001832D01*
X008318Y001689D01*
X008250Y001526D01*
X008182Y001689D01*
X008039Y001832D01*
X008010Y001844D01*
X008010Y002080D01*
X008079Y002108D01*
X008242Y002271D01*
X008250Y002291D01*
X008258Y002271D01*
X008421Y002108D01*
X008635Y002020D01*
X008865Y002020D01*
X009079Y002108D01*
X009242Y002271D01*
X009330Y002485D01*
X009330Y002715D01*
X009242Y002929D01*
X009079Y003092D01*
X009010Y003120D01*
X009010Y006492D01*
X009230Y006712D01*
X009327Y006712D01*
X009470Y006771D01*
X009579Y006880D01*
X009638Y007023D01*
X009638Y007177D01*
X009579Y007320D01*
X009510Y007389D01*
X013093Y007389D01*
X013030Y007453D02*
X013490Y006992D01*
X013490Y003548D01*
X013530Y003453D01*
X013990Y002992D01*
X013990Y002430D01*
X013793Y002430D01*
X013670Y002307D01*
X013670Y002250D01*
X013579Y002342D01*
X013365Y002430D01*
X013135Y002430D01*
X012921Y002342D01*
X012758Y002179D01*
X012717Y002079D01*
X012695Y002123D01*
X012647Y002189D01*
X012589Y002247D01*
X012523Y002295D01*
X012450Y002332D01*
X012372Y002357D01*
X012300Y002369D01*
X012300Y001900D01*
X012200Y001900D01*
X012200Y002369D01*
X012128Y002357D01*
X012050Y002332D01*
X011977Y002295D01*
X011911Y002247D01*
X011853Y002189D01*
X011805Y002123D01*
X011768Y002050D01*
X011743Y001972D01*
X011731Y001900D01*
X012200Y001900D01*
X012200Y001800D01*
X012300Y001800D01*
X012300Y001331D01*
X012372Y001343D01*
X012450Y001368D01*
X012523Y001405D01*
X012589Y001453D01*
X012647Y001511D01*
X012695Y001577D01*
X012717Y001621D01*
X012758Y001521D01*
X012921Y001358D01*
X013135Y001270D01*
X013365Y001270D01*
X013579Y001358D01*
X013670Y001450D01*
X013670Y001393D01*
X013793Y001270D01*
X014707Y001270D01*
X014830Y001393D01*
X014830Y002307D01*
X014707Y002430D01*
X014510Y002430D01*
X014510Y003152D01*
X014470Y003247D01*
X014397Y003320D01*
X014010Y003708D01*
X014010Y007152D01*
X013970Y007247D01*
X013897Y007320D01*
X013510Y007708D01*
X013510Y007839D01*
X013562Y007891D01*
X013618Y008027D01*
X013618Y008173D01*
X013562Y008309D01*
X013459Y008412D01*
X013323Y008468D01*
X013177Y008468D01*
X013041Y008412D01*
X012938Y008309D01*
X012882Y008173D01*
X012882Y008027D01*
X012938Y007891D01*
X012990Y007839D01*
X012990Y007548D01*
X013030Y007453D01*
X013015Y007488D02*
X009510Y007488D01*
X009510Y007586D02*
X012990Y007586D01*
X012990Y007685D02*
X009510Y007685D01*
X009510Y007783D02*
X012990Y007783D01*
X012947Y007882D02*
X009510Y007882D01*
X009510Y007980D02*
X012901Y007980D01*
X012882Y008079D02*
X009510Y008079D01*
X009510Y008177D02*
X012883Y008177D01*
X012924Y008276D02*
X009510Y008276D01*
X009510Y008374D02*
X013003Y008374D01*
X013250Y008100D02*
X013250Y007600D01*
X013750Y007100D01*
X013750Y003600D01*
X014250Y003100D01*
X014250Y001850D01*
X014830Y001873D02*
X016215Y001873D01*
X016215Y001775D02*
X014830Y001775D01*
X014830Y001676D02*
X016215Y001676D01*
X016215Y001578D02*
X014830Y001578D01*
X014830Y001479D02*
X016215Y001479D01*
X016215Y001381D02*
X014817Y001381D01*
X014719Y001282D02*
X016215Y001282D01*
X016215Y001188D02*
X016338Y001065D01*
X017162Y001065D01*
X017285Y001188D01*
X017285Y002012D01*
X017162Y002135D01*
X017025Y002135D01*
X017053Y002146D01*
X017204Y002297D01*
X017285Y002494D01*
X017285Y002706D01*
X017204Y002903D01*
X017053Y003054D01*
X016856Y003135D01*
X016644Y003135D01*
X016447Y003054D01*
X016296Y002903D01*
X016215Y002706D01*
X016215Y002494D01*
X016296Y002297D01*
X016447Y002146D01*
X016475Y002135D01*
X016338Y002135D01*
X016215Y002012D01*
X016215Y001188D01*
X016220Y001184D02*
X009260Y001184D01*
X009260Y001282D02*
X013106Y001282D01*
X012899Y001381D02*
X012474Y001381D01*
X012614Y001479D02*
X012801Y001479D01*
X012735Y001578D02*
X012695Y001578D01*
X012300Y001578D02*
X012200Y001578D01*
X012200Y001676D02*
X012300Y001676D01*
X012300Y001775D02*
X012200Y001775D01*
X012200Y001800D02*
X012200Y001331D01*
X012128Y001343D01*
X012050Y001368D01*
X011977Y001405D01*
X011911Y001453D01*
X011853Y001511D01*
X011805Y001577D01*
X011768Y001650D01*
X011743Y001728D01*
X011731Y001800D01*
X012200Y001800D01*
X012200Y001873D02*
X008941Y001873D01*
X009097Y001775D02*
X011735Y001775D01*
X011760Y001676D02*
X009188Y001676D01*
X009228Y001578D02*
X011805Y001578D01*
X011886Y001479D02*
X009260Y001479D01*
X009260Y001381D02*
X012026Y001381D01*
X012200Y001381D02*
X012300Y001381D01*
X012300Y001479D02*
X012200Y001479D01*
X012200Y001972D02*
X012300Y001972D01*
X012300Y002070D02*
X012200Y002070D01*
X012200Y002169D02*
X012300Y002169D01*
X012300Y002267D02*
X012200Y002267D01*
X012200Y002366D02*
X012300Y002366D01*
X012319Y002366D02*
X012979Y002366D01*
X012847Y002267D02*
X012561Y002267D01*
X012661Y002169D02*
X012754Y002169D01*
X012181Y002366D02*
X009281Y002366D01*
X009321Y002464D02*
X013990Y002464D01*
X013990Y002563D02*
X009330Y002563D01*
X009330Y002661D02*
X013990Y002661D01*
X013990Y002760D02*
X009312Y002760D01*
X009271Y002858D02*
X013990Y002858D01*
X013990Y002957D02*
X009214Y002957D01*
X009115Y003055D02*
X013927Y003055D01*
X013829Y003154D02*
X009010Y003154D01*
X009010Y003252D02*
X013730Y003252D01*
X013632Y003351D02*
X009010Y003351D01*
X009010Y003449D02*
X013533Y003449D01*
X013490Y003548D02*
X009010Y003548D01*
X009010Y003646D02*
X013490Y003646D01*
X013490Y003745D02*
X009010Y003745D01*
X009010Y003843D02*
X013490Y003843D01*
X013490Y003942D02*
X009010Y003942D01*
X009010Y004040D02*
X013490Y004040D01*
X013490Y004139D02*
X009010Y004139D01*
X009010Y004237D02*
X013490Y004237D01*
X013490Y004336D02*
X009010Y004336D01*
X009010Y004434D02*
X013490Y004434D01*
X013490Y004533D02*
X009010Y004533D01*
X009010Y004631D02*
X013490Y004631D01*
X013490Y004730D02*
X009010Y004730D01*
X009010Y004828D02*
X013490Y004828D01*
X013490Y004927D02*
X009010Y004927D01*
X009010Y005025D02*
X013490Y005025D01*
X013490Y005124D02*
X009010Y005124D01*
X009010Y005222D02*
X013490Y005222D01*
X013490Y005321D02*
X009010Y005321D01*
X009010Y005419D02*
X013490Y005419D01*
X013490Y005518D02*
X009010Y005518D01*
X009010Y005616D02*
X013490Y005616D01*
X013490Y005715D02*
X009010Y005715D01*
X009010Y005813D02*
X013490Y005813D01*
X013490Y005912D02*
X009010Y005912D01*
X009010Y006010D02*
X013490Y006010D01*
X013490Y006109D02*
X009010Y006109D01*
X009010Y006207D02*
X013490Y006207D01*
X013490Y006306D02*
X009010Y006306D01*
X009010Y006404D02*
X013490Y006404D01*
X013490Y006503D02*
X009020Y006503D01*
X009119Y006601D02*
X013490Y006601D01*
X013490Y006700D02*
X009217Y006700D01*
X009497Y006798D02*
X013490Y006798D01*
X013490Y006897D02*
X009586Y006897D01*
X009627Y006995D02*
X013487Y006995D01*
X013389Y007094D02*
X009638Y007094D01*
X009632Y007192D02*
X013290Y007192D01*
X013192Y007291D02*
X009591Y007291D01*
X009510Y007389D02*
X009510Y016652D01*
X009470Y016747D01*
X009302Y016916D01*
X009330Y016985D01*
X009330Y017215D01*
X009242Y017429D01*
X009079Y017592D01*
X008865Y017680D01*
X008635Y017680D01*
X008421Y017592D01*
X008258Y017429D01*
X008250Y017409D01*
X008242Y017429D01*
X008079Y017592D01*
X007865Y017680D01*
X007635Y017680D01*
X007421Y017592D01*
X007258Y017429D01*
X007170Y017215D01*
X007170Y016985D01*
X007258Y016771D01*
X007421Y016608D01*
X007635Y016520D01*
X007865Y016520D01*
X008079Y016608D01*
X008242Y016771D01*
X008250Y016791D01*
X008258Y016771D01*
X008421Y016608D01*
X008635Y016520D01*
X008865Y016520D01*
X008934Y016548D01*
X008990Y016492D01*
X008990Y007389D01*
X005514Y007389D01*
X005652Y007291D02*
X008909Y007291D01*
X008921Y007320D02*
X008862Y007177D01*
X008862Y007080D01*
X008603Y006820D01*
X008530Y006747D01*
X008490Y006652D01*
X008490Y003120D01*
X008421Y003092D01*
X008258Y002929D01*
X008250Y002909D01*
X008242Y002929D01*
X008079Y003092D01*
X007865Y003180D01*
X007635Y003180D01*
X007421Y003092D01*
X007258Y002929D01*
X007170Y002715D01*
X007170Y002485D01*
X007258Y002271D01*
X007421Y002108D01*
X007490Y002080D01*
X007490Y001844D01*
X007461Y001832D01*
X007318Y001689D01*
X007240Y001501D01*
X007240Y000699D01*
X007281Y000600D01*
X007153Y000600D01*
X007167Y000627D01*
X007189Y000695D01*
X007200Y000765D01*
X007200Y001050D01*
X006800Y001050D01*
X006800Y001150D01*
X006700Y001150D01*
X006700Y001848D01*
X006645Y001839D01*
X006577Y001817D01*
X006514Y001785D01*
X006457Y001743D01*
X006407Y001693D01*
X006365Y001636D01*
X006333Y001573D01*
X006311Y001505D01*
X006300Y001435D01*
X006300Y001150D01*
X006700Y001150D01*
X006700Y001050D01*
X006300Y001050D01*
X006300Y000765D01*
X006311Y000695D01*
X006333Y000627D01*
X006347Y000600D01*
X003707Y000600D01*
X003825Y000805D01*
X003896Y001069D01*
X003896Y001343D01*
X003825Y001608D01*
X003688Y001845D01*
X003495Y002038D01*
X003258Y002175D01*
X002993Y002246D01*
X002719Y002246D01*
X002455Y002175D01*
X002250Y002057D01*
X002250Y002435D01*
X002355Y002435D01*
X002519Y002503D01*
X002644Y002629D01*
X002712Y002793D01*
X002712Y002970D01*
X002644Y003134D01*
X002519Y003260D01*
X002355Y003328D01*
X002250Y003328D01*
X002250Y006372D01*
X002355Y006372D01*
X002581Y006503D02*
X002935Y006503D01*
X002857Y006601D02*
X002659Y006601D01*
X002699Y006700D02*
X002816Y006700D01*
X002804Y006798D02*
X002712Y006798D01*
X002712Y006897D02*
X002804Y006897D01*
X002840Y006995D02*
X002676Y006995D01*
X002622Y007094D02*
X002894Y007094D01*
X002992Y007192D02*
X002523Y007192D01*
X002250Y007291D02*
X004785Y007291D01*
X004687Y007192D02*
X003508Y007192D01*
X003606Y007094D02*
X004640Y007094D01*
X004599Y006995D02*
X003660Y006995D01*
X003696Y006897D02*
X004579Y006897D01*
X004579Y006798D02*
X003696Y006798D01*
X003684Y006700D02*
X004579Y006700D01*
X004616Y006601D02*
X003643Y006601D01*
X003565Y006503D02*
X004657Y006503D01*
X004923Y007389D02*
X002250Y007389D01*
X002250Y007488D02*
X008990Y007488D01*
X008990Y007586D02*
X002250Y007586D01*
X002250Y007685D02*
X008990Y007685D01*
X008990Y007783D02*
X002250Y007783D01*
X002250Y007882D02*
X008990Y007882D01*
X008990Y007980D02*
X002250Y007980D01*
X002250Y008079D02*
X007624Y008079D01*
X007638Y008065D02*
X008462Y008065D01*
X008585Y008188D01*
X008585Y009012D01*
X008462Y009135D01*
X007638Y009135D01*
X007515Y009012D01*
X007515Y008701D01*
X007513Y008711D01*
X007490Y008782D01*
X007456Y008849D01*
X007412Y008909D01*
X007359Y008962D01*
X007299Y009006D01*
X007232Y009040D01*
X007161Y009063D01*
X007087Y009075D01*
X007069Y009075D01*
X007069Y008619D01*
X007031Y008619D01*
X007031Y009075D01*
X007013Y009075D01*
X006939Y009063D01*
X006868Y009040D01*
X006801Y009006D01*
X006741Y008962D01*
X006688Y008909D01*
X006644Y008849D01*
X006610Y008782D01*
X006587Y008711D01*
X006575Y008637D01*
X006575Y008619D01*
X007031Y008619D01*
X007031Y008581D01*
X007069Y008581D01*
X007069Y008125D01*
X007087Y008125D01*
X007161Y008137D01*
X007232Y008160D01*
X007299Y008194D01*
X007359Y008238D01*
X007412Y008291D01*
X007456Y008351D01*
X007490Y008418D01*
X007513Y008489D01*
X007515Y008499D01*
X007515Y008188D01*
X007638Y008065D01*
X007526Y008177D02*
X007266Y008177D01*
X007397Y008276D02*
X007515Y008276D01*
X007515Y008374D02*
X007468Y008374D01*
X007508Y008473D02*
X007515Y008473D01*
X007495Y008768D02*
X007515Y008768D01*
X007515Y008867D02*
X007443Y008867D01*
X007515Y008965D02*
X007356Y008965D01*
X007160Y009064D02*
X007567Y009064D01*
X007069Y009064D02*
X007031Y009064D01*
X006940Y009064D02*
X003306Y009064D01*
X003305Y009062D02*
X003375Y009231D01*
X003375Y009414D01*
X003305Y009583D01*
X003176Y009712D01*
X003167Y009716D01*
X003176Y009720D01*
X003305Y009849D01*
X003375Y010018D01*
X003375Y010201D01*
X003305Y010370D01*
X003176Y010500D01*
X003167Y010504D01*
X003176Y010507D01*
X003305Y010637D01*
X003375Y010806D01*
X003375Y010989D01*
X003305Y011158D01*
X003176Y011287D01*
X003007Y011357D01*
X002824Y011357D01*
X002655Y011287D01*
X002525Y011158D01*
X002455Y010989D01*
X002455Y010806D01*
X002525Y010637D01*
X002655Y010507D01*
X002664Y010504D01*
X002655Y010500D01*
X002525Y010370D01*
X002455Y010201D01*
X002455Y010018D01*
X002525Y009849D01*
X002655Y009720D01*
X002664Y009716D01*
X002655Y009712D01*
X002525Y009583D01*
X002455Y009414D01*
X002455Y009231D01*
X002525Y009062D01*
X002655Y008932D01*
X002824Y008862D01*
X003007Y008862D01*
X003176Y008932D01*
X003305Y009062D01*
X003347Y009162D02*
X008990Y009162D01*
X008990Y009064D02*
X008533Y009064D01*
X008585Y008965D02*
X008990Y008965D01*
X008990Y008867D02*
X008585Y008867D01*
X008585Y008768D02*
X008990Y008768D01*
X008990Y008670D02*
X008585Y008670D01*
X008585Y008571D02*
X008990Y008571D01*
X008990Y008473D02*
X008585Y008473D01*
X008585Y008374D02*
X008990Y008374D01*
X008990Y008276D02*
X008585Y008276D01*
X008574Y008177D02*
X008990Y008177D01*
X008990Y008079D02*
X008476Y008079D01*
X008990Y007389D02*
X008921Y007320D01*
X008868Y007192D02*
X005750Y007192D01*
X005797Y007094D02*
X008862Y007094D01*
X008777Y006995D02*
X005838Y006995D01*
X005859Y006897D02*
X008679Y006897D01*
X008603Y006820D02*
X008603Y006820D01*
X008580Y006798D02*
X005859Y006798D01*
X005859Y006700D02*
X008510Y006700D01*
X008490Y006601D02*
X005821Y006601D01*
X005780Y006503D02*
X008490Y006503D01*
X008490Y006404D02*
X005709Y006404D01*
X005652Y006306D02*
X008490Y006306D01*
X008490Y006207D02*
X005751Y006207D01*
X005798Y006109D02*
X008490Y006109D01*
X008490Y006010D02*
X005838Y006010D01*
X005859Y005912D02*
X008490Y005912D01*
X008490Y005813D02*
X005859Y005813D01*
X005859Y005715D02*
X008490Y005715D01*
X008490Y005616D02*
X005821Y005616D01*
X005780Y005518D02*
X008490Y005518D01*
X008490Y005419D02*
X005708Y005419D01*
X005610Y005321D02*
X008490Y005321D01*
X008490Y005222D02*
X005478Y005222D01*
X005576Y005124D02*
X008490Y005124D01*
X008490Y005025D02*
X005629Y005025D01*
X005665Y004927D02*
X008490Y004927D01*
X008490Y004828D02*
X005665Y004828D01*
X005652Y004730D02*
X008490Y004730D01*
X008490Y004631D02*
X005611Y004631D01*
X005532Y004533D02*
X008490Y004533D01*
X008490Y004434D02*
X005519Y004434D01*
X005654Y004336D02*
X008490Y004336D01*
X008490Y004237D02*
X005752Y004237D01*
X005798Y004139D02*
X008490Y004139D01*
X008490Y004040D02*
X005839Y004040D01*
X005859Y003942D02*
X008490Y003942D01*
X008490Y003843D02*
X005859Y003843D01*
X005859Y003745D02*
X008490Y003745D01*
X008490Y003646D02*
X005820Y003646D01*
X005779Y003548D02*
X008490Y003548D01*
X008490Y003449D02*
X005707Y003449D01*
X005655Y003351D02*
X008490Y003351D01*
X008490Y003252D02*
X005753Y003252D01*
X005799Y003154D02*
X007571Y003154D01*
X007385Y003055D02*
X005839Y003055D01*
X005859Y002957D02*
X007286Y002957D01*
X007229Y002858D02*
X005859Y002858D01*
X005859Y002760D02*
X007188Y002760D01*
X007170Y002661D02*
X005820Y002661D01*
X005779Y002563D02*
X007170Y002563D01*
X007179Y002464D02*
X005706Y002464D01*
X005608Y002366D02*
X007219Y002366D01*
X007263Y002267D02*
X005407Y002267D01*
X005030Y002267D02*
X002250Y002267D01*
X002250Y002169D02*
X002443Y002169D01*
X002272Y002070D02*
X002250Y002070D01*
X002250Y002366D02*
X004829Y002366D01*
X004731Y002464D02*
X003408Y002464D01*
X003339Y002435D02*
X003503Y002503D01*
X003628Y002629D01*
X003696Y002793D01*
X003696Y002970D01*
X003628Y003134D01*
X003503Y003260D01*
X003339Y003328D01*
X003161Y003328D01*
X002997Y003260D01*
X002872Y003134D01*
X002804Y002970D01*
X002804Y002793D01*
X002872Y002629D01*
X002997Y002503D01*
X003161Y002435D01*
X003339Y002435D01*
X003092Y002464D02*
X002424Y002464D01*
X002578Y002563D02*
X002938Y002563D01*
X002858Y002661D02*
X002657Y002661D01*
X002698Y002760D02*
X002818Y002760D01*
X002804Y002858D02*
X002712Y002858D01*
X002712Y002957D02*
X002804Y002957D01*
X002839Y003055D02*
X002677Y003055D01*
X002625Y003154D02*
X002891Y003154D01*
X002989Y003252D02*
X002526Y003252D01*
X002250Y003351D02*
X004782Y003351D01*
X004730Y003449D02*
X002250Y003449D01*
X002250Y003548D02*
X004658Y003548D01*
X004617Y003646D02*
X002250Y003646D01*
X002250Y003745D02*
X004579Y003745D01*
X004579Y003843D02*
X002250Y003843D01*
X002250Y003942D02*
X004579Y003942D01*
X004598Y004040D02*
X002250Y004040D01*
X002250Y004139D02*
X004639Y004139D01*
X004685Y004237D02*
X002250Y004237D01*
X003511Y003252D02*
X004684Y003252D01*
X004638Y003154D02*
X003609Y003154D01*
X003661Y003055D02*
X004598Y003055D01*
X004579Y002957D02*
X003696Y002957D01*
X003696Y002858D02*
X004579Y002858D01*
X004579Y002760D02*
X003682Y002760D01*
X003642Y002661D02*
X004617Y002661D01*
X004658Y002563D02*
X003562Y002563D01*
X003270Y002169D02*
X007361Y002169D01*
X007490Y002070D02*
X003440Y002070D01*
X003562Y001972D02*
X007490Y001972D01*
X007490Y001873D02*
X003660Y001873D01*
X003729Y001775D02*
X006500Y001775D01*
X006394Y001676D02*
X003786Y001676D01*
X003833Y001578D02*
X006335Y001578D01*
X006307Y001479D02*
X003860Y001479D01*
X003886Y001381D02*
X006300Y001381D01*
X006300Y001282D02*
X003896Y001282D01*
X003896Y001184D02*
X006300Y001184D01*
X006300Y000987D02*
X003874Y000987D01*
X003896Y001085D02*
X006700Y001085D01*
X006700Y001184D02*
X006800Y001184D01*
X006800Y001150D02*
X006800Y001848D01*
X006855Y001839D01*
X006923Y001817D01*
X006986Y001785D01*
X007043Y001743D01*
X007093Y001693D01*
X007135Y001636D01*
X007167Y001573D01*
X007189Y001505D01*
X007200Y001435D01*
X007200Y001150D01*
X006800Y001150D01*
X006800Y001085D02*
X007240Y001085D01*
X007240Y000987D02*
X007200Y000987D01*
X007200Y000888D02*
X007240Y000888D01*
X007240Y000790D02*
X007200Y000790D01*
X007188Y000691D02*
X007243Y000691D01*
X007240Y001184D02*
X007200Y001184D01*
X007200Y001282D02*
X007240Y001282D01*
X007240Y001381D02*
X007200Y001381D01*
X007193Y001479D02*
X007240Y001479D01*
X007272Y001578D02*
X007165Y001578D01*
X007106Y001676D02*
X007312Y001676D01*
X007403Y001775D02*
X007000Y001775D01*
X006800Y001775D02*
X006700Y001775D01*
X006700Y001676D02*
X006800Y001676D01*
X006800Y001578D02*
X006700Y001578D01*
X006700Y001479D02*
X006800Y001479D01*
X006800Y001381D02*
X006700Y001381D01*
X006700Y001282D02*
X006800Y001282D01*
X006300Y000888D02*
X003848Y000888D01*
X003816Y000790D02*
X006300Y000790D01*
X006312Y000691D02*
X003760Y000691D01*
X007750Y001100D02*
X007750Y002600D01*
X008139Y002169D02*
X008361Y002169D01*
X008263Y002267D02*
X008237Y002267D01*
X008010Y002070D02*
X008514Y002070D01*
X008559Y001873D02*
X008010Y001873D01*
X008010Y001972D02*
X011743Y001972D01*
X011778Y002070D02*
X008986Y002070D01*
X009139Y002169D02*
X011839Y002169D01*
X011939Y002267D02*
X009237Y002267D01*
X008750Y002600D02*
X008750Y006600D01*
X009250Y007100D01*
X009250Y016600D01*
X008750Y017100D01*
X008364Y017535D02*
X008136Y017535D01*
X008234Y017436D02*
X008266Y017436D01*
X008521Y017633D02*
X007979Y017633D01*
X007948Y017830D02*
X008552Y017830D01*
X008461Y017868D02*
X008649Y017790D01*
X008851Y017790D01*
X009039Y017868D01*
X009182Y018011D01*
X009260Y018199D01*
X009260Y019001D01*
X009182Y019189D01*
X009039Y019332D01*
X008851Y019410D01*
X008649Y019410D01*
X008461Y019332D01*
X008318Y019189D01*
X008250Y019026D01*
X008182Y019189D01*
X008039Y019332D01*
X007851Y019410D01*
X007649Y019410D01*
X007461Y019332D01*
X007318Y019189D01*
X007240Y019001D01*
X007240Y018199D01*
X007318Y018011D01*
X007461Y017868D01*
X007649Y017790D01*
X007851Y017790D01*
X008039Y017868D01*
X008182Y018011D01*
X008250Y018174D01*
X008318Y018011D01*
X008461Y017868D01*
X008400Y017929D02*
X008100Y017929D01*
X008189Y018027D02*
X008311Y018027D01*
X008270Y018126D02*
X008230Y018126D01*
X007552Y017830D02*
X003446Y017830D01*
X003565Y017929D02*
X006496Y017929D01*
X006514Y017915D02*
X006577Y017883D01*
X006645Y017861D01*
X006700Y017852D01*
X006700Y018550D01*
X006800Y018550D01*
X006800Y018650D01*
X007200Y018650D01*
X007200Y018935D01*
X007189Y019005D01*
X007167Y019073D01*
X007135Y019136D01*
X007093Y019193D01*
X007043Y019243D01*
X006986Y019285D01*
X006923Y019317D01*
X006855Y019339D01*
X006800Y019348D01*
X006800Y018650D01*
X006700Y018650D01*
X006700Y019348D01*
X006645Y019339D01*
X006577Y019317D01*
X006514Y019285D01*
X006457Y019243D01*
X006407Y019193D01*
X006365Y019136D01*
X006333Y019073D01*
X006311Y019005D01*
X006300Y018935D01*
X006300Y018650D01*
X006700Y018650D01*
X006700Y018550D01*
X006300Y018550D01*
X006300Y018265D01*
X006311Y018195D01*
X006333Y018127D01*
X006365Y018064D01*
X006407Y018007D01*
X006457Y017957D01*
X006514Y017915D01*
X006392Y018027D02*
X003663Y018027D01*
X003731Y018126D02*
X006334Y018126D01*
X006306Y018224D02*
X003788Y018224D01*
X003834Y018323D02*
X006300Y018323D01*
X006300Y018421D02*
X003861Y018421D01*
X003887Y018520D02*
X006300Y018520D01*
X006300Y018717D02*
X003896Y018717D01*
X003896Y018815D02*
X006300Y018815D01*
X006300Y018914D02*
X003873Y018914D01*
X003847Y019012D02*
X006313Y019012D01*
X006352Y019111D02*
X003815Y019111D01*
X003758Y019209D02*
X006423Y019209D01*
X006559Y019308D02*
X003701Y019308D01*
X003611Y019406D02*
X007639Y019406D01*
X007861Y019406D02*
X008639Y019406D01*
X008861Y019406D02*
X011250Y019406D01*
X011250Y019308D02*
X009064Y019308D01*
X009162Y019209D02*
X011250Y019209D01*
X011250Y019111D02*
X009215Y019111D01*
X009256Y019012D02*
X011250Y019012D01*
X011250Y018914D02*
X009260Y018914D01*
X009260Y018815D02*
X011250Y018815D01*
X011250Y018717D02*
X009260Y018717D01*
X009260Y018618D02*
X011250Y018618D01*
X011250Y018520D02*
X009260Y018520D01*
X009260Y018421D02*
X011250Y018421D01*
X011250Y018323D02*
X009260Y018323D01*
X009260Y018224D02*
X011250Y018224D01*
X011250Y018126D02*
X009230Y018126D01*
X009189Y018027D02*
X011250Y018027D01*
X011250Y017929D02*
X009100Y017929D01*
X008948Y017830D02*
X011250Y017830D01*
X011250Y017732D02*
X003275Y017732D01*
X002438Y017732D02*
X002250Y017732D01*
X002250Y017830D02*
X002267Y017830D01*
X002250Y017633D02*
X007521Y017633D01*
X007364Y017535D02*
X002250Y017535D01*
X002250Y017436D02*
X007266Y017436D01*
X007221Y017338D02*
X002250Y017338D01*
X002250Y017239D02*
X007180Y017239D01*
X007170Y017141D02*
X002250Y017141D01*
X002250Y017042D02*
X007170Y017042D01*
X007187Y016944D02*
X002250Y016944D01*
X002250Y016845D02*
X007228Y016845D01*
X007283Y016747D02*
X002250Y016747D01*
X002250Y016648D02*
X007382Y016648D01*
X007563Y016550D02*
X002250Y016550D01*
X002250Y016451D02*
X008990Y016451D01*
X008990Y016353D02*
X002250Y016353D01*
X002250Y016254D02*
X008990Y016254D01*
X008990Y016156D02*
X002250Y016156D01*
X002250Y016057D02*
X008990Y016057D01*
X008990Y015959D02*
X002250Y015959D01*
X002250Y015860D02*
X008990Y015860D01*
X008990Y015762D02*
X002250Y015762D01*
X002250Y015663D02*
X008990Y015663D01*
X008990Y015565D02*
X006162Y015565D01*
X006171Y015562D02*
X006061Y015587D01*
X005950Y015600D01*
X005944Y015600D01*
X005944Y014650D01*
X006894Y014650D01*
X006894Y014656D01*
X006881Y014768D01*
X006856Y014877D01*
X006819Y014983D01*
X006770Y015084D01*
X006711Y015180D01*
X006641Y015267D01*
X006561Y015347D01*
X006473Y015417D01*
X006378Y015477D01*
X006277Y015525D01*
X006171Y015562D01*
X005944Y015565D02*
X005844Y015565D01*
X005844Y015600D02*
X005838Y015600D01*
X005726Y015587D01*
X005616Y015562D01*
X005510Y015525D01*
X005409Y015477D01*
X005314Y015417D01*
X005226Y015347D01*
X005147Y015267D01*
X005077Y015180D01*
X005017Y015084D01*
X004968Y014983D01*
X004931Y014877D01*
X004906Y014768D01*
X004894Y014656D01*
X004894Y014650D01*
X005844Y014650D01*
X005844Y015600D01*
X005844Y015466D02*
X005944Y015466D01*
X005944Y015368D02*
X005844Y015368D01*
X005844Y015269D02*
X005944Y015269D01*
X005944Y015171D02*
X005844Y015171D01*
X005844Y015072D02*
X005944Y015072D01*
X005944Y014974D02*
X005844Y014974D01*
X005844Y014875D02*
X005944Y014875D01*
X005944Y014777D02*
X005844Y014777D01*
X005844Y014678D02*
X005944Y014678D01*
X005944Y014650D02*
X005844Y014650D01*
X005844Y014550D01*
X005944Y014550D01*
X005944Y014650D01*
X005944Y014580D02*
X008990Y014580D01*
X008990Y014678D02*
X006891Y014678D01*
X006879Y014777D02*
X008990Y014777D01*
X008990Y014875D02*
X006857Y014875D01*
X006822Y014974D02*
X008990Y014974D01*
X008990Y015072D02*
X006776Y015072D01*
X006716Y015171D02*
X008990Y015171D01*
X008990Y015269D02*
X006639Y015269D01*
X006535Y015368D02*
X008990Y015368D01*
X008990Y015466D02*
X006395Y015466D01*
X005626Y015565D02*
X003981Y015565D01*
X003941Y015588D02*
X003671Y015660D01*
X003392Y015660D01*
X003122Y015588D01*
X002881Y015448D01*
X002683Y015251D01*
X002544Y015009D01*
X002471Y014740D01*
X002471Y014460D01*
X002544Y014191D01*
X002683Y013949D01*
X002881Y013752D01*
X003122Y013612D01*
X003392Y013540D01*
X003671Y013540D01*
X003941Y013612D01*
X004182Y013752D01*
X004380Y013949D01*
X004519Y014191D01*
X004591Y014460D01*
X004591Y014740D01*
X004519Y015009D01*
X004380Y015251D01*
X004182Y015448D01*
X003941Y015588D01*
X004151Y015466D02*
X005392Y015466D01*
X005252Y015368D02*
X004263Y015368D01*
X004362Y015269D02*
X005149Y015269D01*
X005071Y015171D02*
X004426Y015171D01*
X004483Y015072D02*
X005011Y015072D01*
X004965Y014974D02*
X004529Y014974D01*
X004555Y014875D02*
X004931Y014875D01*
X004908Y014777D02*
X004582Y014777D01*
X004591Y014678D02*
X004896Y014678D01*
X004894Y014550D02*
X004894Y014544D01*
X004906Y014432D01*
X004931Y014323D01*
X004968Y014217D01*
X005017Y014116D01*
X005077Y014020D01*
X005147Y013933D01*
X005226Y013853D01*
X005314Y013783D01*
X005409Y013723D01*
X005510Y013675D01*
X005616Y013638D01*
X005726Y013613D01*
X005838Y013600D01*
X005844Y013600D01*
X005844Y014550D01*
X004894Y014550D01*
X004901Y014481D02*
X004591Y014481D01*
X004591Y014580D02*
X005844Y014580D01*
X005844Y014481D02*
X005944Y014481D01*
X005944Y014550D02*
X005944Y013600D01*
X005950Y013600D01*
X006061Y013613D01*
X006171Y013638D01*
X006277Y013675D01*
X006378Y013723D01*
X006473Y013783D01*
X006561Y013853D01*
X006641Y013933D01*
X006711Y014020D01*
X006770Y014116D01*
X006819Y014217D01*
X006856Y014323D01*
X006881Y014432D01*
X006894Y014544D01*
X006894Y014550D01*
X005944Y014550D01*
X005944Y014383D02*
X005844Y014383D01*
X005844Y014284D02*
X005944Y014284D01*
X005944Y014186D02*
X005844Y014186D01*
X005844Y014087D02*
X005944Y014087D01*
X005944Y013989D02*
X005844Y013989D01*
X005844Y013890D02*
X005944Y013890D01*
X005944Y013792D02*
X005844Y013792D01*
X005844Y013693D02*
X005944Y013693D01*
X006315Y013693D02*
X008990Y013693D01*
X008990Y013595D02*
X005367Y013595D01*
X005363Y013598D02*
X005122Y013737D01*
X004852Y013810D01*
X004573Y013810D01*
X004303Y013737D01*
X004062Y013598D01*
X003864Y013400D01*
X003725Y013159D01*
X003653Y012889D01*
X003653Y012610D01*
X003725Y012340D01*
X003864Y012099D01*
X004062Y011901D01*
X004303Y011762D01*
X004420Y011731D01*
X004420Y010266D01*
X004382Y010173D01*
X004382Y010027D01*
X004438Y009891D01*
X004541Y009788D01*
X004677Y009732D01*
X004823Y009732D01*
X004959Y009788D01*
X005062Y009891D01*
X005118Y010027D01*
X005118Y010173D01*
X005080Y010266D01*
X005080Y011751D01*
X005122Y011762D01*
X005363Y011901D01*
X005561Y012099D01*
X005700Y012340D01*
X005773Y012610D01*
X005773Y012889D01*
X005700Y013159D01*
X005561Y013400D01*
X005363Y013598D01*
X005465Y013496D02*
X008990Y013496D01*
X008990Y013398D02*
X005563Y013398D01*
X005619Y013299D02*
X008990Y013299D01*
X008990Y013201D02*
X005676Y013201D01*
X005716Y013102D02*
X008990Y013102D01*
X008990Y013004D02*
X005742Y013004D01*
X005768Y012905D02*
X008990Y012905D01*
X008990Y012807D02*
X005773Y012807D01*
X005773Y012708D02*
X008990Y012708D01*
X008990Y012610D02*
X005772Y012610D01*
X005746Y012511D02*
X008990Y012511D01*
X008990Y012413D02*
X005720Y012413D01*
X005685Y012314D02*
X008990Y012314D01*
X008990Y012216D02*
X005628Y012216D01*
X005571Y012117D02*
X008990Y012117D01*
X008990Y012019D02*
X005481Y012019D01*
X005382Y011920D02*
X008990Y011920D01*
X008990Y011822D02*
X005225Y011822D01*
X005080Y011723D02*
X006626Y011723D01*
X006638Y011735D02*
X006515Y011612D01*
X006515Y010788D01*
X006638Y010665D01*
X007462Y010665D01*
X007585Y010788D01*
X007585Y011099D01*
X007587Y011089D01*
X007610Y011018D01*
X007644Y010951D01*
X007688Y010891D01*
X007741Y010838D01*
X007801Y010794D01*
X007868Y010760D01*
X007939Y010737D01*
X008013Y010725D01*
X008031Y010725D01*
X008031Y011181D01*
X008069Y011181D01*
X008069Y011219D01*
X008525Y011219D01*
X008525Y011237D01*
X008513Y011311D01*
X008490Y011382D01*
X008456Y011449D01*
X008412Y011509D01*
X008359Y011562D01*
X008299Y011606D01*
X008232Y011640D01*
X008161Y011663D01*
X008087Y011675D01*
X008069Y011675D01*
X008069Y011219D01*
X008031Y011219D01*
X008031Y011675D01*
X008013Y011675D01*
X007939Y011663D01*
X007868Y011640D01*
X007801Y011606D01*
X007741Y011562D01*
X007688Y011509D01*
X007644Y011449D01*
X007610Y011382D01*
X007587Y011311D01*
X007585Y011301D01*
X007585Y011612D01*
X007462Y011735D01*
X006638Y011735D01*
X006528Y011625D02*
X005080Y011625D01*
X005080Y011526D02*
X006515Y011526D01*
X006515Y011428D02*
X005080Y011428D01*
X005080Y011329D02*
X006515Y011329D01*
X006515Y011231D02*
X005080Y011231D01*
X005080Y011132D02*
X006515Y011132D01*
X006515Y011034D02*
X005080Y011034D01*
X005080Y010935D02*
X006515Y010935D01*
X006515Y010837D02*
X005080Y010837D01*
X005080Y010738D02*
X006565Y010738D01*
X007535Y010738D02*
X007935Y010738D01*
X008031Y010738D02*
X008069Y010738D01*
X008069Y010725D02*
X008087Y010725D01*
X008161Y010737D01*
X008232Y010760D01*
X008299Y010794D01*
X008359Y010838D01*
X008412Y010891D01*
X008456Y010951D01*
X008490Y011018D01*
X008513Y011089D01*
X008525Y011163D01*
X008525Y011181D01*
X008069Y011181D01*
X008069Y010725D01*
X008165Y010738D02*
X008990Y010738D01*
X008990Y010640D02*
X005080Y010640D01*
X005080Y010541D02*
X008990Y010541D01*
X008990Y010443D02*
X005080Y010443D01*
X005080Y010344D02*
X008990Y010344D01*
X008990Y010246D02*
X005089Y010246D01*
X005118Y010147D02*
X008990Y010147D01*
X008990Y010049D02*
X005118Y010049D01*
X005087Y009950D02*
X008990Y009950D01*
X008990Y009852D02*
X005023Y009852D01*
X004875Y009753D02*
X008990Y009753D01*
X008990Y009655D02*
X003234Y009655D01*
X003209Y009753D02*
X004625Y009753D01*
X004477Y009852D02*
X003306Y009852D01*
X003347Y009950D02*
X004413Y009950D01*
X004382Y010049D02*
X003375Y010049D01*
X003375Y010147D02*
X004382Y010147D01*
X004411Y010246D02*
X003357Y010246D01*
X003316Y010344D02*
X004420Y010344D01*
X004420Y010443D02*
X003233Y010443D01*
X003210Y010541D02*
X004420Y010541D01*
X004420Y010640D02*
X003307Y010640D01*
X003347Y010738D02*
X004420Y010738D01*
X004420Y010837D02*
X003375Y010837D01*
X003375Y010935D02*
X004420Y010935D01*
X004420Y011034D02*
X003357Y011034D01*
X003316Y011132D02*
X004420Y011132D01*
X004420Y011231D02*
X003233Y011231D01*
X003075Y011329D02*
X004420Y011329D01*
X004420Y011428D02*
X002250Y011428D01*
X002250Y011526D02*
X004420Y011526D01*
X004420Y011625D02*
X002250Y011625D01*
X002250Y011723D02*
X004420Y011723D01*
X004200Y011822D02*
X002250Y011822D01*
X002250Y011920D02*
X004043Y011920D01*
X003945Y012019D02*
X002250Y012019D01*
X002250Y012117D02*
X003854Y012117D01*
X003797Y012216D02*
X002250Y012216D01*
X002250Y012314D02*
X003740Y012314D01*
X003706Y012413D02*
X002250Y012413D01*
X002250Y012511D02*
X003679Y012511D01*
X003653Y012610D02*
X002250Y012610D01*
X002250Y012708D02*
X003653Y012708D01*
X003653Y012807D02*
X002250Y012807D01*
X002250Y012905D02*
X003657Y012905D01*
X003683Y013004D02*
X002250Y013004D01*
X002250Y013102D02*
X003710Y013102D01*
X003749Y013201D02*
X002250Y013201D01*
X002250Y013299D02*
X003806Y013299D01*
X003863Y013398D02*
X002250Y013398D01*
X002250Y013496D02*
X003960Y013496D01*
X003875Y013595D02*
X004058Y013595D01*
X004081Y013693D02*
X004227Y013693D01*
X004222Y013792D02*
X004506Y013792D01*
X004321Y013890D02*
X005189Y013890D01*
X005102Y013989D02*
X004402Y013989D01*
X004459Y014087D02*
X005035Y014087D01*
X004983Y014186D02*
X004516Y014186D01*
X004544Y014284D02*
X004945Y014284D01*
X004918Y014383D02*
X004571Y014383D01*
X004920Y013792D02*
X005304Y013792D01*
X005199Y013693D02*
X005472Y013693D01*
X006484Y013792D02*
X008990Y013792D01*
X008990Y013890D02*
X006598Y013890D01*
X006685Y013989D02*
X008990Y013989D01*
X008990Y014087D02*
X006752Y014087D01*
X006804Y014186D02*
X008990Y014186D01*
X008990Y014284D02*
X006843Y014284D01*
X006870Y014383D02*
X008990Y014383D01*
X008990Y014481D02*
X006887Y014481D01*
X007937Y016550D02*
X008563Y016550D01*
X008382Y016648D02*
X008118Y016648D01*
X008217Y016747D02*
X008283Y016747D01*
X009136Y017535D02*
X011250Y017535D01*
X011250Y017633D02*
X008979Y017633D01*
X009234Y017436D02*
X011250Y017436D01*
X011250Y017338D02*
X009279Y017338D01*
X009320Y017239D02*
X011250Y017239D01*
X011250Y017141D02*
X009330Y017141D01*
X009330Y017042D02*
X011250Y017042D01*
X011250Y016944D02*
X009313Y016944D01*
X009373Y016845D02*
X011250Y016845D01*
X011250Y016747D02*
X009471Y016747D01*
X009510Y016648D02*
X011250Y016648D01*
X011250Y016550D02*
X009510Y016550D01*
X009510Y016451D02*
X011250Y016451D01*
X011250Y016353D02*
X009510Y016353D01*
X009510Y016254D02*
X011250Y016254D01*
X011250Y016156D02*
X009510Y016156D01*
X009510Y016057D02*
X011250Y016057D01*
X011250Y015959D02*
X009510Y015959D01*
X009510Y015860D02*
X011250Y015860D01*
X011250Y015762D02*
X009510Y015762D01*
X009510Y015663D02*
X011250Y015663D01*
X011250Y015565D02*
X009510Y015565D01*
X009510Y015466D02*
X011250Y015466D01*
X011250Y015368D02*
X009510Y015368D01*
X009510Y015269D02*
X011250Y015269D01*
X011250Y015171D02*
X009510Y015171D01*
X009510Y015072D02*
X011250Y015072D01*
X011250Y014974D02*
X009510Y014974D01*
X009510Y014875D02*
X011250Y014875D01*
X011250Y014777D02*
X009510Y014777D01*
X009510Y014678D02*
X011250Y014678D01*
X011250Y014580D02*
X009510Y014580D01*
X009510Y014481D02*
X011250Y014481D01*
X011250Y014383D02*
X009510Y014383D01*
X009510Y014284D02*
X011250Y014284D01*
X011250Y014186D02*
X009510Y014186D01*
X009510Y014087D02*
X011250Y014087D01*
X011250Y013989D02*
X009510Y013989D01*
X009510Y013890D02*
X011250Y013890D01*
X011250Y013792D02*
X009510Y013792D01*
X009510Y013693D02*
X011250Y013693D01*
X011250Y013595D02*
X009510Y013595D01*
X009510Y013496D02*
X011250Y013496D01*
X011250Y013398D02*
X009510Y013398D01*
X009510Y013299D02*
X011250Y013299D01*
X011250Y013201D02*
X009510Y013201D01*
X009510Y013102D02*
X011250Y013102D01*
X011250Y013004D02*
X009510Y013004D01*
X009510Y012905D02*
X011250Y012905D01*
X011250Y012807D02*
X009510Y012807D01*
X009510Y012708D02*
X011250Y012708D01*
X011250Y012610D02*
X010357Y012610D01*
X010372Y012607D02*
X010291Y012620D01*
X010280Y012620D01*
X010280Y012130D01*
X010770Y012130D01*
X010770Y012141D01*
X010757Y012222D01*
X010732Y012300D01*
X010695Y012373D01*
X010647Y012439D01*
X010589Y012497D01*
X010523Y012545D01*
X010450Y012582D01*
X010372Y012607D01*
X010280Y012610D02*
X010220Y012610D01*
X010143Y012610D02*
X009510Y012610D01*
X009510Y012511D02*
X009931Y012511D01*
X009834Y012413D02*
X009510Y012413D01*
X009510Y012314D02*
X009775Y012314D01*
X009742Y012216D02*
X009510Y012216D01*
X009510Y012117D02*
X010220Y012117D01*
X010280Y012117D02*
X011250Y012117D01*
X011250Y012019D02*
X010764Y012019D01*
X010738Y011920D02*
X011250Y011920D01*
X011250Y011822D02*
X010690Y011822D01*
X010608Y011723D02*
X011250Y011723D01*
X011250Y011625D02*
X010499Y011625D01*
X010644Y011526D02*
X011250Y011526D01*
X011250Y011428D02*
X010742Y011428D01*
X010783Y011329D02*
X011250Y011329D01*
X011250Y011231D02*
X010824Y011231D01*
X010830Y011132D02*
X011250Y011132D01*
X011250Y011034D02*
X010830Y011034D01*
X010809Y010935D02*
X011250Y010935D01*
X011250Y010837D02*
X010769Y010837D01*
X010708Y010738D02*
X011250Y010738D01*
X011250Y010640D02*
X010610Y010640D01*
X010629Y010541D02*
X011250Y010541D01*
X011250Y010443D02*
X010728Y010443D01*
X010723Y009753D02*
X021225Y009753D01*
X021225Y009655D02*
X010625Y009655D01*
X010452Y009556D02*
X021225Y009556D01*
X021225Y009458D02*
X009510Y009458D01*
X009510Y009556D02*
X010048Y009556D01*
X009875Y009655D02*
X009510Y009655D01*
X009510Y009753D02*
X009777Y009753D01*
X009725Y009852D02*
X009510Y009852D01*
X009510Y009950D02*
X009684Y009950D01*
X009670Y010049D02*
X009510Y010049D01*
X009510Y010147D02*
X009670Y010147D01*
X009682Y010246D02*
X009510Y010246D01*
X009510Y010344D02*
X009723Y010344D01*
X009772Y010443D02*
X009510Y010443D01*
X009510Y010541D02*
X009871Y010541D01*
X009890Y010640D02*
X009510Y010640D01*
X009510Y010738D02*
X009792Y010738D01*
X009731Y010837D02*
X009510Y010837D01*
X009510Y010935D02*
X009691Y010935D01*
X009670Y011034D02*
X009510Y011034D01*
X009510Y011132D02*
X009670Y011132D01*
X009676Y011231D02*
X009510Y011231D01*
X009510Y011329D02*
X009717Y011329D01*
X009758Y011428D02*
X009510Y011428D01*
X009510Y011526D02*
X009856Y011526D01*
X010001Y011625D02*
X009510Y011625D01*
X009510Y011723D02*
X009892Y011723D01*
X009810Y011822D02*
X009510Y011822D01*
X009510Y011920D02*
X009762Y011920D01*
X009736Y012019D02*
X009510Y012019D01*
X008990Y011723D02*
X007474Y011723D01*
X007572Y011625D02*
X007837Y011625D01*
X007704Y011526D02*
X007585Y011526D01*
X007585Y011428D02*
X007633Y011428D01*
X007592Y011329D02*
X007585Y011329D01*
X007585Y011034D02*
X007605Y011034D01*
X007585Y010935D02*
X007655Y010935D01*
X007585Y010837D02*
X007742Y010837D01*
X008031Y010837D02*
X008069Y010837D01*
X008069Y010935D02*
X008031Y010935D01*
X008031Y011034D02*
X008069Y011034D01*
X008069Y011132D02*
X008031Y011132D01*
X008031Y011231D02*
X008069Y011231D01*
X008069Y011329D02*
X008031Y011329D01*
X008031Y011428D02*
X008069Y011428D01*
X008069Y011526D02*
X008031Y011526D01*
X008031Y011625D02*
X008069Y011625D01*
X008263Y011625D02*
X008990Y011625D01*
X008990Y011526D02*
X008396Y011526D01*
X008467Y011428D02*
X008990Y011428D01*
X008990Y011329D02*
X008508Y011329D01*
X008525Y011231D02*
X008990Y011231D01*
X008990Y011132D02*
X008520Y011132D01*
X008495Y011034D02*
X008990Y011034D01*
X008990Y010935D02*
X008445Y010935D01*
X008358Y010837D02*
X008990Y010837D01*
X008990Y009556D02*
X003317Y009556D01*
X003357Y009458D02*
X008990Y009458D01*
X008990Y009359D02*
X003375Y009359D01*
X003375Y009261D02*
X008990Y009261D01*
X009510Y009261D02*
X021225Y009261D01*
X021225Y009359D02*
X009510Y009359D01*
X009510Y009162D02*
X016539Y009162D01*
X016631Y009200D02*
X016410Y009109D01*
X016241Y008940D01*
X016150Y008719D01*
X016150Y008481D01*
X016241Y008260D01*
X016410Y008091D01*
X016631Y008000D01*
X016869Y008000D01*
X017090Y008091D01*
X017259Y008260D01*
X017292Y008340D01*
X017642Y008340D01*
X018530Y007453D01*
X018603Y007380D01*
X018698Y007340D01*
X019215Y007340D01*
X019215Y007188D01*
X019338Y007065D01*
X020162Y007065D01*
X020285Y007188D01*
X020285Y008012D01*
X020162Y008135D01*
X019851Y008135D01*
X019861Y008137D01*
X019932Y008160D01*
X019999Y008194D01*
X020059Y008238D01*
X020112Y008291D01*
X020156Y008351D01*
X020190Y008418D01*
X020213Y008489D01*
X020225Y008563D01*
X020225Y008581D01*
X019769Y008581D01*
X019769Y008619D01*
X019731Y008619D01*
X019731Y009075D01*
X019713Y009075D01*
X019639Y009063D01*
X019568Y009040D01*
X019501Y009006D01*
X019441Y008962D01*
X019388Y008909D01*
X019344Y008849D01*
X019310Y008782D01*
X019287Y008711D01*
X019275Y008637D01*
X019275Y008619D01*
X019731Y008619D01*
X019731Y008581D01*
X019275Y008581D01*
X019275Y008563D01*
X019287Y008489D01*
X019310Y008418D01*
X019344Y008351D01*
X019388Y008291D01*
X019441Y008238D01*
X019501Y008194D01*
X019568Y008160D01*
X019639Y008137D01*
X019649Y008135D01*
X019338Y008135D01*
X019215Y008012D01*
X019215Y007860D01*
X018858Y007860D01*
X017897Y008820D01*
X017802Y008860D01*
X017292Y008860D01*
X017259Y008940D01*
X017090Y009109D01*
X016869Y009200D01*
X016631Y009200D01*
X016365Y009064D02*
X009510Y009064D01*
X009510Y008965D02*
X016266Y008965D01*
X016211Y008867D02*
X009510Y008867D01*
X009510Y008768D02*
X016170Y008768D01*
X016150Y008670D02*
X009510Y008670D01*
X009510Y008571D02*
X016150Y008571D01*
X016153Y008473D02*
X009510Y008473D01*
X007069Y008473D02*
X007031Y008473D01*
X007031Y008571D02*
X007069Y008571D01*
X007031Y008581D02*
X007031Y008125D01*
X007013Y008125D01*
X006939Y008137D01*
X006868Y008160D01*
X006801Y008194D01*
X006741Y008238D01*
X006688Y008291D01*
X006644Y008351D01*
X006610Y008418D01*
X006587Y008489D01*
X006575Y008563D01*
X006575Y008581D01*
X007031Y008581D01*
X007031Y008670D02*
X007069Y008670D01*
X007069Y008768D02*
X007031Y008768D01*
X007031Y008867D02*
X007069Y008867D01*
X007069Y008965D02*
X007031Y008965D01*
X006744Y008965D02*
X003208Y008965D01*
X003017Y008867D02*
X006657Y008867D01*
X006605Y008768D02*
X002250Y008768D01*
X002250Y008670D02*
X006580Y008670D01*
X006575Y008571D02*
X002250Y008571D01*
X002250Y008473D02*
X006592Y008473D01*
X006632Y008374D02*
X002250Y008374D01*
X002250Y008276D02*
X006703Y008276D01*
X006834Y008177D02*
X002250Y008177D01*
X002250Y008867D02*
X002814Y008867D01*
X002622Y008965D02*
X002250Y008965D01*
X002250Y009064D02*
X002525Y009064D01*
X002484Y009162D02*
X002250Y009162D01*
X002250Y009261D02*
X002455Y009261D01*
X002455Y009359D02*
X002250Y009359D01*
X002250Y009458D02*
X002473Y009458D01*
X002514Y009556D02*
X002250Y009556D01*
X002250Y009655D02*
X002597Y009655D01*
X002622Y009753D02*
X002250Y009753D01*
X002250Y009852D02*
X002524Y009852D01*
X002484Y009950D02*
X002250Y009950D01*
X002250Y010049D02*
X002455Y010049D01*
X002455Y010147D02*
X002250Y010147D01*
X002250Y010246D02*
X002474Y010246D01*
X002514Y010344D02*
X002250Y010344D01*
X002250Y010443D02*
X002598Y010443D01*
X002621Y010541D02*
X002250Y010541D01*
X002250Y010640D02*
X002524Y010640D01*
X002483Y010738D02*
X002250Y010738D01*
X002250Y010837D02*
X002455Y010837D01*
X002455Y010935D02*
X002250Y010935D01*
X002250Y011034D02*
X002474Y011034D01*
X002515Y011132D02*
X002250Y011132D01*
X002250Y011231D02*
X002598Y011231D01*
X002756Y011329D02*
X002250Y011329D01*
X002250Y013595D02*
X003188Y013595D01*
X002982Y013693D02*
X002250Y013693D01*
X002250Y013792D02*
X002841Y013792D01*
X002742Y013890D02*
X002250Y013890D01*
X002250Y013989D02*
X002661Y013989D01*
X002604Y014087D02*
X002250Y014087D01*
X002250Y014186D02*
X002547Y014186D01*
X002519Y014284D02*
X002250Y014284D01*
X002250Y014383D02*
X002492Y014383D01*
X002471Y014481D02*
X002250Y014481D01*
X002250Y014580D02*
X002471Y014580D01*
X002471Y014678D02*
X002250Y014678D01*
X002250Y014777D02*
X002481Y014777D01*
X002508Y014875D02*
X002250Y014875D01*
X002250Y014974D02*
X002534Y014974D01*
X002580Y015072D02*
X002250Y015072D01*
X002250Y015171D02*
X002637Y015171D01*
X002701Y015269D02*
X002250Y015269D01*
X002250Y015368D02*
X002800Y015368D01*
X002912Y015466D02*
X002250Y015466D01*
X002250Y015565D02*
X003082Y015565D01*
X003896Y018618D02*
X006700Y018618D01*
X006700Y018520D02*
X006800Y018520D01*
X006800Y018550D02*
X006800Y017852D01*
X006855Y017861D01*
X006923Y017883D01*
X006986Y017915D01*
X007043Y017957D01*
X007093Y018007D01*
X007135Y018064D01*
X007167Y018127D01*
X007189Y018195D01*
X007200Y018265D01*
X007200Y018550D01*
X006800Y018550D01*
X006800Y018618D02*
X007240Y018618D01*
X007240Y018520D02*
X007200Y018520D01*
X007200Y018421D02*
X007240Y018421D01*
X007240Y018323D02*
X007200Y018323D01*
X007194Y018224D02*
X007240Y018224D01*
X007270Y018126D02*
X007166Y018126D01*
X007108Y018027D02*
X007311Y018027D01*
X007400Y017929D02*
X007004Y017929D01*
X006800Y017929D02*
X006700Y017929D01*
X006700Y018027D02*
X006800Y018027D01*
X006800Y018126D02*
X006700Y018126D01*
X006700Y018224D02*
X006800Y018224D01*
X006800Y018323D02*
X006700Y018323D01*
X006700Y018421D02*
X006800Y018421D01*
X006800Y018717D02*
X006700Y018717D01*
X006700Y018815D02*
X006800Y018815D01*
X006800Y018914D02*
X006700Y018914D01*
X006700Y019012D02*
X006800Y019012D01*
X006800Y019111D02*
X006700Y019111D01*
X006700Y019209D02*
X006800Y019209D01*
X006800Y019308D02*
X006700Y019308D01*
X006941Y019308D02*
X007436Y019308D01*
X007338Y019209D02*
X007077Y019209D01*
X007148Y019111D02*
X007285Y019111D01*
X007244Y019012D02*
X007187Y019012D01*
X007200Y018914D02*
X007240Y018914D01*
X007240Y018815D02*
X007200Y018815D01*
X007200Y018717D02*
X007240Y018717D01*
X008064Y019308D02*
X008436Y019308D01*
X008338Y019209D02*
X008162Y019209D01*
X008215Y019111D02*
X008285Y019111D01*
X011250Y019505D02*
X003513Y019505D01*
X010220Y012511D02*
X010280Y012511D01*
X010280Y012413D02*
X010220Y012413D01*
X010220Y012314D02*
X010280Y012314D01*
X010280Y012216D02*
X010220Y012216D01*
X010569Y012511D02*
X011250Y012511D01*
X011250Y012413D02*
X010666Y012413D01*
X010725Y012314D02*
X011250Y012314D01*
X011250Y012216D02*
X010758Y012216D01*
X013497Y008374D02*
X016194Y008374D01*
X016235Y008276D02*
X013576Y008276D01*
X013617Y008177D02*
X016324Y008177D01*
X016441Y008079D02*
X013618Y008079D01*
X013599Y007980D02*
X018002Y007980D01*
X017904Y008079D02*
X017059Y008079D01*
X017176Y008177D02*
X017805Y008177D01*
X017707Y008276D02*
X017265Y008276D01*
X017750Y008600D02*
X016750Y008600D01*
X017289Y008867D02*
X019357Y008867D01*
X019305Y008768D02*
X017950Y008768D01*
X018048Y008670D02*
X019280Y008670D01*
X019275Y008571D02*
X018147Y008571D01*
X018245Y008473D02*
X019292Y008473D01*
X019332Y008374D02*
X018344Y008374D01*
X018442Y008276D02*
X019403Y008276D01*
X019534Y008177D02*
X018541Y008177D01*
X018639Y008079D02*
X019282Y008079D01*
X019215Y007980D02*
X018738Y007980D01*
X018836Y007882D02*
X019215Y007882D01*
X018750Y007600D02*
X019750Y007600D01*
X020285Y007586D02*
X021225Y007586D01*
X021225Y007488D02*
X020285Y007488D01*
X020285Y007389D02*
X021225Y007389D01*
X021225Y007291D02*
X020285Y007291D01*
X020285Y007192D02*
X021225Y007192D01*
X021225Y007094D02*
X020191Y007094D01*
X020285Y007685D02*
X021225Y007685D01*
X021225Y007783D02*
X020285Y007783D01*
X020285Y007882D02*
X021225Y007882D01*
X021225Y007980D02*
X020285Y007980D01*
X020218Y008079D02*
X021225Y008079D01*
X021225Y008177D02*
X019966Y008177D01*
X020097Y008276D02*
X021225Y008276D01*
X021225Y008374D02*
X020168Y008374D01*
X020208Y008473D02*
X021225Y008473D01*
X021225Y008571D02*
X020225Y008571D01*
X020225Y008619D02*
X020225Y008637D01*
X020213Y008711D01*
X020190Y008782D01*
X020156Y008849D01*
X020112Y008909D01*
X020059Y008962D01*
X019999Y009006D01*
X019932Y009040D01*
X019861Y009063D01*
X019787Y009075D01*
X019769Y009075D01*
X019769Y008619D01*
X020225Y008619D01*
X020220Y008670D02*
X021225Y008670D01*
X021225Y008768D02*
X020195Y008768D01*
X020143Y008867D02*
X021225Y008867D01*
X021225Y008965D02*
X020056Y008965D01*
X019860Y009064D02*
X021225Y009064D01*
X021225Y009162D02*
X016961Y009162D01*
X017135Y009064D02*
X019640Y009064D01*
X019731Y009064D02*
X019769Y009064D01*
X019769Y008965D02*
X019731Y008965D01*
X019731Y008867D02*
X019769Y008867D01*
X019769Y008768D02*
X019731Y008768D01*
X019731Y008670D02*
X019769Y008670D01*
X019769Y008581D02*
X019769Y008135D01*
X019731Y008135D01*
X019731Y008581D01*
X019769Y008581D01*
X019769Y008571D02*
X019731Y008571D01*
X019731Y008473D02*
X019769Y008473D01*
X019769Y008374D02*
X019731Y008374D01*
X019731Y008276D02*
X019769Y008276D01*
X019769Y008177D02*
X019731Y008177D01*
X019444Y008965D02*
X017234Y008965D01*
X017750Y008600D02*
X018750Y007600D01*
X018593Y007389D02*
X013829Y007389D01*
X013927Y007291D02*
X019215Y007291D01*
X019215Y007192D02*
X013993Y007192D01*
X014010Y007094D02*
X019309Y007094D01*
X018495Y007488D02*
X013730Y007488D01*
X013632Y007586D02*
X018396Y007586D01*
X018298Y007685D02*
X013533Y007685D01*
X013510Y007783D02*
X018199Y007783D01*
X018101Y007882D02*
X013553Y007882D01*
X014010Y006995D02*
X021225Y006995D01*
X021225Y006897D02*
X014010Y006897D01*
X014010Y006798D02*
X021225Y006798D01*
X021225Y006700D02*
X014010Y006700D01*
X014010Y006601D02*
X021225Y006601D01*
X021225Y006503D02*
X014010Y006503D01*
X014010Y006404D02*
X021225Y006404D01*
X021225Y006306D02*
X014010Y006306D01*
X014010Y006207D02*
X021225Y006207D01*
X021225Y006109D02*
X014010Y006109D01*
X014010Y006010D02*
X021225Y006010D01*
X021225Y005912D02*
X014010Y005912D01*
X014010Y005813D02*
X021225Y005813D01*
X021225Y005715D02*
X014010Y005715D01*
X014010Y005616D02*
X021225Y005616D01*
X021225Y005518D02*
X014010Y005518D01*
X014010Y005419D02*
X021225Y005419D01*
X021225Y005321D02*
X014010Y005321D01*
X014010Y005222D02*
X021225Y005222D01*
X021225Y005124D02*
X017054Y005124D01*
X017090Y005109D02*
X016869Y005200D01*
X016631Y005200D01*
X016410Y005109D01*
X016241Y004940D01*
X016150Y004719D01*
X016150Y004481D01*
X016241Y004260D01*
X016410Y004091D01*
X016631Y004000D01*
X016869Y004000D01*
X017090Y004091D01*
X017259Y004260D01*
X017350Y004481D01*
X017350Y004719D01*
X017259Y004940D01*
X017090Y005109D01*
X017174Y005025D02*
X021225Y005025D01*
X021225Y004927D02*
X017264Y004927D01*
X017305Y004828D02*
X021225Y004828D01*
X021225Y004730D02*
X017346Y004730D01*
X017350Y004631D02*
X021225Y004631D01*
X021225Y004533D02*
X017350Y004533D01*
X017331Y004434D02*
X021225Y004434D01*
X021225Y004336D02*
X017290Y004336D01*
X017236Y004237D02*
X021225Y004237D01*
X021225Y004139D02*
X017137Y004139D01*
X016966Y004040D02*
X021225Y004040D01*
X021225Y003942D02*
X014010Y003942D01*
X014010Y004040D02*
X016534Y004040D01*
X016363Y004139D02*
X014010Y004139D01*
X014010Y004237D02*
X016264Y004237D01*
X016210Y004336D02*
X014010Y004336D01*
X014010Y004434D02*
X016169Y004434D01*
X016150Y004533D02*
X014010Y004533D01*
X014010Y004631D02*
X016150Y004631D01*
X016154Y004730D02*
X014010Y004730D01*
X014010Y004828D02*
X016195Y004828D01*
X016236Y004927D02*
X014010Y004927D01*
X014010Y005025D02*
X016326Y005025D01*
X016446Y005124D02*
X014010Y005124D01*
X014010Y003843D02*
X021225Y003843D01*
X021225Y003745D02*
X014010Y003745D01*
X014072Y003646D02*
X021225Y003646D01*
X021225Y003548D02*
X014170Y003548D01*
X014269Y003449D02*
X021225Y003449D01*
X021225Y003351D02*
X014367Y003351D01*
X014466Y003252D02*
X021225Y003252D01*
X021225Y003154D02*
X014509Y003154D01*
X014510Y003055D02*
X016450Y003055D01*
X016350Y002957D02*
X014510Y002957D01*
X014510Y002858D02*
X016278Y002858D01*
X016237Y002760D02*
X014510Y002760D01*
X014510Y002661D02*
X016215Y002661D01*
X016215Y002563D02*
X014510Y002563D01*
X014510Y002464D02*
X016227Y002464D01*
X016268Y002366D02*
X014771Y002366D01*
X014830Y002267D02*
X016326Y002267D01*
X016425Y002169D02*
X014830Y002169D01*
X014830Y002070D02*
X016273Y002070D01*
X016215Y001972D02*
X014830Y001972D01*
X013729Y002366D02*
X013521Y002366D01*
X013653Y002267D02*
X013670Y002267D01*
X013683Y001381D02*
X013601Y001381D01*
X013781Y001282D02*
X013394Y001282D01*
X016318Y001085D02*
X009260Y001085D01*
X009260Y000987D02*
X019256Y000987D01*
X019230Y001085D02*
X017182Y001085D01*
X017280Y001184D02*
X019214Y001184D01*
X019214Y001282D02*
X017285Y001282D01*
X017285Y001381D02*
X019214Y001381D01*
X019230Y001479D02*
X017285Y001479D01*
X017285Y001578D02*
X019257Y001578D01*
X019283Y001676D02*
X017285Y001676D01*
X017285Y001775D02*
X019338Y001775D01*
X019395Y001873D02*
X017285Y001873D01*
X017285Y001972D02*
X019474Y001972D01*
X019572Y002070D02*
X017227Y002070D01*
X017075Y002169D02*
X019711Y002169D01*
X019915Y002267D02*
X017174Y002267D01*
X017232Y002366D02*
X021225Y002366D01*
X021225Y002464D02*
X017273Y002464D01*
X017285Y002563D02*
X021225Y002563D01*
X021225Y002661D02*
X017285Y002661D01*
X017263Y002760D02*
X021225Y002760D01*
X021225Y002858D02*
X017222Y002858D01*
X017150Y002957D02*
X021225Y002957D01*
X021225Y003055D02*
X017050Y003055D01*
X019283Y000888D02*
X009260Y000888D01*
X009260Y000790D02*
X019337Y000790D01*
X019394Y000691D02*
X009257Y000691D01*
X008272Y001578D02*
X008228Y001578D01*
X008188Y001676D02*
X008312Y001676D01*
X008403Y001775D02*
X008097Y001775D01*
X008214Y002957D02*
X008286Y002957D01*
X008385Y003055D02*
X008115Y003055D01*
X007929Y003154D02*
X008490Y003154D01*
X004959Y005222D02*
X003697Y005222D01*
X003762Y005124D02*
X004861Y005124D01*
X004808Y005025D02*
X003803Y005025D01*
X003825Y004927D02*
X004772Y004927D01*
X004827Y005321D02*
X003589Y005321D01*
X003365Y005419D02*
X004729Y005419D01*
X007031Y008177D02*
X007069Y008177D01*
X007069Y008276D02*
X007031Y008276D01*
X007031Y008374D02*
X007069Y008374D01*
X017888Y009852D02*
X021225Y009852D01*
X021225Y009950D02*
X017965Y009950D01*
X018000Y010049D02*
X021225Y010049D01*
X021225Y010147D02*
X018000Y010147D01*
X017967Y010246D02*
X021225Y010246D01*
X021225Y002267D02*
X020592Y002267D01*
X020797Y002169D02*
X021225Y002169D01*
X021225Y002070D02*
X020936Y002070D01*
X021034Y001972D02*
X021225Y001972D01*
X021225Y001873D02*
X021113Y001873D01*
X021170Y001775D02*
X021225Y001775D01*
X021225Y001676D02*
X021225Y001676D01*
D27*
X013250Y005000D03*
X013350Y006400D03*
X009250Y007100D03*
X007750Y006100D03*
D28*
X017670Y010100D03*
D29*
X020254Y018604D03*
X002856Y018691D03*
X002856Y001206D03*
X020254Y001281D03*
D30*
X004750Y010100D02*
X004750Y012250D01*
X004713Y012750D01*
D31*
X013000Y018596D02*
X013254Y018596D01*
X015250Y016600D01*
X019919Y016600D01*
X020450Y016069D01*
M02*
