%
M48
M72
T01C0.0120
T02C0.0197
T03C0.0236
T04C0.0276
T05C0.0320
T06C0.0394
T07C0.0400
T08C0.0433
T09C0.0472
T10C0.0512
T11C0.0551
T12C0.1102
T13C0.1180
T14C0.1260
%
T01
X17670Y10100
T02
X14250Y8500
X13250Y8100
X19250Y4600
X4750Y10100
X2750Y16850
T03
X9250Y7100
X7750Y6100
X13350Y6400
X13250Y5000
T04
X16750Y2600
X16750Y1600
X19750Y7600
X19750Y8600
X8050Y8600
X7050Y8600
X7050Y11200
X8050Y11200
X2915Y10897
X2915Y10110
X2915Y9322
T05
X10250Y10100
X10250Y11100
X10250Y12100
T06
X16750Y8600
X16750Y4600
T07
X14250Y1850
X13250Y1850
X12250Y1850
X8750Y1100
X7750Y1100
X6750Y1100
X7750Y2600
X8750Y2600
X8750Y17100
X7750Y17100
X7750Y18600
X8750Y18600
X6750Y18600
T08
X13000Y18596
X13000Y16596
X13000Y12596
X13000Y11596
T09
X5219Y4850
X3250Y2881
X2266Y2881
X2266Y6819
X3250Y6819
T10
X5219Y6819
X5219Y5834
X3250Y4850
X5219Y3866
X5219Y2881
X20450Y14100
X20450Y16069
T11
X16250Y18100
X16250Y12194
T12
X16250Y15147
T13
X5894Y14600
X4713Y12750
X3531Y14600
T14
X2856Y1206
X20254Y1281
X20254Y18604
X2856Y18691
M30
