G75*
G70*
%OFA0B0*%
%FSLAX24Y24*%
%IPPOS*%
%LPD*%
%AMOC8*
5,1,8,0,0,1.08239X$1,22.5*
%
%ADD10C,0.0000*%
%ADD11C,0.0840*%
%ADD12C,0.0780*%
%ADD13C,0.0820*%
%ADD14R,0.0690X0.0690*%
%ADD15C,0.0690*%
%ADD16C,0.0900*%
%ADD17C,0.0512*%
%ADD18R,0.0780X0.0780*%
%ADD19C,0.1740*%
%ADD20C,0.0640*%
%ADD21C,0.0540*%
%ADD22R,0.0840X0.0840*%
%ADD23R,0.0867X0.0867*%
%ADD24R,0.1542X0.1542*%
%ADD25C,0.1700*%
D10*
X001750Y000100D02*
X001750Y019785D01*
X021435Y019785D01*
X021435Y000100D01*
X001750Y000100D01*
X002030Y002881D02*
X002032Y002911D01*
X002038Y002941D01*
X002047Y002970D01*
X002060Y002997D01*
X002077Y003022D01*
X002096Y003045D01*
X002119Y003066D01*
X002144Y003083D01*
X002170Y003097D01*
X002199Y003107D01*
X002228Y003114D01*
X002258Y003117D01*
X002289Y003116D01*
X002319Y003111D01*
X002348Y003102D01*
X002375Y003090D01*
X002401Y003075D01*
X002425Y003056D01*
X002446Y003034D01*
X002464Y003010D01*
X002479Y002983D01*
X002490Y002955D01*
X002498Y002926D01*
X002502Y002896D01*
X002502Y002866D01*
X002498Y002836D01*
X002490Y002807D01*
X002479Y002779D01*
X002464Y002752D01*
X002446Y002728D01*
X002425Y002706D01*
X002401Y002687D01*
X002375Y002672D01*
X002348Y002660D01*
X002319Y002651D01*
X002289Y002646D01*
X002258Y002645D01*
X002228Y002648D01*
X002199Y002655D01*
X002170Y002665D01*
X002144Y002679D01*
X002119Y002696D01*
X002096Y002717D01*
X002077Y002740D01*
X002060Y002765D01*
X002047Y002792D01*
X002038Y002821D01*
X002032Y002851D01*
X002030Y002881D01*
X003014Y002881D02*
X003016Y002911D01*
X003022Y002941D01*
X003031Y002970D01*
X003044Y002997D01*
X003061Y003022D01*
X003080Y003045D01*
X003103Y003066D01*
X003128Y003083D01*
X003154Y003097D01*
X003183Y003107D01*
X003212Y003114D01*
X003242Y003117D01*
X003273Y003116D01*
X003303Y003111D01*
X003332Y003102D01*
X003359Y003090D01*
X003385Y003075D01*
X003409Y003056D01*
X003430Y003034D01*
X003448Y003010D01*
X003463Y002983D01*
X003474Y002955D01*
X003482Y002926D01*
X003486Y002896D01*
X003486Y002866D01*
X003482Y002836D01*
X003474Y002807D01*
X003463Y002779D01*
X003448Y002752D01*
X003430Y002728D01*
X003409Y002706D01*
X003385Y002687D01*
X003359Y002672D01*
X003332Y002660D01*
X003303Y002651D01*
X003273Y002646D01*
X003242Y002645D01*
X003212Y002648D01*
X003183Y002655D01*
X003154Y002665D01*
X003128Y002679D01*
X003103Y002696D01*
X003080Y002717D01*
X003061Y002740D01*
X003044Y002765D01*
X003031Y002792D01*
X003022Y002821D01*
X003016Y002851D01*
X003014Y002881D01*
X004983Y004850D02*
X004985Y004880D01*
X004991Y004910D01*
X005000Y004939D01*
X005013Y004966D01*
X005030Y004991D01*
X005049Y005014D01*
X005072Y005035D01*
X005097Y005052D01*
X005123Y005066D01*
X005152Y005076D01*
X005181Y005083D01*
X005211Y005086D01*
X005242Y005085D01*
X005272Y005080D01*
X005301Y005071D01*
X005328Y005059D01*
X005354Y005044D01*
X005378Y005025D01*
X005399Y005003D01*
X005417Y004979D01*
X005432Y004952D01*
X005443Y004924D01*
X005451Y004895D01*
X005455Y004865D01*
X005455Y004835D01*
X005451Y004805D01*
X005443Y004776D01*
X005432Y004748D01*
X005417Y004721D01*
X005399Y004697D01*
X005378Y004675D01*
X005354Y004656D01*
X005328Y004641D01*
X005301Y004629D01*
X005272Y004620D01*
X005242Y004615D01*
X005211Y004614D01*
X005181Y004617D01*
X005152Y004624D01*
X005123Y004634D01*
X005097Y004648D01*
X005072Y004665D01*
X005049Y004686D01*
X005030Y004709D01*
X005013Y004734D01*
X005000Y004761D01*
X004991Y004790D01*
X004985Y004820D01*
X004983Y004850D01*
X003014Y006819D02*
X003016Y006849D01*
X003022Y006879D01*
X003031Y006908D01*
X003044Y006935D01*
X003061Y006960D01*
X003080Y006983D01*
X003103Y007004D01*
X003128Y007021D01*
X003154Y007035D01*
X003183Y007045D01*
X003212Y007052D01*
X003242Y007055D01*
X003273Y007054D01*
X003303Y007049D01*
X003332Y007040D01*
X003359Y007028D01*
X003385Y007013D01*
X003409Y006994D01*
X003430Y006972D01*
X003448Y006948D01*
X003463Y006921D01*
X003474Y006893D01*
X003482Y006864D01*
X003486Y006834D01*
X003486Y006804D01*
X003482Y006774D01*
X003474Y006745D01*
X003463Y006717D01*
X003448Y006690D01*
X003430Y006666D01*
X003409Y006644D01*
X003385Y006625D01*
X003359Y006610D01*
X003332Y006598D01*
X003303Y006589D01*
X003273Y006584D01*
X003242Y006583D01*
X003212Y006586D01*
X003183Y006593D01*
X003154Y006603D01*
X003128Y006617D01*
X003103Y006634D01*
X003080Y006655D01*
X003061Y006678D01*
X003044Y006703D01*
X003031Y006730D01*
X003022Y006759D01*
X003016Y006789D01*
X003014Y006819D01*
X002030Y006819D02*
X002032Y006849D01*
X002038Y006879D01*
X002047Y006908D01*
X002060Y006935D01*
X002077Y006960D01*
X002096Y006983D01*
X002119Y007004D01*
X002144Y007021D01*
X002170Y007035D01*
X002199Y007045D01*
X002228Y007052D01*
X002258Y007055D01*
X002289Y007054D01*
X002319Y007049D01*
X002348Y007040D01*
X002375Y007028D01*
X002401Y007013D01*
X002425Y006994D01*
X002446Y006972D01*
X002464Y006948D01*
X002479Y006921D01*
X002490Y006893D01*
X002498Y006864D01*
X002502Y006834D01*
X002502Y006804D01*
X002498Y006774D01*
X002490Y006745D01*
X002479Y006717D01*
X002464Y006690D01*
X002446Y006666D01*
X002425Y006644D01*
X002401Y006625D01*
X002375Y006610D01*
X002348Y006598D01*
X002319Y006589D01*
X002289Y006584D01*
X002258Y006583D01*
X002228Y006586D01*
X002199Y006593D01*
X002170Y006603D01*
X002144Y006617D01*
X002119Y006634D01*
X002096Y006655D01*
X002077Y006678D01*
X002060Y006703D01*
X002047Y006730D01*
X002038Y006759D01*
X002032Y006789D01*
X002030Y006819D01*
D11*
X013000Y011596D03*
X013000Y012596D03*
X013000Y016596D03*
X013000Y018596D03*
X020450Y016069D03*
D12*
X010250Y012100D03*
X010250Y011100D03*
X010250Y010100D03*
X008750Y017100D03*
X007750Y017100D03*
X007750Y002600D03*
X008750Y002600D03*
X012250Y001850D03*
X013250Y001850D03*
D13*
X016750Y004600D03*
X016750Y008600D03*
D14*
X019750Y007600D03*
X016750Y001600D03*
X008050Y008600D03*
X007050Y011200D03*
D15*
X008050Y011200D03*
X007050Y008600D03*
X016750Y002600D03*
X019750Y008600D03*
D16*
X005219Y006819D03*
X005219Y005834D03*
X003250Y004850D03*
X005219Y003866D03*
X005219Y002881D03*
D17*
X003250Y002881D03*
X002266Y002881D03*
X005219Y004850D03*
X003250Y006819D03*
X002266Y006819D03*
D18*
X014250Y001850D03*
D19*
X004713Y012750D03*
X005894Y014600D03*
X003531Y014600D03*
D20*
X006750Y018300D02*
X006750Y018900D01*
X007750Y018900D02*
X007750Y018300D01*
X008750Y018300D02*
X008750Y018900D01*
X008750Y001400D02*
X008750Y000800D01*
X007750Y000800D02*
X007750Y001400D01*
X006750Y001400D02*
X006750Y000800D01*
D21*
X002915Y009322D03*
X002915Y010110D03*
X002915Y010897D03*
D22*
X020450Y014100D03*
D23*
X016250Y012194D03*
X016250Y018100D03*
D24*
X016250Y015147D03*
D25*
X020254Y018604D03*
X002856Y018691D03*
X002856Y001206D03*
X020254Y001281D03*
M02*
