G75*
G70*
%OFA0B0*%
%FSLAX24Y24*%
%IPPOS*%
%LPD*%
%AMOC8*
5,1,8,0,0,1.08239X$1,22.5*
%
%ADD10C,0.0000*%
%ADD11C,0.0800*%
%ADD12C,0.0740*%
%ADD13R,0.0433X0.0394*%
%ADD14C,0.0780*%
%ADD15R,0.0650X0.0650*%
%ADD16C,0.0650*%
%ADD17R,0.0394X0.0433*%
%ADD18C,0.0860*%
%ADD19R,0.0315X0.0315*%
%ADD20R,0.0740X0.0740*%
%ADD21C,0.1700*%
%ADD22R,0.0880X0.0480*%
%ADD23R,0.0866X0.1417*%
%ADD24C,0.0600*%
%ADD25C,0.0500*%
%ADD26R,0.0866X0.0236*%
%ADD27R,0.0800X0.0800*%
%ADD28R,0.0827X0.0827*%
%ADD29R,0.1502X0.1502*%
%ADD30C,0.0100*%
%ADD31C,0.0317*%
%ADD32C,0.0240*%
%ADD33C,0.0080*%
%ADD34C,0.0356*%
%ADD35C,0.0240*%
%ADD36C,0.0160*%
%ADD37C,0.1660*%
%ADD38C,0.0400*%
D10*
X001750Y000100D02*
X001750Y019785D01*
X021435Y019785D01*
X021435Y000100D01*
X001750Y000100D01*
X002030Y002881D02*
X002032Y002911D01*
X002038Y002941D01*
X002047Y002970D01*
X002060Y002997D01*
X002077Y003022D01*
X002096Y003045D01*
X002119Y003066D01*
X002144Y003083D01*
X002170Y003097D01*
X002199Y003107D01*
X002228Y003114D01*
X002258Y003117D01*
X002289Y003116D01*
X002319Y003111D01*
X002348Y003102D01*
X002375Y003090D01*
X002401Y003075D01*
X002425Y003056D01*
X002446Y003034D01*
X002464Y003010D01*
X002479Y002983D01*
X002490Y002955D01*
X002498Y002926D01*
X002502Y002896D01*
X002502Y002866D01*
X002498Y002836D01*
X002490Y002807D01*
X002479Y002779D01*
X002464Y002752D01*
X002446Y002728D01*
X002425Y002706D01*
X002401Y002687D01*
X002375Y002672D01*
X002348Y002660D01*
X002319Y002651D01*
X002289Y002646D01*
X002258Y002645D01*
X002228Y002648D01*
X002199Y002655D01*
X002170Y002665D01*
X002144Y002679D01*
X002119Y002696D01*
X002096Y002717D01*
X002077Y002740D01*
X002060Y002765D01*
X002047Y002792D01*
X002038Y002821D01*
X002032Y002851D01*
X002030Y002881D01*
X003014Y002881D02*
X003016Y002911D01*
X003022Y002941D01*
X003031Y002970D01*
X003044Y002997D01*
X003061Y003022D01*
X003080Y003045D01*
X003103Y003066D01*
X003128Y003083D01*
X003154Y003097D01*
X003183Y003107D01*
X003212Y003114D01*
X003242Y003117D01*
X003273Y003116D01*
X003303Y003111D01*
X003332Y003102D01*
X003359Y003090D01*
X003385Y003075D01*
X003409Y003056D01*
X003430Y003034D01*
X003448Y003010D01*
X003463Y002983D01*
X003474Y002955D01*
X003482Y002926D01*
X003486Y002896D01*
X003486Y002866D01*
X003482Y002836D01*
X003474Y002807D01*
X003463Y002779D01*
X003448Y002752D01*
X003430Y002728D01*
X003409Y002706D01*
X003385Y002687D01*
X003359Y002672D01*
X003332Y002660D01*
X003303Y002651D01*
X003273Y002646D01*
X003242Y002645D01*
X003212Y002648D01*
X003183Y002655D01*
X003154Y002665D01*
X003128Y002679D01*
X003103Y002696D01*
X003080Y002717D01*
X003061Y002740D01*
X003044Y002765D01*
X003031Y002792D01*
X003022Y002821D01*
X003016Y002851D01*
X003014Y002881D01*
X004983Y004850D02*
X004985Y004880D01*
X004991Y004910D01*
X005000Y004939D01*
X005013Y004966D01*
X005030Y004991D01*
X005049Y005014D01*
X005072Y005035D01*
X005097Y005052D01*
X005123Y005066D01*
X005152Y005076D01*
X005181Y005083D01*
X005211Y005086D01*
X005242Y005085D01*
X005272Y005080D01*
X005301Y005071D01*
X005328Y005059D01*
X005354Y005044D01*
X005378Y005025D01*
X005399Y005003D01*
X005417Y004979D01*
X005432Y004952D01*
X005443Y004924D01*
X005451Y004895D01*
X005455Y004865D01*
X005455Y004835D01*
X005451Y004805D01*
X005443Y004776D01*
X005432Y004748D01*
X005417Y004721D01*
X005399Y004697D01*
X005378Y004675D01*
X005354Y004656D01*
X005328Y004641D01*
X005301Y004629D01*
X005272Y004620D01*
X005242Y004615D01*
X005211Y004614D01*
X005181Y004617D01*
X005152Y004624D01*
X005123Y004634D01*
X005097Y004648D01*
X005072Y004665D01*
X005049Y004686D01*
X005030Y004709D01*
X005013Y004734D01*
X005000Y004761D01*
X004991Y004790D01*
X004985Y004820D01*
X004983Y004850D01*
X003014Y006819D02*
X003016Y006849D01*
X003022Y006879D01*
X003031Y006908D01*
X003044Y006935D01*
X003061Y006960D01*
X003080Y006983D01*
X003103Y007004D01*
X003128Y007021D01*
X003154Y007035D01*
X003183Y007045D01*
X003212Y007052D01*
X003242Y007055D01*
X003273Y007054D01*
X003303Y007049D01*
X003332Y007040D01*
X003359Y007028D01*
X003385Y007013D01*
X003409Y006994D01*
X003430Y006972D01*
X003448Y006948D01*
X003463Y006921D01*
X003474Y006893D01*
X003482Y006864D01*
X003486Y006834D01*
X003486Y006804D01*
X003482Y006774D01*
X003474Y006745D01*
X003463Y006717D01*
X003448Y006690D01*
X003430Y006666D01*
X003409Y006644D01*
X003385Y006625D01*
X003359Y006610D01*
X003332Y006598D01*
X003303Y006589D01*
X003273Y006584D01*
X003242Y006583D01*
X003212Y006586D01*
X003183Y006593D01*
X003154Y006603D01*
X003128Y006617D01*
X003103Y006634D01*
X003080Y006655D01*
X003061Y006678D01*
X003044Y006703D01*
X003031Y006730D01*
X003022Y006759D01*
X003016Y006789D01*
X003014Y006819D01*
X002030Y006819D02*
X002032Y006849D01*
X002038Y006879D01*
X002047Y006908D01*
X002060Y006935D01*
X002077Y006960D01*
X002096Y006983D01*
X002119Y007004D01*
X002144Y007021D01*
X002170Y007035D01*
X002199Y007045D01*
X002228Y007052D01*
X002258Y007055D01*
X002289Y007054D01*
X002319Y007049D01*
X002348Y007040D01*
X002375Y007028D01*
X002401Y007013D01*
X002425Y006994D01*
X002446Y006972D01*
X002464Y006948D01*
X002479Y006921D01*
X002490Y006893D01*
X002498Y006864D01*
X002502Y006834D01*
X002502Y006804D01*
X002498Y006774D01*
X002490Y006745D01*
X002479Y006717D01*
X002464Y006690D01*
X002446Y006666D01*
X002425Y006644D01*
X002401Y006625D01*
X002375Y006610D01*
X002348Y006598D01*
X002319Y006589D01*
X002289Y006584D01*
X002258Y006583D01*
X002228Y006586D01*
X002199Y006593D01*
X002170Y006603D01*
X002144Y006617D01*
X002119Y006634D01*
X002096Y006655D01*
X002077Y006678D01*
X002060Y006703D01*
X002047Y006730D01*
X002038Y006759D01*
X002032Y006789D01*
X002030Y006819D01*
D11*
X013000Y011596D03*
X013000Y012596D03*
X013000Y016596D03*
X013000Y018596D03*
X020450Y016069D03*
D12*
X010250Y012100D03*
X010250Y011100D03*
X010250Y010100D03*
X008750Y017100D03*
X007750Y017100D03*
X007750Y002600D03*
X008750Y002600D03*
X012250Y001850D03*
X013250Y001850D03*
D13*
X009085Y006100D03*
X008415Y006100D03*
X009615Y008600D03*
X010285Y008600D03*
X011115Y008600D03*
X011785Y008600D03*
X012515Y008600D03*
X013185Y008600D03*
X013185Y009600D03*
X012515Y009600D03*
X014415Y009000D03*
X015085Y009000D03*
X018165Y006100D03*
X018835Y006100D03*
X018835Y004600D03*
X018165Y004600D03*
X018165Y003650D03*
X018835Y003650D03*
X005335Y016850D03*
X004665Y016850D03*
D14*
X016750Y008600D03*
X016750Y004600D03*
D15*
X016750Y001600D03*
X019750Y007600D03*
X008050Y008600D03*
X007050Y011200D03*
D16*
X008050Y011200D03*
X007050Y008600D03*
X016750Y002600D03*
X019750Y008600D03*
D17*
X020000Y006185D03*
X020000Y005515D03*
X015250Y005765D03*
X015250Y006435D03*
X015250Y007265D03*
X015250Y007935D03*
X014250Y007935D03*
X014250Y007265D03*
X014250Y006435D03*
X014250Y005765D03*
X014250Y004935D03*
X014250Y004265D03*
X015250Y004265D03*
X015250Y004935D03*
D18*
X005219Y005834D03*
X005219Y006819D03*
X003250Y004850D03*
X005219Y003866D03*
X005219Y002881D03*
D19*
X020000Y004055D03*
X020000Y004645D03*
X003795Y016850D03*
X003205Y016850D03*
D20*
X014250Y001850D03*
D21*
X004713Y012750D03*
X005894Y014600D03*
X003531Y014600D03*
D22*
X007980Y014810D03*
X007980Y013900D03*
X007980Y012990D03*
D23*
X010420Y013900D03*
D24*
X008750Y018300D02*
X008750Y018900D01*
X007750Y018900D02*
X007750Y018300D01*
X006750Y018300D02*
X006750Y018900D01*
X006750Y001400D02*
X006750Y000800D01*
X007750Y000800D02*
X007750Y001400D01*
X008750Y001400D02*
X008750Y000800D01*
D25*
X002915Y009322D03*
X002915Y010110D03*
X002915Y010897D03*
D26*
X010226Y007600D03*
X010226Y007100D03*
X010226Y006600D03*
X010226Y006100D03*
X010226Y005600D03*
X010226Y005100D03*
X010226Y004600D03*
X012274Y004600D03*
X012274Y005100D03*
X012274Y005600D03*
X012274Y006100D03*
X012274Y006600D03*
X012274Y007100D03*
X012274Y007600D03*
D27*
X020450Y014100D03*
D28*
X016250Y012194D03*
X016250Y018100D03*
D29*
X016250Y015147D03*
D30*
X013000Y011596D02*
X013000Y010850D01*
X013750Y010100D01*
X016750Y010100D01*
X017450Y009400D01*
X017450Y006800D01*
X017550Y006700D01*
X017565Y006700D01*
X018165Y006100D01*
X017739Y006109D02*
X017109Y006109D01*
X017011Y006207D02*
X017691Y006207D01*
X017739Y006159D02*
X017429Y006469D01*
X017403Y006480D01*
X017330Y006553D01*
X017230Y006653D01*
X017190Y006748D01*
X017190Y008191D01*
X017090Y008091D01*
X016869Y008000D01*
X016631Y008000D01*
X016410Y008091D01*
X016241Y008260D01*
X016150Y008481D01*
X016150Y008719D01*
X016154Y008730D01*
X015511Y008730D01*
X015511Y008716D01*
X015388Y008593D01*
X014781Y008593D01*
X014750Y008624D01*
X014719Y008593D01*
X014667Y008593D01*
X014636Y008518D01*
X014618Y008501D01*
X014618Y008427D01*
X014580Y008334D01*
X014580Y008315D01*
X014657Y008238D01*
X014657Y007631D01*
X014626Y007600D01*
X014657Y007569D01*
X014657Y007525D01*
X014843Y007525D01*
X014843Y007569D01*
X014921Y007647D01*
X014913Y007660D01*
X014903Y007698D01*
X014903Y007886D01*
X015202Y007886D01*
X015202Y007983D01*
X015202Y008301D01*
X015033Y008301D01*
X014995Y008291D01*
X014961Y008271D01*
X014933Y008243D01*
X014913Y008209D01*
X014903Y008171D01*
X014903Y007983D01*
X015202Y007983D01*
X015298Y007983D01*
X015298Y008301D01*
X015467Y008301D01*
X015505Y008291D01*
X015539Y008271D01*
X015567Y008243D01*
X015587Y008209D01*
X015597Y008171D01*
X015597Y007983D01*
X015298Y007983D01*
X015298Y007886D01*
X015597Y007886D01*
X015597Y007698D01*
X015587Y007660D01*
X015579Y007647D01*
X015657Y007569D01*
X015657Y006962D01*
X015545Y006850D01*
X015657Y006738D01*
X015657Y006131D01*
X015626Y006100D01*
X015654Y006072D01*
X015903Y006320D01*
X015998Y006360D01*
X016802Y006360D01*
X016897Y006320D01*
X016970Y006247D01*
X018211Y005007D01*
X018469Y005007D01*
X018500Y004976D01*
X018531Y005007D01*
X019138Y005007D01*
X019177Y004968D01*
X019177Y004968D01*
X019323Y004968D01*
X019459Y004912D01*
X019562Y004809D01*
X019618Y004673D01*
X019618Y004527D01*
X019562Y004391D01*
X019459Y004288D01*
X019323Y004232D01*
X019177Y004232D01*
X019177Y004232D01*
X019138Y004193D01*
X018531Y004193D01*
X018500Y004224D01*
X018469Y004193D01*
X018425Y004193D01*
X018425Y004057D01*
X018469Y004057D01*
X018547Y003979D01*
X018560Y003987D01*
X018598Y003997D01*
X018786Y003997D01*
X018786Y003698D01*
X018883Y003698D01*
X019201Y003698D01*
X019201Y003867D01*
X019191Y003905D01*
X019171Y003939D01*
X019143Y003967D01*
X019109Y003987D01*
X019071Y003997D01*
X018883Y003997D01*
X018883Y003698D01*
X018883Y003602D01*
X019201Y003602D01*
X019201Y003433D01*
X019191Y003395D01*
X019171Y003361D01*
X019143Y003333D01*
X019109Y003313D01*
X019071Y003303D01*
X018883Y003303D01*
X018883Y003602D01*
X018786Y003602D01*
X018786Y003303D01*
X018598Y003303D01*
X018560Y003313D01*
X018547Y003321D01*
X018469Y003243D01*
X017862Y003243D01*
X017811Y003294D01*
X017267Y002749D01*
X017285Y002706D01*
X017285Y002494D01*
X017204Y002297D01*
X017053Y002146D01*
X017025Y002135D01*
X017162Y002135D01*
X017285Y002012D01*
X017285Y001188D01*
X017162Y001065D01*
X016338Y001065D01*
X016215Y001188D01*
X016215Y001767D01*
X015142Y002840D01*
X013858Y002840D01*
X013510Y002492D01*
X013510Y002370D01*
X013579Y002342D01*
X013670Y002250D01*
X013670Y002307D01*
X013793Y002430D01*
X014707Y002430D01*
X014830Y002307D01*
X014830Y001393D01*
X014707Y001270D01*
X013793Y001270D01*
X013670Y001393D01*
X013670Y001450D01*
X013579Y001358D01*
X013365Y001270D01*
X013135Y001270D01*
X012921Y001358D01*
X012758Y001521D01*
X012750Y001541D01*
X012742Y001521D01*
X012579Y001358D01*
X012365Y001270D01*
X012135Y001270D01*
X011921Y001358D01*
X011758Y001521D01*
X011670Y001735D01*
X011670Y001965D01*
X011758Y002179D01*
X011921Y002342D01*
X012135Y002430D01*
X012365Y002430D01*
X012579Y002342D01*
X012742Y002179D01*
X012750Y002159D01*
X012758Y002179D01*
X012921Y002342D01*
X012990Y002370D01*
X012990Y002652D01*
X013030Y002747D01*
X013530Y003247D01*
X013603Y003320D01*
X013698Y003360D01*
X015302Y003360D01*
X015397Y003320D01*
X016215Y002503D01*
X016215Y002706D01*
X016296Y002903D01*
X016447Y003054D01*
X016644Y003135D01*
X016856Y003135D01*
X016899Y003117D01*
X017653Y003870D01*
X017739Y003906D01*
X017739Y003934D01*
X017862Y004057D01*
X017905Y004057D01*
X017905Y004193D01*
X017862Y004193D01*
X017739Y004316D01*
X017739Y004743D01*
X016642Y005840D01*
X016158Y005840D01*
X015970Y005653D01*
X015897Y005580D01*
X015802Y005540D01*
X015657Y005540D01*
X015657Y005462D01*
X015545Y005350D01*
X015657Y005238D01*
X015657Y005046D01*
X015660Y005039D01*
X015678Y004997D01*
X015679Y004993D01*
X015680Y004990D01*
X015680Y004944D01*
X015681Y004898D01*
X015680Y004894D01*
X015680Y004890D01*
X015662Y004848D01*
X015657Y004833D01*
X015657Y004631D01*
X015626Y004600D01*
X015657Y004569D01*
X015657Y004410D01*
X015666Y004396D01*
X015671Y004372D01*
X015676Y004360D01*
X016142Y004360D01*
X016183Y004401D01*
X016150Y004481D01*
X016150Y004719D01*
X016241Y004940D01*
X016410Y005109D01*
X016631Y005200D01*
X016869Y005200D01*
X017090Y005109D01*
X017259Y004940D01*
X017350Y004719D01*
X017350Y004481D01*
X017259Y004260D01*
X017090Y004091D01*
X016869Y004000D01*
X016631Y004000D01*
X016551Y004033D01*
X016470Y003953D01*
X016397Y003880D01*
X016302Y003840D01*
X015535Y003840D01*
X015534Y003839D01*
X014966Y003839D01*
X014843Y003962D01*
X014843Y004050D01*
X014657Y004050D01*
X014657Y003962D01*
X014534Y003839D01*
X013966Y003839D01*
X013843Y003962D01*
X013843Y004005D01*
X012557Y004005D01*
X012461Y004045D01*
X012388Y004118D01*
X012234Y004272D01*
X011754Y004272D01*
X011631Y004395D01*
X011631Y004805D01*
X011675Y004850D01*
X011631Y004895D01*
X011631Y005305D01*
X011675Y005350D01*
X011631Y005395D01*
X011631Y005805D01*
X011675Y005850D01*
X011631Y005895D01*
X011631Y006305D01*
X011675Y006350D01*
X011603Y006380D01*
X011530Y006453D01*
X011030Y006953D01*
X010990Y007048D01*
X010990Y008152D01*
X011007Y008193D01*
X010812Y008193D01*
X010700Y008305D01*
X010588Y008193D01*
X009981Y008193D01*
X009950Y008224D01*
X009919Y008193D01*
X009576Y008193D01*
X009510Y008127D01*
X009510Y007860D01*
X009638Y007860D01*
X009706Y007928D01*
X010746Y007928D01*
X010869Y007805D01*
X010869Y007395D01*
X010825Y007350D01*
X010869Y007305D01*
X010869Y006895D01*
X010825Y006850D01*
X010869Y006805D01*
X010869Y006395D01*
X010781Y006307D01*
X010799Y006276D01*
X010809Y006238D01*
X010809Y006109D01*
X010235Y006109D01*
X010235Y006091D01*
X010809Y006091D01*
X010809Y005962D01*
X010799Y005924D01*
X010781Y005893D01*
X010869Y005805D01*
X010869Y005395D01*
X010825Y005350D01*
X010869Y005305D01*
X010869Y004895D01*
X010825Y004850D01*
X010869Y004805D01*
X010869Y004395D01*
X010746Y004272D01*
X010486Y004272D01*
X010486Y004025D01*
X010447Y003929D01*
X010374Y003856D01*
X009302Y002784D01*
X009330Y002715D01*
X009330Y002485D01*
X009242Y002271D01*
X009079Y002108D01*
X008865Y002020D01*
X008635Y002020D01*
X008421Y002108D01*
X008258Y002271D01*
X008250Y002291D01*
X008242Y002271D01*
X008079Y002108D01*
X007865Y002020D01*
X007635Y002020D01*
X007421Y002108D01*
X007258Y002271D01*
X007170Y002485D01*
X007170Y002715D01*
X007258Y002929D01*
X007421Y003092D01*
X007635Y003180D01*
X007865Y003180D01*
X008079Y003092D01*
X008242Y002929D01*
X008250Y002909D01*
X008258Y002929D01*
X008421Y003092D01*
X008635Y003180D01*
X008865Y003180D01*
X008934Y003152D01*
X009966Y004184D01*
X009966Y004272D01*
X009706Y004272D01*
X009583Y004395D01*
X009583Y004805D01*
X009628Y004850D01*
X009583Y004895D01*
X009583Y005305D01*
X009618Y005340D01*
X009558Y005340D01*
X009170Y004953D01*
X009097Y004880D01*
X009002Y004840D01*
X007358Y004840D01*
X007010Y004492D01*
X007010Y003048D01*
X006970Y002953D01*
X006752Y002734D01*
X006679Y002661D01*
X006583Y002621D01*
X005804Y002621D01*
X005761Y002519D01*
X005581Y002339D01*
X005346Y002241D01*
X005091Y002241D01*
X004856Y002339D01*
X004676Y002519D01*
X004579Y002754D01*
X004579Y003009D01*
X004676Y003244D01*
X004806Y003374D01*
X004676Y003503D01*
X004579Y003738D01*
X004579Y003993D01*
X004676Y004228D01*
X004856Y004408D01*
X004987Y004463D01*
X004966Y004472D01*
X004840Y004597D01*
X004772Y004761D01*
X004772Y004939D01*
X004840Y005103D01*
X004966Y005228D01*
X004987Y005237D01*
X004856Y005292D01*
X004676Y005472D01*
X004579Y005707D01*
X004579Y005962D01*
X004676Y006197D01*
X004806Y006326D01*
X004676Y006456D01*
X004579Y006691D01*
X004579Y006946D01*
X004676Y007181D01*
X004856Y007361D01*
X005091Y007459D01*
X005346Y007459D01*
X005581Y007361D01*
X005761Y007181D01*
X005804Y007079D01*
X006583Y007079D01*
X006679Y007039D01*
X006752Y006966D01*
X006752Y006966D01*
X006858Y006860D01*
X008941Y006860D01*
X008921Y006880D01*
X008862Y007023D01*
X008862Y007177D01*
X008921Y007320D01*
X008990Y007389D01*
X005514Y007389D01*
X005652Y007291D02*
X008909Y007291D01*
X008868Y007192D02*
X005750Y007192D01*
X005797Y007094D02*
X008862Y007094D01*
X008873Y006995D02*
X006723Y006995D01*
X006821Y006897D02*
X008914Y006897D01*
X009250Y007100D02*
X009250Y007600D01*
X009250Y008235D01*
X009615Y008600D01*
X009560Y008177D02*
X011000Y008177D01*
X010990Y008079D02*
X009510Y008079D01*
X009510Y007980D02*
X010990Y007980D01*
X010990Y007882D02*
X010793Y007882D01*
X010869Y007783D02*
X010990Y007783D01*
X010990Y007685D02*
X010869Y007685D01*
X010869Y007586D02*
X010990Y007586D01*
X010990Y007488D02*
X010869Y007488D01*
X010864Y007389D02*
X010990Y007389D01*
X010990Y007291D02*
X010869Y007291D01*
X010869Y007192D02*
X010990Y007192D01*
X010990Y007094D02*
X010869Y007094D01*
X010869Y006995D02*
X011012Y006995D01*
X011086Y006897D02*
X010869Y006897D01*
X010869Y006798D02*
X011184Y006798D01*
X011283Y006700D02*
X010869Y006700D01*
X010869Y006601D02*
X011381Y006601D01*
X011480Y006503D02*
X010869Y006503D01*
X010869Y006404D02*
X011578Y006404D01*
X011631Y006306D02*
X010782Y006306D01*
X010809Y006207D02*
X011631Y006207D01*
X011631Y006109D02*
X010235Y006109D01*
X010217Y006109D02*
X010217Y006091D01*
X009643Y006091D01*
X009643Y005962D01*
X009654Y005924D01*
X009671Y005893D01*
X009638Y005860D01*
X009445Y005860D01*
X009451Y005883D01*
X009451Y006052D01*
X009133Y006052D01*
X009133Y006148D01*
X009451Y006148D01*
X009451Y006317D01*
X009445Y006340D01*
X009638Y006340D01*
X009671Y006307D01*
X009654Y006276D01*
X009643Y006238D01*
X009643Y006109D01*
X010217Y006109D01*
X009133Y006109D01*
X009133Y006052D02*
X009133Y005753D01*
X009235Y005753D01*
X008842Y005360D01*
X007198Y005360D01*
X007103Y005320D01*
X006603Y004820D01*
X006530Y004747D01*
X006490Y004652D01*
X006490Y003208D01*
X006424Y003141D01*
X005804Y003141D01*
X005761Y003244D01*
X005631Y003374D01*
X005761Y003503D01*
X005859Y003738D01*
X005859Y003993D01*
X005761Y004228D01*
X005581Y004408D01*
X005450Y004463D01*
X005471Y004472D01*
X005597Y004597D01*
X005665Y004761D01*
X005665Y004939D01*
X005597Y005103D01*
X005471Y005228D01*
X005450Y005237D01*
X005581Y005292D01*
X005761Y005472D01*
X005859Y005707D01*
X005859Y005962D01*
X005761Y006197D01*
X005631Y006326D01*
X005761Y006456D01*
X005804Y006559D01*
X006424Y006559D01*
X006530Y006453D01*
X006530Y006453D01*
X006603Y006380D01*
X006698Y006340D01*
X007441Y006340D01*
X007421Y006320D01*
X007362Y006177D01*
X007362Y006023D01*
X007421Y005880D01*
X007530Y005771D01*
X007673Y005712D01*
X007827Y005712D01*
X007970Y005771D01*
X008002Y005803D01*
X008112Y005693D01*
X008719Y005693D01*
X008797Y005771D01*
X008810Y005763D01*
X008848Y005753D01*
X009036Y005753D01*
X009036Y006052D01*
X009133Y006052D01*
X009133Y006010D02*
X009036Y006010D01*
X009036Y005912D02*
X009133Y005912D01*
X009133Y005813D02*
X009036Y005813D01*
X009197Y005715D02*
X008740Y005715D01*
X008901Y005419D02*
X005708Y005419D01*
X005780Y005518D02*
X009000Y005518D01*
X009098Y005616D02*
X005821Y005616D01*
X005859Y005715D02*
X007666Y005715D01*
X007834Y005715D02*
X008090Y005715D01*
X008415Y006100D02*
X007750Y006100D01*
X007488Y005813D02*
X005859Y005813D01*
X005859Y005912D02*
X007408Y005912D01*
X007367Y006010D02*
X005838Y006010D01*
X005798Y006109D02*
X007362Y006109D01*
X007374Y006207D02*
X005751Y006207D01*
X005652Y006306D02*
X007415Y006306D01*
X006750Y006600D02*
X006531Y006819D01*
X005219Y006819D01*
X004785Y007291D02*
X002250Y007291D01*
X002250Y007265D02*
X002250Y017840D01*
X002455Y017721D01*
X002719Y017651D01*
X002993Y017651D01*
X003258Y017721D01*
X003495Y017858D01*
X003688Y018052D01*
X003825Y018289D01*
X003896Y018554D01*
X003896Y018827D01*
X003825Y019092D01*
X003688Y019329D01*
X003495Y019523D01*
X003404Y019575D01*
X011250Y019575D01*
X011161Y011283D01*
X011002Y011442D01*
X010932Y011512D01*
X010840Y011550D01*
X010620Y011550D01*
X010579Y011592D01*
X010559Y011600D01*
X010579Y011608D01*
X010742Y011771D01*
X010830Y011985D01*
X010830Y012215D01*
X010742Y012429D01*
X010579Y012592D01*
X010365Y012680D01*
X010135Y012680D01*
X009921Y012592D01*
X009758Y012429D01*
X009670Y012215D01*
X009670Y011985D01*
X009758Y011771D01*
X009921Y011608D01*
X009941Y011600D01*
X009921Y011592D01*
X009758Y011429D01*
X009670Y011215D01*
X009670Y010985D01*
X009758Y010771D01*
X009921Y010608D01*
X009941Y010600D01*
X009921Y010592D01*
X009758Y010429D01*
X009670Y010215D01*
X009670Y009985D01*
X009758Y009771D01*
X009921Y009608D01*
X010135Y009520D01*
X010365Y009520D01*
X010579Y009608D01*
X010742Y009771D01*
X010830Y009985D01*
X010830Y010215D01*
X010742Y010429D01*
X010579Y010592D01*
X010559Y010600D01*
X010579Y010608D01*
X010742Y010771D01*
X010807Y010929D01*
X011153Y010583D01*
X011150Y010300D01*
X011436Y010300D01*
X012089Y009648D01*
X012089Y009316D01*
X012212Y009193D01*
X012819Y009193D01*
X012850Y009224D01*
X012881Y009193D01*
X013488Y009193D01*
X013585Y009290D01*
X013995Y009290D01*
X013989Y009284D01*
X013989Y008760D01*
X013938Y008709D01*
X013882Y008573D01*
X013882Y008427D01*
X013920Y008334D01*
X013920Y008315D01*
X013843Y008238D01*
X013843Y007631D01*
X013874Y007600D01*
X013843Y007569D01*
X013843Y007517D01*
X013768Y007486D01*
X013642Y007360D01*
X012882Y007360D01*
X012917Y007395D01*
X012917Y007399D01*
X013249Y007732D01*
X013323Y007732D01*
X013459Y007788D01*
X013562Y007891D01*
X013618Y008027D01*
X013618Y008173D01*
X013574Y008279D01*
X013611Y008316D01*
X013611Y008884D01*
X013488Y009007D01*
X012881Y009007D01*
X012850Y008976D01*
X012819Y009007D01*
X012212Y009007D01*
X012150Y008945D01*
X012088Y009007D01*
X011481Y009007D01*
X011450Y008976D01*
X011419Y009007D01*
X010812Y009007D01*
X010700Y008895D01*
X010588Y009007D01*
X009981Y009007D01*
X009950Y008976D01*
X009919Y009007D01*
X009312Y009007D01*
X009189Y008884D01*
X009189Y008541D01*
X009030Y008382D01*
X008990Y008286D01*
X008990Y007389D01*
X008990Y007488D02*
X002250Y007488D01*
X002250Y007586D02*
X008990Y007586D01*
X008990Y007685D02*
X002250Y007685D01*
X002250Y007783D02*
X008990Y007783D01*
X008990Y007882D02*
X002250Y007882D01*
X002250Y007980D02*
X008990Y007980D01*
X008990Y008079D02*
X007189Y008079D01*
X007156Y008065D02*
X007353Y008146D01*
X007504Y008297D01*
X007575Y008469D01*
X007575Y008255D01*
X007585Y008217D01*
X007605Y008183D01*
X007633Y008155D01*
X007667Y008135D01*
X007705Y008125D01*
X008031Y008125D01*
X008031Y008581D01*
X008069Y008581D01*
X008069Y008619D01*
X008525Y008619D01*
X008525Y008945D01*
X008515Y008983D01*
X008495Y009017D01*
X008467Y009045D01*
X008433Y009065D01*
X008395Y009075D01*
X008069Y009075D01*
X008069Y008619D01*
X008031Y008619D01*
X008031Y009075D01*
X007705Y009075D01*
X007667Y009065D01*
X007633Y009045D01*
X007605Y009017D01*
X007585Y008983D01*
X007575Y008945D01*
X007575Y008731D01*
X007504Y008903D01*
X007353Y009054D01*
X007156Y009135D01*
X006944Y009135D01*
X006747Y009054D01*
X006596Y008903D01*
X006515Y008706D01*
X006515Y008494D01*
X006596Y008297D01*
X006747Y008146D01*
X006944Y008065D01*
X007156Y008065D01*
X006911Y008079D02*
X002250Y008079D01*
X002250Y008177D02*
X006716Y008177D01*
X006618Y008276D02*
X002250Y008276D01*
X002250Y008374D02*
X006565Y008374D01*
X006524Y008473D02*
X002250Y008473D01*
X002250Y008571D02*
X006515Y008571D01*
X006515Y008670D02*
X002250Y008670D01*
X002250Y008768D02*
X006541Y008768D01*
X006581Y008867D02*
X003017Y008867D01*
X003007Y008862D02*
X003176Y008932D01*
X003305Y009062D01*
X003375Y009231D01*
X003375Y009414D01*
X003305Y009583D01*
X003176Y009712D01*
X003167Y009716D01*
X003176Y009720D01*
X003234Y009778D01*
X004582Y009771D01*
X004677Y009732D01*
X004823Y009732D01*
X004959Y009788D01*
X005062Y009891D01*
X005118Y010027D01*
X005118Y010173D01*
X005062Y010309D01*
X004959Y010412D01*
X004823Y010468D01*
X004677Y010468D01*
X004586Y010431D01*
X003238Y010438D01*
X003176Y010500D01*
X003167Y010504D01*
X003176Y010507D01*
X003277Y010608D01*
X006760Y010620D01*
X006818Y010620D01*
X006818Y010620D01*
X006818Y010620D01*
X006871Y010642D01*
X006924Y010664D01*
X006924Y010664D01*
X006925Y010665D01*
X007462Y010665D01*
X007585Y010788D01*
X007585Y010925D01*
X007596Y010897D01*
X007747Y010746D01*
X007944Y010665D01*
X008156Y010665D01*
X008353Y010746D01*
X008504Y010897D01*
X008585Y011094D01*
X008585Y011306D01*
X008504Y011503D01*
X008353Y011654D01*
X008156Y011735D01*
X007944Y011735D01*
X007747Y011654D01*
X007596Y011503D01*
X007585Y011475D01*
X007585Y011612D01*
X007462Y011735D01*
X007340Y011735D01*
X007340Y011940D01*
X007940Y012540D01*
X008507Y012540D01*
X008630Y012663D01*
X008630Y013317D01*
X008507Y013440D01*
X007453Y013440D01*
X007330Y013317D01*
X007330Y012750D01*
X006804Y012224D01*
X006760Y012118D01*
X006760Y011735D01*
X006638Y011735D01*
X006515Y011612D01*
X006515Y011199D01*
X003275Y011188D01*
X003176Y011287D01*
X003007Y011357D01*
X002824Y011357D01*
X002655Y011287D01*
X002525Y011158D01*
X002455Y010989D01*
X002455Y010806D01*
X002525Y010637D01*
X002655Y010507D01*
X002664Y010504D01*
X002655Y010500D01*
X002525Y010370D01*
X002455Y010201D01*
X002455Y010018D01*
X002525Y009849D01*
X002655Y009720D01*
X002664Y009716D01*
X002655Y009712D01*
X002525Y009583D01*
X002455Y009414D01*
X002455Y009231D01*
X002525Y009062D01*
X002655Y008932D01*
X002824Y008862D01*
X003007Y008862D01*
X002814Y008867D02*
X002250Y008867D01*
X002250Y008965D02*
X002622Y008965D01*
X002525Y009064D02*
X002250Y009064D01*
X002250Y009162D02*
X002484Y009162D01*
X002455Y009261D02*
X002250Y009261D01*
X002250Y009359D02*
X002455Y009359D01*
X002473Y009458D02*
X002250Y009458D01*
X002250Y009556D02*
X002514Y009556D01*
X002597Y009655D02*
X002250Y009655D01*
X002250Y009753D02*
X002622Y009753D01*
X002524Y009852D02*
X002250Y009852D01*
X002250Y009950D02*
X002484Y009950D01*
X002455Y010049D02*
X002250Y010049D01*
X002250Y010147D02*
X002455Y010147D01*
X002474Y010246D02*
X002250Y010246D01*
X002250Y010344D02*
X002514Y010344D01*
X002598Y010443D02*
X002250Y010443D01*
X002250Y010541D02*
X002621Y010541D01*
X002524Y010640D02*
X002250Y010640D01*
X002250Y010738D02*
X002483Y010738D01*
X002455Y010837D02*
X002250Y010837D01*
X002250Y010935D02*
X002455Y010935D01*
X002474Y011034D02*
X002250Y011034D01*
X002250Y011132D02*
X002515Y011132D01*
X002598Y011231D02*
X002250Y011231D01*
X002250Y011329D02*
X002756Y011329D01*
X003075Y011329D02*
X006515Y011329D01*
X006515Y011231D02*
X003233Y011231D01*
X003210Y010541D02*
X009871Y010541D01*
X009890Y010640D02*
X006865Y010640D01*
X006925Y010665D02*
X006925Y010665D01*
X007535Y010738D02*
X007767Y010738D01*
X007657Y010837D02*
X007585Y010837D01*
X007585Y011526D02*
X007619Y011526D01*
X007572Y011625D02*
X007718Y011625D01*
X007915Y011723D02*
X007474Y011723D01*
X007340Y011822D02*
X009738Y011822D01*
X009697Y011920D02*
X007340Y011920D01*
X007419Y012019D02*
X009670Y012019D01*
X009670Y012117D02*
X007517Y012117D01*
X007616Y012216D02*
X009670Y012216D01*
X009711Y012314D02*
X007714Y012314D01*
X007813Y012413D02*
X009752Y012413D01*
X009841Y012511D02*
X007911Y012511D01*
X007330Y012807D02*
X005773Y012807D01*
X005773Y012889D02*
X005773Y012610D01*
X005700Y012340D01*
X005561Y012099D01*
X005363Y011901D01*
X005122Y011762D01*
X004852Y011690D01*
X004573Y011690D01*
X004303Y011762D01*
X004062Y011901D01*
X003864Y012099D01*
X003725Y012340D01*
X003653Y012610D01*
X003653Y012889D01*
X003674Y012968D01*
X003385Y013134D01*
X003345Y013151D01*
X003329Y013167D01*
X003310Y013178D01*
X003283Y013213D01*
X003252Y013244D01*
X003243Y013264D01*
X003230Y013282D01*
X003218Y013324D01*
X003201Y013365D01*
X003201Y013387D01*
X003196Y013409D01*
X003201Y013452D01*
X003201Y013591D01*
X003122Y013612D01*
X002881Y013752D01*
X002683Y013949D01*
X002544Y014191D01*
X002471Y014460D01*
X002471Y014740D01*
X002544Y015009D01*
X002683Y015251D01*
X002881Y015448D01*
X003122Y015588D01*
X003392Y015660D01*
X003671Y015660D01*
X003941Y015588D01*
X004182Y015448D01*
X004380Y015251D01*
X004519Y015009D01*
X004591Y014740D01*
X004591Y014460D01*
X004519Y014191D01*
X004380Y013949D01*
X004182Y013752D01*
X003941Y013612D01*
X003897Y013601D01*
X004003Y013539D01*
X004062Y013598D01*
X004303Y013737D01*
X004573Y013810D01*
X004852Y013810D01*
X005122Y013737D01*
X005363Y013598D01*
X005561Y013400D01*
X005700Y013159D01*
X005773Y012889D01*
X005768Y012905D02*
X007330Y012905D01*
X007330Y013004D02*
X005742Y013004D01*
X005716Y013102D02*
X007330Y013102D01*
X007330Y013201D02*
X005676Y013201D01*
X005619Y013299D02*
X007330Y013299D01*
X007411Y013398D02*
X005563Y013398D01*
X005465Y013496D02*
X009837Y013496D01*
X009837Y013398D02*
X008549Y013398D01*
X008630Y013299D02*
X009837Y013299D01*
X009837Y013201D02*
X008630Y013201D01*
X008630Y013102D02*
X009865Y013102D01*
X009867Y013099D02*
X009895Y013071D01*
X009929Y013052D01*
X009967Y013041D01*
X010370Y013041D01*
X010370Y013850D01*
X009837Y013850D01*
X009837Y013172D01*
X009847Y013133D01*
X009867Y013099D01*
X009837Y013595D02*
X008555Y013595D01*
X008560Y013602D02*
X008570Y013640D01*
X008570Y013850D01*
X008030Y013850D01*
X008030Y013950D01*
X007930Y013950D01*
X007930Y014290D01*
X007520Y014290D01*
X007482Y014280D01*
X007448Y014260D01*
X007420Y014232D01*
X007400Y014198D01*
X007390Y014160D01*
X007390Y013950D01*
X007930Y013950D01*
X007930Y013850D01*
X008030Y013850D01*
X008030Y013510D01*
X008440Y013510D01*
X008478Y013520D01*
X008512Y013540D01*
X008540Y013568D01*
X008560Y013602D01*
X008570Y013693D02*
X009837Y013693D01*
X009837Y013792D02*
X008570Y013792D01*
X008570Y013950D02*
X008570Y014160D01*
X008560Y014198D01*
X008540Y014232D01*
X008512Y014260D01*
X008478Y014280D01*
X008440Y014290D01*
X008030Y014290D01*
X008030Y013950D01*
X008570Y013950D01*
X008570Y013989D02*
X009837Y013989D01*
X009837Y013950D02*
X010370Y013950D01*
X010370Y013850D01*
X010470Y013850D01*
X010470Y013041D01*
X010873Y013041D01*
X010911Y013052D01*
X010945Y013071D01*
X010973Y013099D01*
X010993Y013133D01*
X011003Y013172D01*
X011003Y013850D01*
X010470Y013850D01*
X010470Y013950D01*
X010370Y013950D01*
X010370Y014759D01*
X009967Y014759D01*
X009929Y014748D01*
X009895Y014729D01*
X009867Y014701D01*
X009847Y014667D01*
X009837Y014628D01*
X009837Y013950D01*
X009837Y014087D02*
X008570Y014087D01*
X008563Y014186D02*
X009837Y014186D01*
X009837Y014284D02*
X008462Y014284D01*
X008507Y014360D02*
X008630Y014483D01*
X008630Y015137D01*
X008507Y015260D01*
X007453Y015260D01*
X007330Y015137D01*
X007330Y014960D01*
X006895Y014960D01*
X006881Y015009D01*
X006742Y015251D01*
X006545Y015448D01*
X006303Y015588D01*
X006033Y015660D01*
X005754Y015660D01*
X005485Y015588D01*
X005243Y015448D01*
X005045Y015251D01*
X004906Y015009D01*
X004834Y014740D01*
X004834Y014460D01*
X004906Y014191D01*
X005045Y013949D01*
X005243Y013752D01*
X005485Y013612D01*
X005754Y013540D01*
X006033Y013540D01*
X006303Y013612D01*
X006545Y013752D01*
X006742Y013949D01*
X006881Y014191D01*
X006948Y014440D01*
X007373Y014440D01*
X007453Y014360D01*
X008507Y014360D01*
X008530Y014383D02*
X009837Y014383D01*
X009837Y014481D02*
X008628Y014481D01*
X008630Y014580D02*
X009837Y014580D01*
X009854Y014678D02*
X008630Y014678D01*
X008630Y014777D02*
X011198Y014777D01*
X011199Y014875D02*
X008630Y014875D01*
X008630Y014974D02*
X011200Y014974D01*
X011201Y015072D02*
X008630Y015072D01*
X008596Y015171D02*
X011202Y015171D01*
X011203Y015269D02*
X006724Y015269D01*
X006788Y015171D02*
X007364Y015171D01*
X007330Y015072D02*
X006845Y015072D01*
X006891Y014974D02*
X007330Y014974D01*
X006850Y014700D02*
X006250Y014600D01*
X005894Y014600D01*
X005105Y013890D02*
X004321Y013890D01*
X004402Y013989D02*
X005023Y013989D01*
X004966Y014087D02*
X004459Y014087D01*
X004516Y014186D02*
X004909Y014186D01*
X004881Y014284D02*
X004544Y014284D01*
X004571Y014383D02*
X004855Y014383D01*
X004834Y014481D02*
X004591Y014481D01*
X004591Y014580D02*
X004834Y014580D01*
X004834Y014678D02*
X004591Y014678D01*
X004582Y014777D02*
X004844Y014777D01*
X004870Y014875D02*
X004555Y014875D01*
X004529Y014974D02*
X004896Y014974D01*
X004942Y015072D02*
X004483Y015072D01*
X004426Y015171D02*
X004999Y015171D01*
X005064Y015269D02*
X004362Y015269D01*
X004263Y015368D02*
X005162Y015368D01*
X005274Y015466D02*
X004151Y015466D01*
X003981Y015565D02*
X005444Y015565D01*
X006343Y015565D02*
X011207Y015565D01*
X011208Y015663D02*
X002250Y015663D01*
X002250Y015565D02*
X003082Y015565D01*
X002912Y015466D02*
X002250Y015466D01*
X002250Y015368D02*
X002800Y015368D01*
X002701Y015269D02*
X002250Y015269D01*
X002250Y015171D02*
X002637Y015171D01*
X002580Y015072D02*
X002250Y015072D01*
X002250Y014974D02*
X002534Y014974D01*
X002508Y014875D02*
X002250Y014875D01*
X002250Y014777D02*
X002481Y014777D01*
X002471Y014678D02*
X002250Y014678D01*
X002250Y014580D02*
X002471Y014580D01*
X002471Y014481D02*
X002250Y014481D01*
X002250Y014383D02*
X002492Y014383D01*
X002519Y014284D02*
X002250Y014284D01*
X002250Y014186D02*
X002547Y014186D01*
X002604Y014087D02*
X002250Y014087D01*
X002250Y013989D02*
X002661Y013989D01*
X002742Y013890D02*
X002250Y013890D01*
X002250Y013792D02*
X002841Y013792D01*
X002982Y013693D02*
X002250Y013693D01*
X002250Y013595D02*
X003188Y013595D01*
X003201Y013496D02*
X002250Y013496D01*
X002250Y013398D02*
X003199Y013398D01*
X003225Y013299D02*
X002250Y013299D01*
X002250Y013201D02*
X003292Y013201D01*
X003441Y013102D02*
X002250Y013102D01*
X002250Y013004D02*
X003612Y013004D01*
X003657Y012905D02*
X002250Y012905D01*
X002250Y012807D02*
X003653Y012807D01*
X003653Y012708D02*
X002250Y012708D01*
X002250Y012610D02*
X003653Y012610D01*
X003679Y012511D02*
X002250Y012511D01*
X002250Y012413D02*
X003706Y012413D01*
X003740Y012314D02*
X002250Y012314D01*
X002250Y012216D02*
X003797Y012216D01*
X003854Y012117D02*
X002250Y012117D01*
X002250Y012019D02*
X003945Y012019D01*
X004043Y011920D02*
X002250Y011920D01*
X002250Y011822D02*
X004200Y011822D01*
X004448Y011723D02*
X002250Y011723D01*
X002250Y011625D02*
X006528Y011625D01*
X006515Y011526D02*
X002250Y011526D01*
X002250Y011428D02*
X006515Y011428D01*
X006626Y011723D02*
X004977Y011723D01*
X005225Y011822D02*
X006760Y011822D01*
X006760Y011920D02*
X005382Y011920D01*
X005481Y012019D02*
X006760Y012019D01*
X006760Y012117D02*
X005571Y012117D01*
X005628Y012216D02*
X006801Y012216D01*
X006894Y012314D02*
X005685Y012314D01*
X005720Y012413D02*
X006992Y012413D01*
X007091Y012511D02*
X005746Y012511D01*
X005772Y012610D02*
X007189Y012610D01*
X007288Y012708D02*
X005773Y012708D01*
X005551Y013595D02*
X005367Y013595D01*
X005345Y013693D02*
X005199Y013693D01*
X005203Y013792D02*
X004920Y013792D01*
X004506Y013792D02*
X004222Y013792D01*
X004227Y013693D02*
X004081Y013693D01*
X004058Y013595D02*
X003908Y013595D01*
X006237Y013595D02*
X007405Y013595D01*
X007400Y013602D02*
X007420Y013568D01*
X007448Y013540D01*
X007482Y013520D01*
X007520Y013510D01*
X007930Y013510D01*
X007930Y013850D01*
X007390Y013850D01*
X007390Y013640D01*
X007400Y013602D01*
X007390Y013693D02*
X006443Y013693D01*
X006584Y013792D02*
X007390Y013792D01*
X007390Y013989D02*
X006765Y013989D01*
X006822Y014087D02*
X007390Y014087D01*
X007397Y014186D02*
X006878Y014186D01*
X006906Y014284D02*
X007498Y014284D01*
X007430Y014383D02*
X006933Y014383D01*
X006850Y014700D02*
X007870Y014700D01*
X007980Y014810D01*
X007930Y014284D02*
X008030Y014284D01*
X008030Y014186D02*
X007930Y014186D01*
X007930Y014087D02*
X008030Y014087D01*
X008030Y013989D02*
X007930Y013989D01*
X007930Y013890D02*
X006683Y013890D01*
X007930Y013792D02*
X008030Y013792D01*
X008030Y013890D02*
X010370Y013890D01*
X010370Y013792D02*
X010470Y013792D01*
X010470Y013890D02*
X011189Y013890D01*
X011188Y013792D02*
X011003Y013792D01*
X011003Y013693D02*
X011186Y013693D01*
X011185Y013595D02*
X011003Y013595D01*
X011003Y013496D02*
X011184Y013496D01*
X011183Y013398D02*
X011003Y013398D01*
X011003Y013299D02*
X011182Y013299D01*
X011181Y013201D02*
X011003Y013201D01*
X010975Y013102D02*
X011180Y013102D01*
X011179Y013004D02*
X008630Y013004D01*
X008630Y012905D02*
X011178Y012905D01*
X011177Y012807D02*
X008630Y012807D01*
X008630Y012708D02*
X011176Y012708D01*
X011175Y012610D02*
X010535Y012610D01*
X010659Y012511D02*
X011174Y012511D01*
X011173Y012413D02*
X010748Y012413D01*
X010789Y012314D02*
X011172Y012314D01*
X011171Y012216D02*
X010830Y012216D01*
X010830Y012117D02*
X011170Y012117D01*
X011168Y012019D02*
X010830Y012019D01*
X010803Y011920D02*
X011167Y011920D01*
X011166Y011822D02*
X010762Y011822D01*
X010693Y011723D02*
X011165Y011723D01*
X011164Y011625D02*
X010595Y011625D01*
X010898Y011526D02*
X011163Y011526D01*
X011162Y011428D02*
X011016Y011428D01*
X011115Y011329D02*
X011161Y011329D01*
X010900Y010837D02*
X010769Y010837D01*
X010708Y010738D02*
X010998Y010738D01*
X011097Y010640D02*
X010610Y010640D01*
X010629Y010541D02*
X011153Y010541D01*
X011152Y010443D02*
X010728Y010443D01*
X010777Y010344D02*
X011150Y010344D01*
X010818Y010246D02*
X011491Y010246D01*
X011589Y010147D02*
X010830Y010147D01*
X010830Y010049D02*
X011688Y010049D01*
X011786Y009950D02*
X010816Y009950D01*
X010775Y009852D02*
X011885Y009852D01*
X011983Y009753D02*
X010723Y009753D01*
X010625Y009655D02*
X012082Y009655D01*
X012089Y009556D02*
X010452Y009556D01*
X010048Y009556D02*
X003317Y009556D01*
X003357Y009458D02*
X012089Y009458D01*
X012089Y009359D02*
X003375Y009359D01*
X003375Y009261D02*
X012144Y009261D01*
X012130Y008965D02*
X012170Y008965D01*
X012515Y008600D02*
X011750Y008600D01*
X011250Y008100D01*
X011250Y007100D01*
X011750Y006600D01*
X012274Y006600D01*
X012274Y006100D02*
X013050Y006100D01*
X013350Y006400D01*
X013750Y007100D02*
X012274Y007100D01*
X012274Y007600D02*
X012750Y007600D01*
X013250Y008100D01*
X013185Y008165D01*
X013185Y008600D01*
X013611Y008571D02*
X013882Y008571D01*
X013882Y008473D02*
X013611Y008473D01*
X013611Y008374D02*
X013903Y008374D01*
X013881Y008276D02*
X013576Y008276D01*
X013617Y008177D02*
X013843Y008177D01*
X013843Y008079D02*
X013618Y008079D01*
X013599Y007980D02*
X013843Y007980D01*
X013843Y007882D02*
X013553Y007882D01*
X013447Y007783D02*
X013843Y007783D01*
X013843Y007685D02*
X013202Y007685D01*
X013104Y007586D02*
X013860Y007586D01*
X013772Y007488D02*
X013005Y007488D01*
X012911Y007389D02*
X013671Y007389D01*
X013915Y007265D02*
X013750Y007100D01*
X013915Y007265D02*
X014250Y007265D01*
X015250Y007265D01*
X015657Y007291D02*
X017190Y007291D01*
X017190Y007389D02*
X015657Y007389D01*
X015657Y007488D02*
X017190Y007488D01*
X017190Y007586D02*
X015640Y007586D01*
X015593Y007685D02*
X017190Y007685D01*
X017190Y007783D02*
X015597Y007783D01*
X015597Y007882D02*
X017190Y007882D01*
X017190Y007980D02*
X015298Y007980D01*
X015202Y007980D02*
X014657Y007980D01*
X014657Y007882D02*
X014903Y007882D01*
X014903Y007783D02*
X014657Y007783D01*
X014657Y007685D02*
X014907Y007685D01*
X014860Y007586D02*
X014640Y007586D01*
X014657Y008079D02*
X014903Y008079D01*
X014905Y008177D02*
X014657Y008177D01*
X014619Y008276D02*
X014969Y008276D01*
X015202Y008276D02*
X015298Y008276D01*
X015298Y008177D02*
X015202Y008177D01*
X015202Y008079D02*
X015298Y008079D01*
X015531Y008276D02*
X016235Y008276D01*
X016194Y008374D02*
X014597Y008374D01*
X014618Y008473D02*
X016153Y008473D01*
X016150Y008571D02*
X014658Y008571D01*
X014415Y008665D02*
X014250Y008500D01*
X014415Y008665D02*
X014415Y009000D01*
X013989Y008965D02*
X013530Y008965D01*
X013611Y008867D02*
X013989Y008867D01*
X013989Y008768D02*
X013611Y008768D01*
X013611Y008670D02*
X013921Y008670D01*
X013989Y009064D02*
X008435Y009064D01*
X008520Y008965D02*
X009270Y008965D01*
X009189Y008867D02*
X008525Y008867D01*
X008525Y008768D02*
X009189Y008768D01*
X009189Y008670D02*
X008525Y008670D01*
X008525Y008581D02*
X008069Y008581D01*
X008069Y008125D01*
X008395Y008125D01*
X008433Y008135D01*
X008467Y008155D01*
X008495Y008183D01*
X008515Y008217D01*
X008525Y008255D01*
X008525Y008581D01*
X008525Y008571D02*
X009189Y008571D01*
X009120Y008473D02*
X008525Y008473D01*
X008525Y008374D02*
X009026Y008374D01*
X008990Y008276D02*
X008525Y008276D01*
X008489Y008177D02*
X008990Y008177D01*
X009510Y007882D02*
X009660Y007882D01*
X009250Y007600D02*
X010226Y007600D01*
X010226Y007100D01*
X010226Y006600D02*
X006750Y006600D01*
X006578Y006404D02*
X005709Y006404D01*
X005780Y006503D02*
X006480Y006503D01*
X007103Y005321D02*
X005610Y005321D01*
X005478Y005222D02*
X007004Y005222D01*
X006906Y005124D02*
X005576Y005124D01*
X005629Y005025D02*
X006807Y005025D01*
X006709Y004927D02*
X005665Y004927D01*
X005665Y004828D02*
X006610Y004828D01*
X006522Y004730D02*
X005652Y004730D01*
X005611Y004631D02*
X006490Y004631D01*
X006490Y004533D02*
X005532Y004533D01*
X005519Y004434D02*
X006490Y004434D01*
X006490Y004336D02*
X005654Y004336D01*
X005752Y004237D02*
X006490Y004237D01*
X006490Y004139D02*
X005798Y004139D01*
X005839Y004040D02*
X006490Y004040D01*
X006490Y003942D02*
X005859Y003942D01*
X005859Y003843D02*
X006490Y003843D01*
X006490Y003745D02*
X005859Y003745D01*
X005820Y003646D02*
X006490Y003646D01*
X006490Y003548D02*
X005779Y003548D01*
X005707Y003449D02*
X006490Y003449D01*
X006490Y003351D02*
X005655Y003351D01*
X005753Y003252D02*
X006490Y003252D01*
X006436Y003154D02*
X005799Y003154D01*
X005779Y002563D02*
X007170Y002563D01*
X007170Y002661D02*
X006679Y002661D01*
X006777Y002760D02*
X007188Y002760D01*
X007229Y002858D02*
X006876Y002858D01*
X006972Y002957D02*
X007286Y002957D01*
X007385Y003055D02*
X007010Y003055D01*
X007010Y003154D02*
X007571Y003154D01*
X007929Y003154D02*
X008571Y003154D01*
X008385Y003055D02*
X008115Y003055D01*
X008214Y002957D02*
X008286Y002957D01*
X008750Y002600D02*
X010226Y004076D01*
X010226Y004600D01*
X010226Y005100D01*
X010226Y005600D02*
X009450Y005600D01*
X008950Y005100D01*
X007250Y005100D01*
X006750Y004600D01*
X006750Y003100D01*
X006531Y002881D01*
X005219Y002881D01*
X004617Y002661D02*
X003642Y002661D01*
X003628Y002629D02*
X003696Y002793D01*
X003696Y002970D01*
X003628Y003134D01*
X003503Y003260D01*
X003339Y003328D01*
X003161Y003328D01*
X002997Y003260D01*
X002872Y003134D01*
X002804Y002970D01*
X002804Y002793D01*
X002872Y002629D01*
X002997Y002503D01*
X003161Y002435D01*
X003339Y002435D01*
X003503Y002503D01*
X003628Y002629D01*
X003562Y002563D02*
X004658Y002563D01*
X004731Y002464D02*
X003408Y002464D01*
X003092Y002464D02*
X002424Y002464D01*
X002355Y002435D02*
X002519Y002503D01*
X002644Y002629D01*
X002712Y002793D01*
X002712Y002970D01*
X002644Y003134D01*
X002519Y003260D01*
X002355Y003328D01*
X002250Y003328D01*
X002250Y006372D01*
X002355Y006372D01*
X002519Y006440D01*
X002644Y006566D01*
X002712Y006730D01*
X002712Y006907D01*
X002644Y007071D01*
X002519Y007197D01*
X002355Y007265D01*
X002250Y007265D01*
X002250Y007389D02*
X004923Y007389D01*
X004687Y007192D02*
X003508Y007192D01*
X003503Y007197D02*
X003339Y007265D01*
X003161Y007265D01*
X002997Y007197D01*
X002872Y007071D01*
X002804Y006907D01*
X002804Y006730D01*
X002872Y006566D01*
X002997Y006440D01*
X003161Y006372D01*
X003339Y006372D01*
X003503Y006440D01*
X003628Y006566D01*
X003696Y006730D01*
X003696Y006907D01*
X003628Y007071D01*
X003503Y007197D01*
X003606Y007094D02*
X004640Y007094D01*
X004599Y006995D02*
X003660Y006995D01*
X003696Y006897D02*
X004579Y006897D01*
X004579Y006798D02*
X003696Y006798D01*
X003684Y006700D02*
X004579Y006700D01*
X004616Y006601D02*
X003643Y006601D01*
X003565Y006503D02*
X004657Y006503D01*
X004728Y006404D02*
X003415Y006404D01*
X003085Y006404D02*
X002431Y006404D01*
X002581Y006503D02*
X002935Y006503D01*
X002857Y006601D02*
X002659Y006601D01*
X002699Y006700D02*
X002816Y006700D01*
X002804Y006798D02*
X002712Y006798D01*
X002712Y006897D02*
X002804Y006897D01*
X002840Y006995D02*
X002676Y006995D01*
X002622Y007094D02*
X002894Y007094D01*
X002992Y007192D02*
X002523Y007192D01*
X002250Y006306D02*
X004785Y006306D01*
X004686Y006207D02*
X002250Y006207D01*
X002250Y006109D02*
X004639Y006109D01*
X004599Y006010D02*
X002250Y006010D01*
X002250Y005912D02*
X004579Y005912D01*
X004579Y005813D02*
X002250Y005813D01*
X002250Y005715D02*
X004579Y005715D01*
X004616Y005616D02*
X002250Y005616D01*
X002250Y005518D02*
X004657Y005518D01*
X004729Y005419D02*
X003549Y005419D01*
X003613Y005393D02*
X003377Y005490D01*
X003123Y005490D01*
X002887Y005393D01*
X002707Y005213D01*
X002610Y004977D01*
X002610Y004723D01*
X002707Y004487D01*
X002887Y004307D01*
X003123Y004210D01*
X003377Y004210D01*
X003613Y004307D01*
X003793Y004487D01*
X003890Y004723D01*
X003890Y004977D01*
X003793Y005213D01*
X003613Y005393D01*
X003685Y005321D02*
X004827Y005321D01*
X004959Y005222D02*
X003783Y005222D01*
X003829Y005124D02*
X004861Y005124D01*
X004808Y005025D02*
X003870Y005025D01*
X003890Y004927D02*
X004772Y004927D01*
X004772Y004828D02*
X003890Y004828D01*
X003890Y004730D02*
X004785Y004730D01*
X004826Y004631D02*
X003852Y004631D01*
X003811Y004533D02*
X004905Y004533D01*
X004918Y004434D02*
X003739Y004434D01*
X003641Y004336D02*
X004783Y004336D01*
X004685Y004237D02*
X003443Y004237D01*
X003057Y004237D02*
X002250Y004237D01*
X002250Y004139D02*
X004639Y004139D01*
X004598Y004040D02*
X002250Y004040D01*
X002250Y003942D02*
X004579Y003942D01*
X004579Y003843D02*
X002250Y003843D01*
X002250Y003745D02*
X004579Y003745D01*
X004617Y003646D02*
X002250Y003646D01*
X002250Y003548D02*
X004658Y003548D01*
X004730Y003449D02*
X002250Y003449D01*
X002250Y003351D02*
X004782Y003351D01*
X004684Y003252D02*
X003511Y003252D01*
X003609Y003154D02*
X004638Y003154D01*
X004598Y003055D02*
X003661Y003055D01*
X003696Y002957D02*
X004579Y002957D01*
X004579Y002858D02*
X003696Y002858D01*
X003682Y002760D02*
X004579Y002760D01*
X004829Y002366D02*
X002250Y002366D01*
X002250Y002435D02*
X002250Y002057D01*
X002455Y002175D01*
X002719Y002246D01*
X002993Y002246D01*
X003258Y002175D01*
X003495Y002038D01*
X003688Y001845D01*
X003825Y001608D01*
X003896Y001343D01*
X003896Y001069D01*
X003825Y000805D01*
X003707Y000600D01*
X006281Y000600D01*
X006240Y000699D01*
X006240Y001501D01*
X006318Y001689D01*
X006461Y001832D01*
X006649Y001910D01*
X006851Y001910D01*
X007039Y001832D01*
X007182Y001689D01*
X007250Y001526D01*
X007318Y001689D01*
X007461Y001832D01*
X007649Y001910D01*
X007851Y001910D01*
X008039Y001832D01*
X008182Y001689D01*
X008260Y001501D01*
X008260Y000699D01*
X008219Y000600D01*
X008347Y000600D01*
X008333Y000627D01*
X008311Y000695D01*
X008300Y000765D01*
X008300Y001050D01*
X008700Y001050D01*
X008700Y001150D01*
X008700Y001848D01*
X008645Y001839D01*
X008577Y001817D01*
X008514Y001785D01*
X008457Y001743D01*
X008407Y001693D01*
X008365Y001636D01*
X008333Y001573D01*
X008311Y001505D01*
X008300Y001435D01*
X008300Y001150D01*
X008700Y001150D01*
X008800Y001150D01*
X008800Y001848D01*
X008855Y001839D01*
X008923Y001817D01*
X008986Y001785D01*
X009043Y001743D01*
X009093Y001693D01*
X009135Y001636D01*
X009167Y001573D01*
X009189Y001505D01*
X009200Y001435D01*
X009200Y001150D01*
X008800Y001150D01*
X008800Y001050D01*
X009200Y001050D01*
X009200Y000765D01*
X009189Y000695D01*
X009167Y000627D01*
X009153Y000600D01*
X019464Y000600D01*
X019422Y000643D01*
X019285Y000880D01*
X019214Y001144D01*
X019214Y001418D01*
X019285Y001682D01*
X019422Y001920D01*
X019615Y002113D01*
X019853Y002250D01*
X020117Y002321D01*
X020391Y002321D01*
X020655Y002250D01*
X020892Y002113D01*
X021086Y001920D01*
X021223Y001682D01*
X021225Y001675D01*
X021225Y003021D01*
X021150Y010300D01*
X017937Y010300D01*
X017950Y010287D01*
X018000Y010166D01*
X018000Y010034D01*
X017950Y009913D01*
X017920Y009883D01*
X017920Y007324D01*
X018737Y006507D01*
X019138Y006507D01*
X019261Y006384D01*
X019261Y006360D01*
X019593Y006360D01*
X019593Y006488D01*
X019716Y006611D01*
X020284Y006611D01*
X020407Y006488D01*
X020407Y005881D01*
X020376Y005850D01*
X020407Y005819D01*
X020407Y005212D01*
X020320Y005125D01*
X020320Y004937D01*
X020367Y004890D01*
X020367Y004401D01*
X020274Y004308D01*
X020278Y004304D01*
X020297Y004270D01*
X020307Y004232D01*
X020307Y004083D01*
X020029Y004083D01*
X020029Y004026D01*
X020307Y004026D01*
X020307Y003877D01*
X020297Y003839D01*
X020278Y003805D01*
X020250Y003777D01*
X020215Y003757D01*
X020177Y003747D01*
X020029Y003747D01*
X020029Y004026D01*
X019971Y004026D01*
X019693Y004026D01*
X019693Y003877D01*
X019703Y003839D01*
X019722Y003805D01*
X019750Y003777D01*
X019785Y003757D01*
X019823Y003747D01*
X019971Y003747D01*
X019971Y004026D01*
X019971Y004083D01*
X019693Y004083D01*
X019693Y004232D01*
X019703Y004270D01*
X019722Y004304D01*
X019726Y004308D01*
X019633Y004401D01*
X019633Y004890D01*
X019756Y005013D01*
X019820Y005013D01*
X019820Y005089D01*
X019716Y005089D01*
X019593Y005212D01*
X019593Y005819D01*
X019614Y005840D01*
X019261Y005840D01*
X019261Y005816D01*
X019138Y005693D01*
X018531Y005693D01*
X018500Y005724D01*
X018469Y005693D01*
X017862Y005693D01*
X017739Y005816D01*
X017739Y006159D01*
X017739Y006010D02*
X017208Y006010D01*
X017306Y005912D02*
X017739Y005912D01*
X017742Y005813D02*
X017405Y005813D01*
X017503Y005715D02*
X017840Y005715D01*
X017700Y005518D02*
X019593Y005518D01*
X019593Y005616D02*
X017602Y005616D01*
X017799Y005419D02*
X019593Y005419D01*
X019593Y005321D02*
X017897Y005321D01*
X017996Y005222D02*
X019593Y005222D01*
X019681Y005124D02*
X018094Y005124D01*
X018193Y005025D02*
X019820Y005025D01*
X019669Y004927D02*
X019424Y004927D01*
X019543Y004828D02*
X019633Y004828D01*
X019633Y004730D02*
X019595Y004730D01*
X019618Y004631D02*
X019633Y004631D01*
X019633Y004533D02*
X019618Y004533D01*
X019633Y004434D02*
X019580Y004434D01*
X019507Y004336D02*
X019698Y004336D01*
X019694Y004237D02*
X019336Y004237D01*
X019693Y004139D02*
X018425Y004139D01*
X018486Y004040D02*
X019971Y004040D01*
X020029Y004040D02*
X021215Y004040D01*
X021216Y003942D02*
X020307Y003942D01*
X020298Y003843D02*
X021217Y003843D01*
X021218Y003745D02*
X019201Y003745D01*
X019201Y003843D02*
X019702Y003843D01*
X019693Y003942D02*
X019169Y003942D01*
X018883Y003942D02*
X018786Y003942D01*
X018786Y003843D02*
X018883Y003843D01*
X018883Y003745D02*
X018786Y003745D01*
X018883Y003646D02*
X021219Y003646D01*
X021220Y003548D02*
X019201Y003548D01*
X019201Y003449D02*
X021221Y003449D01*
X021222Y003351D02*
X019161Y003351D01*
X018883Y003351D02*
X018786Y003351D01*
X018786Y003449D02*
X018883Y003449D01*
X018883Y003548D02*
X018786Y003548D01*
X018478Y003252D02*
X021223Y003252D01*
X021224Y003154D02*
X017671Y003154D01*
X017770Y003252D02*
X017853Y003252D01*
X017573Y003055D02*
X021225Y003055D01*
X021225Y002957D02*
X017474Y002957D01*
X017376Y002858D02*
X021225Y002858D01*
X021225Y002760D02*
X017277Y002760D01*
X017285Y002661D02*
X021225Y002661D01*
X021225Y002563D02*
X017285Y002563D01*
X017273Y002464D02*
X021225Y002464D01*
X021225Y002366D02*
X017232Y002366D01*
X017174Y002267D02*
X019915Y002267D01*
X019711Y002169D02*
X017075Y002169D01*
X017227Y002070D02*
X019572Y002070D01*
X019474Y001972D02*
X017285Y001972D01*
X017285Y001873D02*
X019395Y001873D01*
X019338Y001775D02*
X017285Y001775D01*
X017285Y001676D02*
X019283Y001676D01*
X019257Y001578D02*
X017285Y001578D01*
X017285Y001479D02*
X019230Y001479D01*
X019214Y001381D02*
X017285Y001381D01*
X017285Y001282D02*
X019214Y001282D01*
X019214Y001184D02*
X017280Y001184D01*
X017182Y001085D02*
X019230Y001085D01*
X019256Y000987D02*
X009200Y000987D01*
X009200Y000888D02*
X019283Y000888D01*
X019337Y000790D02*
X009200Y000790D01*
X009188Y000691D02*
X019394Y000691D01*
X020797Y002169D02*
X021225Y002169D01*
X021225Y002267D02*
X020592Y002267D01*
X020936Y002070D02*
X021225Y002070D01*
X021225Y001972D02*
X021034Y001972D01*
X021113Y001873D02*
X021225Y001873D01*
X021225Y001775D02*
X021170Y001775D01*
X021225Y001676D02*
X021225Y001676D01*
X020029Y003843D02*
X019971Y003843D01*
X019971Y003942D02*
X020029Y003942D01*
X020307Y004139D02*
X021214Y004139D01*
X021213Y004237D02*
X020306Y004237D01*
X020302Y004336D02*
X021211Y004336D01*
X021210Y004434D02*
X020367Y004434D01*
X020367Y004533D02*
X021209Y004533D01*
X021208Y004631D02*
X020367Y004631D01*
X020367Y004730D02*
X021207Y004730D01*
X021206Y004828D02*
X020367Y004828D01*
X020331Y004927D02*
X021205Y004927D01*
X021204Y005025D02*
X020320Y005025D01*
X020320Y005124D02*
X021203Y005124D01*
X021202Y005222D02*
X020407Y005222D01*
X020407Y005321D02*
X021201Y005321D01*
X021200Y005419D02*
X020407Y005419D01*
X020407Y005518D02*
X021199Y005518D01*
X021198Y005616D02*
X020407Y005616D01*
X020407Y005715D02*
X021197Y005715D01*
X021196Y005813D02*
X020407Y005813D01*
X020407Y005912D02*
X021195Y005912D01*
X021194Y006010D02*
X020407Y006010D01*
X020407Y006109D02*
X021193Y006109D01*
X021192Y006207D02*
X020407Y006207D01*
X020407Y006306D02*
X021191Y006306D01*
X021190Y006404D02*
X020407Y006404D01*
X020392Y006503D02*
X021189Y006503D01*
X021188Y006601D02*
X020294Y006601D01*
X020000Y006185D02*
X019915Y006100D01*
X018835Y006100D01*
X019241Y006404D02*
X019593Y006404D01*
X019608Y006503D02*
X019142Y006503D01*
X018643Y006601D02*
X019706Y006601D01*
X019338Y007065D02*
X019215Y007188D01*
X019215Y008012D01*
X019338Y008135D01*
X019475Y008135D01*
X019447Y008146D01*
X019296Y008297D01*
X019215Y008494D01*
X019215Y008706D01*
X019296Y008903D01*
X019447Y009054D01*
X019644Y009135D01*
X019856Y009135D01*
X020053Y009054D01*
X020204Y008903D01*
X020285Y008706D01*
X020285Y008494D01*
X020204Y008297D01*
X020053Y008146D01*
X020025Y008135D01*
X020162Y008135D01*
X020285Y008012D01*
X020285Y007188D01*
X020162Y007065D01*
X019338Y007065D01*
X019309Y007094D02*
X018150Y007094D01*
X018052Y007192D02*
X019215Y007192D01*
X019215Y007291D02*
X017953Y007291D01*
X017920Y007389D02*
X019215Y007389D01*
X019215Y007488D02*
X017920Y007488D01*
X017920Y007586D02*
X019215Y007586D01*
X019215Y007685D02*
X017920Y007685D01*
X017920Y007783D02*
X019215Y007783D01*
X019215Y007882D02*
X017920Y007882D01*
X017920Y007980D02*
X019215Y007980D01*
X019282Y008079D02*
X017920Y008079D01*
X017920Y008177D02*
X019416Y008177D01*
X019318Y008276D02*
X017920Y008276D01*
X017920Y008374D02*
X019265Y008374D01*
X019224Y008473D02*
X017920Y008473D01*
X017920Y008571D02*
X019215Y008571D01*
X019215Y008670D02*
X017920Y008670D01*
X017920Y008768D02*
X019241Y008768D01*
X019281Y008867D02*
X017920Y008867D01*
X017920Y008965D02*
X019358Y008965D01*
X019471Y009064D02*
X017920Y009064D01*
X017920Y009162D02*
X021162Y009162D01*
X021163Y009064D02*
X020029Y009064D01*
X020142Y008965D02*
X021164Y008965D01*
X021165Y008867D02*
X020219Y008867D01*
X020259Y008768D02*
X021166Y008768D01*
X021167Y008670D02*
X020285Y008670D01*
X020285Y008571D02*
X021168Y008571D01*
X021169Y008473D02*
X020276Y008473D01*
X020235Y008374D02*
X021170Y008374D01*
X021171Y008276D02*
X020182Y008276D01*
X020084Y008177D02*
X021172Y008177D01*
X021173Y008079D02*
X020218Y008079D01*
X020285Y007980D02*
X021174Y007980D01*
X021175Y007882D02*
X020285Y007882D01*
X020285Y007783D02*
X021176Y007783D01*
X021177Y007685D02*
X020285Y007685D01*
X020285Y007586D02*
X021178Y007586D01*
X021179Y007488D02*
X020285Y007488D01*
X020285Y007389D02*
X021180Y007389D01*
X021181Y007291D02*
X020285Y007291D01*
X020285Y007192D02*
X021182Y007192D01*
X021183Y007094D02*
X020191Y007094D01*
X021184Y006995D02*
X018249Y006995D01*
X018347Y006897D02*
X021185Y006897D01*
X021186Y006798D02*
X018446Y006798D01*
X018544Y006700D02*
X021187Y006700D01*
X019593Y005813D02*
X019258Y005813D01*
X019160Y005715D02*
X019593Y005715D01*
X018510Y005715D02*
X018490Y005715D01*
X017592Y006306D02*
X016912Y006306D01*
X016750Y006100D02*
X016050Y006100D01*
X015750Y005800D01*
X015285Y005800D01*
X015250Y005765D01*
X015657Y005518D02*
X016965Y005518D01*
X016866Y005616D02*
X015934Y005616D01*
X016032Y005715D02*
X016768Y005715D01*
X016669Y005813D02*
X016131Y005813D01*
X015789Y006207D02*
X015657Y006207D01*
X015657Y006306D02*
X015888Y006306D01*
X015657Y006404D02*
X017494Y006404D01*
X017380Y006503D02*
X015657Y006503D01*
X015657Y006601D02*
X017281Y006601D01*
X017210Y006700D02*
X015657Y006700D01*
X015597Y006798D02*
X017190Y006798D01*
X017190Y006897D02*
X015592Y006897D01*
X015657Y006995D02*
X017190Y006995D01*
X017190Y007094D02*
X015657Y007094D01*
X015657Y007192D02*
X017190Y007192D01*
X017190Y008079D02*
X017059Y008079D01*
X017176Y008177D02*
X017190Y008177D01*
X016441Y008079D02*
X015597Y008079D01*
X015595Y008177D02*
X016324Y008177D01*
X016150Y008670D02*
X015465Y008670D01*
X013989Y009162D02*
X003347Y009162D01*
X003306Y009064D02*
X006771Y009064D01*
X006658Y008965D02*
X003208Y008965D01*
X003234Y009655D02*
X009875Y009655D01*
X009777Y009753D02*
X004875Y009753D01*
X005023Y009852D02*
X009725Y009852D01*
X009684Y009950D02*
X005087Y009950D01*
X005118Y010049D02*
X009670Y010049D01*
X009670Y010147D02*
X005118Y010147D01*
X005089Y010246D02*
X009682Y010246D01*
X009723Y010344D02*
X005027Y010344D01*
X004886Y010443D02*
X009772Y010443D01*
X009792Y010738D02*
X008333Y010738D01*
X008443Y010837D02*
X009731Y010837D01*
X009691Y010935D02*
X008519Y010935D01*
X008560Y011034D02*
X009670Y011034D01*
X009670Y011132D02*
X008585Y011132D01*
X008585Y011231D02*
X009676Y011231D01*
X009717Y011329D02*
X008576Y011329D01*
X008535Y011428D02*
X009758Y011428D01*
X009856Y011526D02*
X008481Y011526D01*
X008382Y011625D02*
X009905Y011625D01*
X009807Y011723D02*
X008185Y011723D01*
X008577Y012610D02*
X009965Y012610D01*
X010370Y013102D02*
X010470Y013102D01*
X010470Y013201D02*
X010370Y013201D01*
X010370Y013299D02*
X010470Y013299D01*
X010470Y013398D02*
X010370Y013398D01*
X010370Y013496D02*
X010470Y013496D01*
X010470Y013595D02*
X010370Y013595D01*
X010370Y013693D02*
X010470Y013693D01*
X010470Y013950D02*
X011003Y013950D01*
X011003Y014628D01*
X010993Y014667D01*
X010973Y014701D01*
X010945Y014729D01*
X010911Y014748D01*
X010873Y014759D01*
X010470Y014759D01*
X010470Y013950D01*
X010470Y013989D02*
X010370Y013989D01*
X010370Y014087D02*
X010470Y014087D01*
X010470Y014186D02*
X010370Y014186D01*
X010370Y014284D02*
X010470Y014284D01*
X010470Y014383D02*
X010370Y014383D01*
X010370Y014481D02*
X010470Y014481D01*
X010470Y014580D02*
X010370Y014580D01*
X010370Y014678D02*
X010470Y014678D01*
X010986Y014678D02*
X011197Y014678D01*
X011196Y014580D02*
X011003Y014580D01*
X011003Y014481D02*
X011195Y014481D01*
X011194Y014383D02*
X011003Y014383D01*
X011003Y014284D02*
X011193Y014284D01*
X011192Y014186D02*
X011003Y014186D01*
X011003Y014087D02*
X011191Y014087D01*
X011190Y013989D02*
X011003Y013989D01*
X011204Y015368D02*
X006625Y015368D01*
X006514Y015466D02*
X011206Y015466D01*
X011209Y015762D02*
X002250Y015762D01*
X002250Y015860D02*
X011210Y015860D01*
X011211Y015959D02*
X002250Y015959D01*
X002250Y016057D02*
X011212Y016057D01*
X011213Y016156D02*
X002250Y016156D01*
X002250Y016254D02*
X011214Y016254D01*
X011215Y016353D02*
X002250Y016353D01*
X002250Y016451D02*
X004354Y016451D01*
X004362Y016443D02*
X004969Y016443D01*
X005047Y016521D01*
X005060Y016513D01*
X005098Y016503D01*
X005286Y016503D01*
X005286Y016802D01*
X005383Y016802D01*
X005383Y016898D01*
X005701Y016898D01*
X005701Y017067D01*
X005691Y017105D01*
X005671Y017139D01*
X005643Y017167D01*
X005609Y017187D01*
X005571Y017197D01*
X005383Y017197D01*
X005383Y016898D01*
X005286Y016898D01*
X005286Y017197D01*
X005098Y017197D01*
X005060Y017187D01*
X005047Y017179D01*
X004969Y017257D01*
X004362Y017257D01*
X004255Y017150D01*
X004107Y017150D01*
X004040Y017217D01*
X003551Y017217D01*
X003500Y017167D01*
X003449Y017217D01*
X002960Y017217D01*
X002921Y017178D01*
X002823Y017218D01*
X002677Y017218D01*
X002541Y017162D01*
X002438Y017059D01*
X002382Y016923D01*
X002382Y016777D01*
X002438Y016641D01*
X002541Y016538D01*
X002677Y016482D01*
X002823Y016482D01*
X002921Y016522D01*
X002960Y016483D01*
X003449Y016483D01*
X003500Y016533D01*
X003551Y016483D01*
X004040Y016483D01*
X004163Y016606D01*
X004163Y016650D01*
X004239Y016650D01*
X004239Y016566D01*
X004362Y016443D01*
X004255Y016550D02*
X004107Y016550D01*
X004163Y016648D02*
X004239Y016648D01*
X004344Y017239D02*
X002250Y017239D01*
X002250Y017141D02*
X002520Y017141D01*
X002431Y017042D02*
X002250Y017042D01*
X002250Y016944D02*
X002390Y016944D01*
X002382Y016845D02*
X002250Y016845D01*
X002250Y016747D02*
X002394Y016747D01*
X002435Y016648D02*
X002250Y016648D01*
X002250Y016550D02*
X002529Y016550D01*
X002750Y016850D02*
X003205Y016850D01*
X003275Y017732D02*
X007500Y017732D01*
X007500Y017830D02*
X006948Y017830D01*
X007039Y017868D02*
X006851Y017790D01*
X006649Y017790D01*
X006461Y017868D01*
X006318Y018011D01*
X006240Y018199D01*
X006240Y019001D01*
X006318Y019189D01*
X006461Y019332D01*
X006649Y019410D01*
X006851Y019410D01*
X007039Y019332D01*
X007182Y019189D01*
X007250Y019026D01*
X007318Y019189D01*
X007461Y019332D01*
X007649Y019410D01*
X007851Y019410D01*
X008039Y019332D01*
X008182Y019189D01*
X008260Y019001D01*
X008260Y018199D01*
X008182Y018011D01*
X008039Y017868D01*
X008000Y017852D01*
X008000Y017624D01*
X008079Y017592D01*
X008242Y017429D01*
X008250Y017409D01*
X008258Y017429D01*
X008421Y017592D01*
X008635Y017680D01*
X008865Y017680D01*
X009079Y017592D01*
X009242Y017429D01*
X009330Y017215D01*
X009330Y016985D01*
X009242Y016771D01*
X009079Y016608D01*
X008865Y016520D01*
X008635Y016520D01*
X008421Y016608D01*
X008258Y016771D01*
X008250Y016791D01*
X008242Y016771D01*
X008079Y016608D01*
X007865Y016520D01*
X007635Y016520D01*
X007421Y016608D01*
X007258Y016771D01*
X007170Y016985D01*
X007170Y017215D01*
X007258Y017429D01*
X007421Y017592D01*
X007500Y017624D01*
X007500Y017852D01*
X007461Y017868D01*
X007318Y018011D01*
X007250Y018174D01*
X007182Y018011D01*
X007039Y017868D01*
X007100Y017929D02*
X007400Y017929D01*
X007311Y018027D02*
X007189Y018027D01*
X007230Y018126D02*
X007270Y018126D01*
X007500Y017633D02*
X002250Y017633D01*
X002250Y017535D02*
X007364Y017535D01*
X007266Y017436D02*
X002250Y017436D01*
X002250Y017338D02*
X007221Y017338D01*
X007180Y017239D02*
X004987Y017239D01*
X005286Y017141D02*
X005383Y017141D01*
X005383Y017042D02*
X005286Y017042D01*
X005286Y016944D02*
X005383Y016944D01*
X005383Y016845D02*
X007228Y016845D01*
X007187Y016944D02*
X005701Y016944D01*
X005701Y017042D02*
X007170Y017042D01*
X007170Y017141D02*
X005670Y017141D01*
X005701Y016802D02*
X005383Y016802D01*
X005383Y016503D01*
X005571Y016503D01*
X005609Y016513D01*
X005643Y016533D01*
X005671Y016561D01*
X005691Y016595D01*
X005701Y016633D01*
X005701Y016802D01*
X005701Y016747D02*
X007283Y016747D01*
X007382Y016648D02*
X005701Y016648D01*
X005660Y016550D02*
X007563Y016550D01*
X007937Y016550D02*
X008563Y016550D01*
X008382Y016648D02*
X008118Y016648D01*
X008217Y016747D02*
X008283Y016747D01*
X008937Y016550D02*
X011217Y016550D01*
X011218Y016648D02*
X009118Y016648D01*
X009217Y016747D02*
X011219Y016747D01*
X011220Y016845D02*
X009272Y016845D01*
X009313Y016944D02*
X011221Y016944D01*
X011222Y017042D02*
X009330Y017042D01*
X009330Y017141D02*
X011224Y017141D01*
X011225Y017239D02*
X009320Y017239D01*
X009279Y017338D02*
X011226Y017338D01*
X011227Y017436D02*
X009234Y017436D01*
X009136Y017535D02*
X011228Y017535D01*
X011229Y017633D02*
X008979Y017633D01*
X008923Y017883D02*
X008986Y017915D01*
X009043Y017957D01*
X009093Y018007D01*
X009135Y018064D01*
X009167Y018127D01*
X009189Y018195D01*
X009200Y018265D01*
X009200Y018550D01*
X008800Y018550D01*
X008800Y018650D01*
X009200Y018650D01*
X009200Y018935D01*
X009189Y019005D01*
X009167Y019073D01*
X009135Y019136D01*
X009093Y019193D01*
X009043Y019243D01*
X008986Y019285D01*
X008923Y019317D01*
X008855Y019339D01*
X008800Y019348D01*
X008800Y018650D01*
X008700Y018650D01*
X008700Y019348D01*
X008645Y019339D01*
X008577Y019317D01*
X008514Y019285D01*
X008457Y019243D01*
X008407Y019193D01*
X008365Y019136D01*
X008333Y019073D01*
X008311Y019005D01*
X008300Y018935D01*
X008300Y018650D01*
X008700Y018650D01*
X008700Y018550D01*
X008800Y018550D01*
X008800Y017852D01*
X008855Y017861D01*
X008923Y017883D01*
X009004Y017929D02*
X011232Y017929D01*
X011233Y018027D02*
X009108Y018027D01*
X009166Y018126D02*
X011234Y018126D01*
X011235Y018224D02*
X009194Y018224D01*
X009200Y018323D02*
X011236Y018323D01*
X011237Y018421D02*
X009200Y018421D01*
X009200Y018520D02*
X011238Y018520D01*
X011239Y018618D02*
X008800Y018618D01*
X008800Y018520D02*
X008700Y018520D01*
X008700Y018550D02*
X008700Y017852D01*
X008645Y017861D01*
X008577Y017883D01*
X008514Y017915D01*
X008457Y017957D01*
X008407Y018007D01*
X008365Y018064D01*
X008333Y018127D01*
X008311Y018195D01*
X008300Y018265D01*
X008300Y018550D01*
X008700Y018550D01*
X008700Y018618D02*
X008260Y018618D01*
X008260Y018520D02*
X008300Y018520D01*
X008300Y018421D02*
X008260Y018421D01*
X008260Y018323D02*
X008300Y018323D01*
X008306Y018224D02*
X008260Y018224D01*
X008230Y018126D02*
X008334Y018126D01*
X008392Y018027D02*
X008189Y018027D01*
X008100Y017929D02*
X008496Y017929D01*
X008700Y017929D02*
X008800Y017929D01*
X008800Y018027D02*
X008700Y018027D01*
X008700Y018126D02*
X008800Y018126D01*
X008800Y018224D02*
X008700Y018224D01*
X008700Y018323D02*
X008800Y018323D01*
X008800Y018421D02*
X008700Y018421D01*
X008700Y018717D02*
X008800Y018717D01*
X008800Y018815D02*
X008700Y018815D01*
X008700Y018914D02*
X008800Y018914D01*
X008800Y019012D02*
X008700Y019012D01*
X008700Y019111D02*
X008800Y019111D01*
X008800Y019209D02*
X008700Y019209D01*
X008700Y019308D02*
X008800Y019308D01*
X008941Y019308D02*
X011247Y019308D01*
X011248Y019406D02*
X007861Y019406D01*
X007639Y019406D02*
X006861Y019406D01*
X006639Y019406D02*
X003611Y019406D01*
X003701Y019308D02*
X006436Y019308D01*
X006338Y019209D02*
X003758Y019209D01*
X003815Y019111D02*
X006285Y019111D01*
X006244Y019012D02*
X003847Y019012D01*
X003873Y018914D02*
X006240Y018914D01*
X006240Y018815D02*
X003896Y018815D01*
X003896Y018717D02*
X006240Y018717D01*
X006240Y018618D02*
X003896Y018618D01*
X003887Y018520D02*
X006240Y018520D01*
X006240Y018421D02*
X003861Y018421D01*
X003834Y018323D02*
X006240Y018323D01*
X006240Y018224D02*
X003788Y018224D01*
X003731Y018126D02*
X006270Y018126D01*
X006311Y018027D02*
X003663Y018027D01*
X003565Y017929D02*
X006400Y017929D01*
X006552Y017830D02*
X003446Y017830D01*
X002438Y017732D02*
X002250Y017732D01*
X002250Y017830D02*
X002267Y017830D01*
X003513Y019505D02*
X011249Y019505D01*
X011246Y019209D02*
X009077Y019209D01*
X009148Y019111D02*
X011245Y019111D01*
X011244Y019012D02*
X009187Y019012D01*
X009200Y018914D02*
X011243Y018914D01*
X011242Y018815D02*
X009200Y018815D01*
X009200Y018717D02*
X011241Y018717D01*
X011231Y017830D02*
X008000Y017830D01*
X008000Y017732D02*
X011230Y017732D01*
X011216Y016451D02*
X004977Y016451D01*
X005286Y016550D02*
X005383Y016550D01*
X005383Y016648D02*
X005286Y016648D01*
X005286Y016747D02*
X005383Y016747D01*
X008000Y017633D02*
X008521Y017633D01*
X008364Y017535D02*
X008136Y017535D01*
X008234Y017436D02*
X008266Y017436D01*
X008260Y018717D02*
X008300Y018717D01*
X008300Y018815D02*
X008260Y018815D01*
X008260Y018914D02*
X008300Y018914D01*
X008313Y019012D02*
X008256Y019012D01*
X008215Y019111D02*
X008352Y019111D01*
X008423Y019209D02*
X008162Y019209D01*
X008064Y019308D02*
X008559Y019308D01*
X007436Y019308D02*
X007064Y019308D01*
X007162Y019209D02*
X007338Y019209D01*
X007285Y019111D02*
X007215Y019111D01*
X007930Y013693D02*
X008030Y013693D01*
X008030Y013595D02*
X007930Y013595D01*
X004614Y010443D02*
X003233Y010443D01*
X003209Y009753D02*
X004625Y009753D01*
X007329Y009064D02*
X007665Y009064D01*
X007580Y008965D02*
X007442Y008965D01*
X007519Y008867D02*
X007575Y008867D01*
X007575Y008768D02*
X007559Y008768D01*
X007535Y008374D02*
X007575Y008374D01*
X007575Y008276D02*
X007482Y008276D01*
X007384Y008177D02*
X007611Y008177D01*
X008031Y008177D02*
X008069Y008177D01*
X008069Y008276D02*
X008031Y008276D01*
X008031Y008374D02*
X008069Y008374D01*
X008069Y008473D02*
X008031Y008473D01*
X008031Y008571D02*
X008069Y008571D01*
X008069Y008670D02*
X008031Y008670D01*
X008031Y008768D02*
X008069Y008768D01*
X008069Y008867D02*
X008031Y008867D01*
X008031Y008965D02*
X008069Y008965D01*
X008069Y009064D02*
X008031Y009064D01*
X010285Y008600D02*
X011115Y008600D01*
X010729Y008276D02*
X010671Y008276D01*
X010630Y008965D02*
X010770Y008965D01*
X011785Y008600D02*
X012515Y008600D01*
X013556Y009261D02*
X013989Y009261D01*
X014250Y006435D02*
X015250Y006435D01*
X015634Y006109D02*
X015691Y006109D01*
X015614Y005419D02*
X017063Y005419D01*
X017162Y005321D02*
X015575Y005321D01*
X015657Y005222D02*
X017260Y005222D01*
X017359Y005124D02*
X017054Y005124D01*
X017174Y005025D02*
X017457Y005025D01*
X017556Y004927D02*
X017264Y004927D01*
X017305Y004828D02*
X017654Y004828D01*
X017739Y004730D02*
X017346Y004730D01*
X017350Y004631D02*
X017739Y004631D01*
X017739Y004533D02*
X017350Y004533D01*
X017331Y004434D02*
X017739Y004434D01*
X017739Y004336D02*
X017290Y004336D01*
X017236Y004237D02*
X017818Y004237D01*
X017905Y004139D02*
X017137Y004139D01*
X016966Y004040D02*
X017845Y004040D01*
X017746Y003942D02*
X016459Y003942D01*
X016309Y003843D02*
X017625Y003843D01*
X017527Y003745D02*
X010262Y003745D01*
X010361Y003843D02*
X013962Y003843D01*
X013863Y003942D02*
X010452Y003942D01*
X010486Y004040D02*
X012473Y004040D01*
X012367Y004139D02*
X010486Y004139D01*
X010486Y004237D02*
X012269Y004237D01*
X012608Y004265D02*
X012274Y004600D01*
X012608Y004265D02*
X014250Y004265D01*
X014657Y004040D02*
X014843Y004040D01*
X014863Y003942D02*
X014637Y003942D01*
X014538Y003843D02*
X014962Y003843D01*
X015250Y004265D02*
X015415Y004100D01*
X016250Y004100D01*
X016750Y004600D01*
X016236Y004927D02*
X015681Y004927D01*
X015666Y005025D02*
X016326Y005025D01*
X016446Y005124D02*
X015657Y005124D01*
X015657Y004828D02*
X016195Y004828D01*
X016154Y004730D02*
X015657Y004730D01*
X015657Y004631D02*
X016150Y004631D01*
X016150Y004533D02*
X015657Y004533D01*
X015657Y004434D02*
X016169Y004434D01*
X017231Y003449D02*
X009967Y003449D01*
X010065Y003548D02*
X017330Y003548D01*
X017428Y003646D02*
X010164Y003646D01*
X009868Y003351D02*
X013675Y003351D01*
X013534Y003252D02*
X009770Y003252D01*
X009671Y003154D02*
X013436Y003154D01*
X013337Y003055D02*
X009573Y003055D01*
X009474Y002957D02*
X013239Y002957D01*
X013140Y002858D02*
X009376Y002858D01*
X009312Y002760D02*
X013042Y002760D01*
X012994Y002661D02*
X009330Y002661D01*
X009330Y002563D02*
X012990Y002563D01*
X012990Y002464D02*
X009321Y002464D01*
X009281Y002366D02*
X011979Y002366D01*
X011847Y002267D02*
X009237Y002267D01*
X009139Y002169D02*
X011754Y002169D01*
X011713Y002070D02*
X008986Y002070D01*
X009000Y001775D02*
X011670Y001775D01*
X011670Y001873D02*
X007941Y001873D01*
X008097Y001775D02*
X008500Y001775D01*
X008394Y001676D02*
X008188Y001676D01*
X008228Y001578D02*
X008335Y001578D01*
X008307Y001479D02*
X008260Y001479D01*
X008260Y001381D02*
X008300Y001381D01*
X008300Y001282D02*
X008260Y001282D01*
X008260Y001184D02*
X008300Y001184D01*
X008260Y001085D02*
X008700Y001085D01*
X008700Y001184D02*
X008800Y001184D01*
X008800Y001282D02*
X008700Y001282D01*
X008700Y001381D02*
X008800Y001381D01*
X008800Y001479D02*
X008700Y001479D01*
X008700Y001578D02*
X008800Y001578D01*
X008800Y001676D02*
X008700Y001676D01*
X008700Y001775D02*
X008800Y001775D01*
X009106Y001676D02*
X011694Y001676D01*
X011735Y001578D02*
X009165Y001578D01*
X009193Y001479D02*
X011801Y001479D01*
X011899Y001381D02*
X009200Y001381D01*
X009200Y001282D02*
X012106Y001282D01*
X012394Y001282D02*
X013106Y001282D01*
X012899Y001381D02*
X012601Y001381D01*
X012699Y001479D02*
X012801Y001479D01*
X013250Y001850D02*
X013250Y002600D01*
X013750Y003100D01*
X015250Y003100D01*
X016750Y001600D01*
X016215Y001578D02*
X014830Y001578D01*
X014830Y001676D02*
X016215Y001676D01*
X016208Y001775D02*
X014830Y001775D01*
X014830Y001873D02*
X016109Y001873D01*
X016011Y001972D02*
X014830Y001972D01*
X014830Y002070D02*
X015912Y002070D01*
X015814Y002169D02*
X014830Y002169D01*
X014830Y002267D02*
X015715Y002267D01*
X015617Y002366D02*
X014771Y002366D01*
X015223Y002760D02*
X013777Y002760D01*
X013679Y002661D02*
X015321Y002661D01*
X015420Y002563D02*
X013580Y002563D01*
X013510Y002464D02*
X015518Y002464D01*
X015860Y002858D02*
X016278Y002858D01*
X016237Y002760D02*
X015958Y002760D01*
X016057Y002661D02*
X016215Y002661D01*
X016215Y002563D02*
X016155Y002563D01*
X016350Y002957D02*
X015761Y002957D01*
X015663Y003055D02*
X016450Y003055D01*
X016936Y003154D02*
X015564Y003154D01*
X015466Y003252D02*
X017034Y003252D01*
X017133Y003351D02*
X015325Y003351D01*
X016750Y002600D02*
X017800Y003650D01*
X018165Y003650D01*
X018165Y004600D01*
X018165Y004685D01*
X016750Y006100D01*
X014250Y005765D02*
X014250Y004935D01*
X014085Y005600D02*
X012274Y005600D01*
X012274Y005100D02*
X013150Y005100D01*
X013250Y005000D01*
X014085Y005600D02*
X014250Y005765D01*
X011638Y005813D02*
X010862Y005813D01*
X010869Y005715D02*
X011631Y005715D01*
X011631Y005616D02*
X010869Y005616D01*
X010869Y005518D02*
X011631Y005518D01*
X011631Y005419D02*
X010869Y005419D01*
X010854Y005321D02*
X011646Y005321D01*
X011631Y005222D02*
X010869Y005222D01*
X010869Y005124D02*
X011631Y005124D01*
X011631Y005025D02*
X010869Y005025D01*
X010869Y004927D02*
X011631Y004927D01*
X011653Y004828D02*
X010847Y004828D01*
X010869Y004730D02*
X011631Y004730D01*
X011631Y004631D02*
X010869Y004631D01*
X010869Y004533D02*
X011631Y004533D01*
X011631Y004434D02*
X010869Y004434D01*
X010810Y004336D02*
X011690Y004336D01*
X011631Y005912D02*
X010792Y005912D01*
X010809Y006010D02*
X011631Y006010D01*
X009661Y005912D02*
X009451Y005912D01*
X009451Y006010D02*
X009643Y006010D01*
X009643Y006207D02*
X009451Y006207D01*
X009451Y006306D02*
X009671Y006306D01*
X009599Y005321D02*
X009538Y005321D01*
X009583Y005222D02*
X009440Y005222D01*
X009341Y005124D02*
X009583Y005124D01*
X009583Y005025D02*
X009243Y005025D01*
X009144Y004927D02*
X009583Y004927D01*
X009606Y004828D02*
X007346Y004828D01*
X007247Y004730D02*
X009583Y004730D01*
X009583Y004631D02*
X007149Y004631D01*
X007050Y004533D02*
X009583Y004533D01*
X009583Y004434D02*
X007010Y004434D01*
X007010Y004336D02*
X009643Y004336D01*
X009966Y004237D02*
X007010Y004237D01*
X007010Y004139D02*
X009921Y004139D01*
X009822Y004040D02*
X007010Y004040D01*
X007010Y003942D02*
X009724Y003942D01*
X009625Y003843D02*
X007010Y003843D01*
X007010Y003745D02*
X009527Y003745D01*
X009428Y003646D02*
X007010Y003646D01*
X007010Y003548D02*
X009330Y003548D01*
X009231Y003449D02*
X007010Y003449D01*
X007010Y003351D02*
X009133Y003351D01*
X009034Y003252D02*
X007010Y003252D01*
X007179Y002464D02*
X005706Y002464D01*
X005608Y002366D02*
X007219Y002366D01*
X007263Y002267D02*
X005407Y002267D01*
X005030Y002267D02*
X002250Y002267D01*
X002250Y002169D02*
X002443Y002169D01*
X002272Y002070D02*
X002250Y002070D01*
X002250Y002435D02*
X002355Y002435D01*
X002578Y002563D02*
X002938Y002563D01*
X002858Y002661D02*
X002657Y002661D01*
X002698Y002760D02*
X002818Y002760D01*
X002804Y002858D02*
X002712Y002858D01*
X002712Y002957D02*
X002804Y002957D01*
X002839Y003055D02*
X002677Y003055D01*
X002625Y003154D02*
X002891Y003154D01*
X002989Y003252D02*
X002526Y003252D01*
X002250Y004336D02*
X002859Y004336D01*
X002761Y004434D02*
X002250Y004434D01*
X002250Y004533D02*
X002689Y004533D01*
X002648Y004631D02*
X002250Y004631D01*
X002250Y004730D02*
X002610Y004730D01*
X002610Y004828D02*
X002250Y004828D01*
X002250Y004927D02*
X002610Y004927D01*
X002630Y005025D02*
X002250Y005025D01*
X002250Y005124D02*
X002671Y005124D01*
X002717Y005222D02*
X002250Y005222D01*
X002250Y005321D02*
X002815Y005321D01*
X002951Y005419D02*
X002250Y005419D01*
X003270Y002169D02*
X007361Y002169D01*
X007514Y002070D02*
X003440Y002070D01*
X003562Y001972D02*
X011673Y001972D01*
X012521Y002366D02*
X012979Y002366D01*
X012847Y002267D02*
X012653Y002267D01*
X012746Y002169D02*
X012754Y002169D01*
X013521Y002366D02*
X013729Y002366D01*
X013670Y002267D02*
X013653Y002267D01*
X013683Y001381D02*
X013601Y001381D01*
X013781Y001282D02*
X013394Y001282D01*
X014719Y001282D02*
X016215Y001282D01*
X016215Y001381D02*
X014817Y001381D01*
X014830Y001479D02*
X016215Y001479D01*
X016220Y001184D02*
X009200Y001184D01*
X008800Y001085D02*
X016318Y001085D01*
X008936Y003154D02*
X008929Y003154D01*
X008263Y002267D02*
X008237Y002267D01*
X008139Y002169D02*
X008361Y002169D01*
X008514Y002070D02*
X007986Y002070D01*
X007559Y001873D02*
X006941Y001873D01*
X007097Y001775D02*
X007403Y001775D01*
X007312Y001676D02*
X007188Y001676D01*
X007228Y001578D02*
X007272Y001578D01*
X006559Y001873D02*
X003660Y001873D01*
X003729Y001775D02*
X006403Y001775D01*
X006312Y001676D02*
X003786Y001676D01*
X003833Y001578D02*
X006272Y001578D01*
X006240Y001479D02*
X003860Y001479D01*
X003886Y001381D02*
X006240Y001381D01*
X006240Y001282D02*
X003896Y001282D01*
X003896Y001184D02*
X006240Y001184D01*
X006240Y001085D02*
X003896Y001085D01*
X003874Y000987D02*
X006240Y000987D01*
X006240Y000888D02*
X003848Y000888D01*
X003816Y000790D02*
X006240Y000790D01*
X006243Y000691D02*
X003760Y000691D01*
X008257Y000691D02*
X008312Y000691D01*
X008300Y000790D02*
X008260Y000790D01*
X008260Y000888D02*
X008300Y000888D01*
X008300Y000987D02*
X008260Y000987D01*
X017920Y009261D02*
X021161Y009261D01*
X021160Y009359D02*
X017920Y009359D01*
X017920Y009458D02*
X021159Y009458D01*
X021158Y009556D02*
X017920Y009556D01*
X017920Y009655D02*
X021157Y009655D01*
X021156Y009753D02*
X017920Y009753D01*
X017920Y009852D02*
X021155Y009852D01*
X021154Y009950D02*
X017965Y009950D01*
X018000Y010049D02*
X021153Y010049D01*
X021152Y010147D02*
X018000Y010147D01*
X017967Y010246D02*
X021151Y010246D01*
D31*
X019250Y004600D03*
X014250Y008500D03*
X013250Y008100D03*
X004750Y010100D03*
X002750Y016850D03*
D32*
X003531Y014600D02*
X003531Y013431D01*
X004713Y012750D01*
X004750Y010100D02*
X002915Y010110D01*
X007980Y013900D02*
X010420Y013900D01*
X014250Y008500D02*
X014250Y007935D01*
X018835Y004600D02*
X019250Y004600D01*
D33*
X020000Y004645D02*
X020070Y004660D01*
X020070Y005460D01*
X020000Y005515D01*
X018835Y006100D02*
X018790Y006100D01*
X017670Y007220D01*
X017670Y010100D01*
X016710Y008980D02*
X016710Y008660D01*
X016750Y008600D01*
X016710Y008980D02*
X015110Y008980D01*
X015085Y009000D01*
X015030Y009060D01*
X015030Y009540D01*
X013190Y009540D01*
X013185Y009600D01*
X012515Y009600D02*
X012470Y009620D01*
X010790Y011300D01*
X010310Y011300D01*
X010310Y011140D01*
X010250Y011100D01*
X010470Y012660D02*
X010470Y013860D01*
X010420Y013900D01*
X010470Y012660D02*
X012950Y012660D01*
X013000Y012596D01*
X007750Y017100D02*
X007750Y018600D01*
X006790Y018580D02*
X006750Y018600D01*
X008750Y018600D02*
X008790Y018580D01*
X008790Y018020D01*
X004665Y016850D02*
X004630Y016900D01*
X003830Y016900D01*
X003795Y016850D01*
X003270Y016820D02*
X003205Y016850D01*
X014250Y007265D02*
X014250Y007240D01*
X014310Y004940D02*
X014250Y004935D01*
X014310Y004940D02*
X015430Y004940D01*
X015250Y004935D01*
X015430Y004300D02*
X015250Y004265D01*
X015430Y004300D02*
X014310Y004300D01*
X014250Y004265D01*
D34*
X013250Y005000D03*
X013350Y006400D03*
X009250Y007100D03*
X007750Y006100D03*
D35*
X017670Y010100D03*
D36*
X007980Y012990D02*
X007050Y012060D01*
X007050Y011200D01*
X006760Y010910D01*
X002915Y010897D01*
D37*
X002856Y018691D03*
X020254Y018604D03*
X020254Y001281D03*
X002856Y001206D03*
D38*
X016250Y012194D02*
X016344Y012100D01*
X018250Y012100D01*
X020250Y014100D01*
X020450Y014100D01*
X016250Y017600D02*
X015250Y016600D01*
X013004Y016600D01*
X013000Y016596D01*
X016250Y017600D02*
X016250Y018100D01*
M02*
